<svg xmlns="http://www.w3.org/2000/svg" viewBox="0 0 450 450"><defs><style>.cls-1{fill:#514635;}.cls-2{fill:#382b18;}.cls-3{fill:#ffcc45;}</style></defs><title>button-session-check</title><g id="still_reading_" data-name="still reading?"><path class="cls-1" d="M17.88,225c-.08-.69-.3-.3-.2,1.59l.36,1.34Z"/><path class="cls-1" d="M17.69,237.73c.33,2.21.81,4.74,1,3.28-.48-2.16-.39-2.7-1-5-.12-1.89,0-3.3.14-3-.1-.66,0-2.94-.24-3.95-.09,1.23-.13,2.63-.1,4.13q0,1.13.09,2.31c.07.78.18,1.58.29,2.39S17.76,237.89,17.69,237.73Z"/><path class="cls-1" d="M104.29,394.65l-1-.73C103.59,394.13,103.92,394.37,104.29,394.65Z"/><path class="cls-1" d="M211.18,432.93a6.06,6.06,0,0,0-1.29,0A6.45,6.45,0,0,0,211.18,432.93Z"/><path class="cls-1" d="M230.82,433.65h-1.16A8.62,8.62,0,0,0,230.82,433.65Z"/><path class="cls-1" d="M104.29,394.65l2.45,1.86A19,19,0,0,0,104.29,394.65Z"/><path class="cls-1" d="M21.59,262.9c-.13-.63-.25-1.14-.38-1.62.11.52.21,1,.31,1.53Z"/><path class="cls-1" d="M66.77,360.72l-.61-.7c-.21-.19-.42-.35-.62-.5Z"/><path class="cls-1" d="M44.25,329a2.92,2.92,0,0,0,1.1,1.12,10.6,10.6,0,0,1-1.13-1.56S44.17,328.72,44.25,329Z"/><path class="cls-1" d="M22.24,271.63,22,270.58C22,270.85,22.15,271.31,22.24,271.63Z"/><path class="cls-1" d="M86.22,380.66a.88.88,0,0,0,.2.31S86.36,380.83,86.22,380.66Z"/><path class="cls-1" d="M23.36,180.65s0,0-.05,0C23.29,180.86,23.29,180.93,23.36,180.65Z"/><path class="cls-1" d="M17.14,225v-.62c-.05-.07-.1-.14-.15-.14Z"/><path class="cls-1" d="M266.64,430l-.16,0C265.55,430.22,266.08,430.12,266.64,430Z"/><path class="cls-1" d="M429.22,180.78c.59,3.7-1.69-5.86-.69-.31C428.52,179.93,430.11,185.37,429.22,180.78Z"/><path class="cls-1" d="M21.73,263.89c.09.52.19,1,.28,1.56C21.89,264.74,21.81,264.26,21.73,263.89Z"/><path class="cls-1" d="M428.53,180.47h0l.1.57C428.59,180.8,428.56,180.67,428.53,180.47Z"/><path class="cls-1" d="M342.63,397.74a8.07,8.07,0,0,0-.76.39A3.78,3.78,0,0,0,342.63,397.74Z"/><path class="cls-1" d="M287,424.22l1.46-.46C287.89,423.93,287.42,424.08,287,424.22Z"/><path class="cls-1" d="M367.4,377.36c.61-.56.84-.72,1.64-1.54l-.28.22A13.64,13.64,0,0,1,367.4,377.36Z"/><path class="cls-1" d="M389.86,352.72l-.43.45-.64.84Z"/><path class="cls-1" d="M67.39,91.49a14,14,0,0,1-1.19,1C66.68,92.22,63.56,95.94,67.39,91.49Z"/><path class="cls-1" d="M21.44,263a3.61,3.61,0,0,1,.29.94l-.21-1.08C21.46,262.72,21.42,262.71,21.44,263Z"/><path class="cls-1" d="M366.85,374.81l3.83-3.59C369.6,372.21,368.21,373.52,366.85,374.81Z"/><path class="cls-1" d="M282.12,26.42l-1.17-.3C281.39,26.25,281.81,26.36,282.12,26.42Z"/><path class="cls-1" d="M381.22,359.77c.69-.65,1.39-1.36,2.09-2.11.12-.18.27-.38.34-.51Z"/><path class="cls-1" d="M66.19,92.49h0Z"/><path class="cls-1" d="M46.9,121.15c2.49-4.33.86-2.22,1.2-3.25,3.13-5.1,1.72-2.19,3-3.8,1-1.59,1.76-3,2.51-4.38s1.55-2.5,2.36-3.63c.17-.13.5-.56.19,0,.51-.85,1.19-1.87,2-3,.39-.55.8-1.13,1.21-1.73l1.37-1.76c1.86-2.37,3.72-4.84,5-6.73a2.48,2.48,0,0,1,.47-.39c-.63.44-.85.41-.86.21,1.47-1.71,2.56-3.32,3.3-3.8a9.77,9.77,0,0,0-1.27,1.73l1.46-1.85c1.65-1.38-2,2.51-1.82,2.68l4.5-5.55c1.55-1.77,3.06-3.4,4.31-4.64.75-.3-5.6,6-2.14,2.84L71.75,86l-1.83,2c3.13-2.79-2.19,2.47.74,0l1.6-1.8c.49-.53.94-1,1.35-1.43.81-.88,1.49-1.61,2.16-2.35A70.52,70.52,0,0,1,81.06,77c1-1.24-.58.17.45-1.08,1.78-1.81,3.07-3,4.08-3.91a30.31,30.31,0,0,1,2.5-1.84,30.25,30.25,0,0,0,5.17-4.28,28.82,28.82,0,0,1,6-5.29l-1.19,1.43c2.73-2.13,3.42-2.86,4.21-3.53a36.83,36.83,0,0,1,4.63-3.37c-1,.87-4.36,3.26-3.48,2.69,4-2.48,2.58-2.11,5.53-4.2a7.21,7.21,0,0,1,.81-.14l4.73-3.12c1.61-1,3.21-2.19,4.94-3.18,3.41-2,6.86-4.23,10.53-6-.36.3-1.56,1,.19.25l3.47-1.83,1.78-.92,1.83-.83c2.47-1.11,5-2.24,7.46-3.32l7.58-2.86,1.85-.69,1.86-.59,3.62-1.14,3.5-1.5c.84-.28,1.62-.33.71,0,3.76-.95.14-.23,1.9-.85,2.11-.62,2.84-.63,1.53-.17a143,143,0,0,1,26-6l-1.37.33,3.39-.56c.93-.16,1.69-.33,2.44-.49a36.34,36.34,0,0,1,5.56-.81l-1,.17c6.07-.54,12.46-1.08,18.51-1.13,1.52,0,3-.08,4.46-.09l4.26.15,4,.18c1.28.06,2.5.14,3.65.31a52.06,52.06,0,0,1,6.78.37l2.1.17,1.84.21a5.9,5.9,0,0,0,2.1,0c3.44.59,4.65.84,6.22,1.13s3.47.77,8.26,1.72c2.57.45,3.89.43,7.06,1.08v.31l4.36.68c.73.28,1.44.62,2.16.95l2.94.75a7.76,7.76,0,0,1-2.24-.87c2.3.58,5.07,1.42,7.26,2.14a27.6,27.6,0,0,1,3.8,1.57l5.34,1.67c1.79.55,3.51,1.26,5.27,1.89a34,34,0,0,1-3.44-1.1c5.67,1.9.89.7,6.09,2.44-.66-.33.44,0,.58,0,1.25.55,3.27,1.51,5.51,2.55l3.46,1.56c1.17.51,2.31,1,3.33,1.54l-.88-.21,5.68,2.92c1,.5,2,1,2.93,1.5l2.91,1.65c1.95,1.12,4,2.21,5.94,3.39l5.86,3.73c-2.76-1.89-1.92-1.78.41-.33l.74.86c1.6.78-2.34-1.65.85.11,2.85,2,1.71,1.64,0,.57L343.89,56c.15.22-.69-.31-1-.36,1.52.86,5.8,4.43,7.92,5.78l.13.22,4.85,3.79c1.41,1.15,2.64,2.24,3.85,3.26l3.6,3.06c1.21,1,2.41,2.24,3.79,3.53.3-.1,2.41,2,4.21,3.4l6,6.51c2.06,2.3,4.08,4.83,6.3,7.34.81.87,1.26,1.38,1.51,1.66s.35.34.38.33-.08-.31.64.47c0,.44,4.19,5.7,1.89,3.08,1.24,1.59,2.32,2.84,3.18,4.08l2.51,3.46c.84,1.15,1.73,2.35,2.77,3.78l3.55,5.3c-.51-1-1.15-2.07-.72-1.57a16.11,16.11,0,0,1,1.94,3.45l-.29-.39a126.49,126.49,0,0,1,8.94,16.36c1.43,2.82,2.55,5.7,3.72,8.31.58,1.31,1.15,2.57,1.71,3.75s1,2.33,1.46,3.37l-.21-.47,1.87,4.35.92,2.18.83,2.22c1.35,4.14-1-2.41-.14.69.92,2.38,1.7,4.53,2.39,6.53s1.13,3.93,1.63,5.76c.25.92.5,1.82.75,2.72l.37,1.36c.11.46.21.91.32,1.38.43,1.84.89,3.73,1.43,5.76.09.82.24,1.78.43,2.85s.33,2.29.54,3.57.46,2.65.7,4.07.55,2.89.72,4.39c.39,3,.85,6.06,1.17,8.93s.37,5.56.42,7.75l.14-.52a18.66,18.66,0,0,1,.11,4.41c.14-.24.1-2.46.23-1.06q.12,3.6.24,7.26c0,1.22.1,2.44.05,3.66s-.06,2.46-.1,3.69-.07,2.46-.11,3.7-.05,2.48-.18,3.71c-.21,2.48-.43,5-.64,7.44l-.17,1.86-.26,1.86-.51,3.71c-.35,2.47-.66,4.94-1.18,7.38s-.93,4.89-1.4,7.32-1.16,4.81-1.73,7.2a47.47,47.47,0,0,0-1.09,5.79,34.77,34.77,0,0,1-1.89,7l.39-2.57c-3.73,14.06-10,28-16.61,40.59.35-.78.3-.83.93-2.07-.76,1.29-2.22,3.66-3.35,5.79a33.33,33.33,0,0,0-2,4c-1.21,1.86-.43.34-1.25,1.44-1.76,2.44-3.78,6.57-4.93,7.72-.2.2.43-.73.72-1.2-1,1.68-5.32,7.44-4,6.07-1.56,2.17-3.15,4.17-4.62,6.09l-2.16,2.79-1.06,1.32-1.09,1.2c-1.61,2.28-6.06,6.85-6.42,7.71-.09-.6-6.65,6.6-9.07,9,.73-.87-2.22,1.93-1.39.88-2.73,2.71-5.41,5-4.74,4.76-2.87,2.11-5.45,4.59-7.94,6.57-1.22,1-2.37,2-3.44,2.79a15.34,15.34,0,0,1-3,1.93l-6.78,5c-2.3,1.54-4.56,3-6.8,4.53-.56.37-1.11.75-1.68,1.11l-1.71,1L327,405l-3.37,2-3.44,1.81a5.7,5.7,0,0,1,1.63-1.06l1.6-.86,1.76-1c2.37-1.38,4.66-2.71,4.35-2.81l-5.71,3.48c-1.79,1-3.48,1.93-5.17,2.86l-2.54,1.38-1.31.7-1.36.65c-1.86.86-3.84,1.76-6.06,2.74s1.22-.77,2-1.19L306,415.18c-1.09.51-2.21.91-3.3,1.36l-6.5,2.57-6.41,2.2c-1.06.36-2.1.73-3.14,1.1l-3.13,1a14,14,0,0,1,1.74-.62c-1.65.48-3.85,1-3.61,1.17l1.59-.51c2.72-.47-6.38,2.47-6.65,2.68,2.7-1.22-8.42,1.79-4.08,0-1.09.29-2.45.7-2.17.78-1.64.34-2.17.38-.55-.16-1.49.37-2.47.64-3.19.84L265,428c-.89.23-1.71.43-4.45.91a15.82,15.82,0,0,1,1.65-.55A59.37,59.37,0,0,1,252,430.24c.27-.09-.28-.1,1.11-.28-2,.27-3.85.54-5.64.81-.89.15-1.77.26-2.65.35l-2.64.28c-1.76.18-3.55.36-5.45.52s-3.93.15-6.15.18c2.61-.5-3-.06-3.49-.43-.79,0-1.58.1-2.38.1h-2.38l1.91.23c-2.09-.06-4.05,0-5.95,0a43.24,43.24,0,0,1-5.5-.19l1.55,0,1.55,0c-1.3,0-2.6-.1-3.9-.19l-3.91-.26,4.41.48c-4.23-.13.42.51-5.13,0,1.14,0-4.18-.26-6.31-.85h0a72.17,72.17,0,0,1-7.26-.77c-.78-.21.7-.32.2-.47a50.75,50.75,0,0,1-5.93-.82c-2.47-.43-5-.81-6.32-1,.86.12.94-.06.68-.16l-1.73-.14c-1.87-.52-2.13-.62-1.79-.7-5.66-1.35,1.69.88-5-.88.54.11.29,0,1.4.23-6.7-1.78-13-3.38-19-5.62-1.66-1,5.31,1.7,3.37.71a182.38,182.38,0,0,1-26-10.22l1.46.79c-1.33-.1-5.81-3.21-9.89-5.13,1,.53,1.41.44,1.11.36-2.62-1.54-5.33-3.07-8.4-4.76-1.52-.88-3.08-1.88-4.79-2.91l-2.64-1.61c-.92-.55-1.86-1.14-2.8-1.81l1,.55c-1.43-1.09-3.35-2.48-5.3-3.88-1-.7-2-1.38-2.87-2.09l-2.51-2c-1-.61-2.72-2-1.79-1-1.11-1-2.24-2-3.35-2.91s-2.15-1.95-3.23-2.89c-2.17-1.88-4.35-3.65-6.36-5.56l-3-2.78c-1-.93-2-1.83-2.94-2.83-1.87-1.94-3.68-3.91-5.39-5.94.88.92,2.18,2.11,1.48,1.38l-1.58-1.62c-.52-.54-1-1.12-1.51-1.67l-3-3.38a16.6,16.6,0,0,0,1.78,2.54c-.85-.77-2.61-2.64-4.08-4.33,2.8,3,.22-.23-.75-1.71.13.27-.3-.15-.26,0-2.6-4-.86-.33-4.63-5.58l.3.19-1.14-1.37-1.09-1.4c-.72-.94-1.44-1.91-2.19-3-.4-1,1.6,2,1.87,2-2.11-3-4.66-5.56-6.17-8.54.9,1.27,2.1,3.16,3.09,4.37-.93-1.55-1.42-2.43-1.88-3.2s-.87-1.41-1.58-2.55l.14.23c-1.06-1.77-2.18-3.51-3.19-5.3.22.47.49.93.75,1.38a39,39,0,0,1-3.93-6c-.64-1.1-1.29-2.24-2-3.44s-1.35-2.49-2.16-3.81c3.12,5.14.67.77,1.15,1-.64-1.44-1.65-3.61-1.26-3.05a30.48,30.48,0,0,1-1.86-3.57A39.64,39.64,0,0,0,36.18,310c0-.21-1.27-2.84-.78-2.34-1.63-3.42.21.88,0,.64-2.71-5.2-4.84-12.82-7.87-20.64-1.18-3.43-1.81-5.48-2.53-7.44-.34-1-.67-2-1.06-3.08s-.68-2.44-1.1-4.07c-.36-2.25.76,1.73.76,1.73-.34-1.8-.67-3.37-1-4.91s-.77-3-1.1-4.73c.21.67.15-.05.07-1.1-.51-2.72-.67-1.76-1.17-5.38a24.75,24.75,0,0,1,.87,2.65c-.34-1.59-.69-3.18-1-4.77s-.53-3.24-.81-4.91c.06-.91.52,2,.78,3.15-.55-3.75-1.44-9.72-1.69-10.87l.09,2.43c-.12-1.38.15-.73.32.28.62,3.2.5,4.66.42,4.86l-.36-2.38a31.57,31.57,0,0,0,.63,6.34c.18,1.35.55,2.74.83,4.1s.56,2.7.77,3.89l-.77-1.91,1.22,4.83c0,.53.06,1,0,1s-.26-.36-.49-1.54c.48,3.46.81,3,1.24,5.95,0,.33,0,.19-.1-.11l.88,3.29c-.23-.63-.16.62-.57-1.43.3,1.5.56,2.86.91,4.05s.69,2.26,1,3.21a30,30,0,0,1,1.24,4.48l-.16-.49a30.88,30.88,0,0,0,1.22,3.61c.22.53.28.55.32.5s.1-.43,1.28,2.52l.66,4.29.56.69c.29.82.92,2.44.68,2.18,1.39,3-.08-.56.8,1.13.66,2,1.7,4.7,2.69,7a22.67,22.67,0,0,1,1.85,4.7c.83,1.28-1.5-3.73.5.29a10.92,10.92,0,0,0,1.3,3.32c.77,1.42,1.75,3.1,2.51,4.86-.78-.92-2.31-4.24-.77-.7a26.65,26.65,0,0,1,2.41,4.41c.86,1.8,1.85,3.65,2.68,5.05.2,0,1.11,1.48,2.33,3.58s2.94,4.66,4.44,6.93c-.37-.18,5.55,8.61,8.6,12.67l-.14-.08a19,19,0,0,1,2.67,2.92L64,357c.65.81,1.37,1.57,2,2.28-.26,0-.8-.42-2.19-1.94.75.93,1.55,1.81,2.33,2.72a37,37,0,0,1,3,3.09l-.8-.5c.79.9,1.58,1.79,2.41,2.69L73.39,368l2.8,2.85c.48.51,1,1,1.46,1.55l1.59,1.58c.43.06-3-3.86,1.78.48.08.26.09.6-1.18-.53.42.37,1.51,1.28,2.28,2.1l-2-1.62c1.94,2,1.19.87,2.78,2.42-.16.11,1.1,1.24.76,1.13-.42-.38-1.35-1.4-2-1.93.9.88,1.88,1.87,2.71,2.73s1.58,1.56,1.9,2c-.09-.22.18-.2,1.59,1,3.6,3.11,1.07,1.25,3.11,3.15.93.68,3.24,2.66,3.49,2.48A9.32,9.32,0,0,1,96,388.81c1,.69,3.25,2.52,5.07,3.79s3.14,2.13,2.1,1.19l-.5-.38.34.22h0c1.68,1.11,3.37,2.28,5.07,3.49s3.48,2.28,5.21,3.45c3.45,2.39,7.07,4.47,10.57,6.42l-.06.08c2.07,1.2,4.49,2.32,6.71,3.45s4.3,2.16,5.92,2.73c1.28.58,3,1.54,2.36,1.39l8.6,3.67c-3.48-1.19,1.13.61-3.55-1.27A98.81,98.81,0,0,0,154,421c-1.73-.33,3.29,1.44,5.46,2.1l-3.1-1.24c2.42.78,4.52,1.51,6.65,2.25l-1.26-.07a68.63,68.63,0,0,0,6.68,2c2.15.56,4.19,1.14,6.22,1.48s4,.78,5.83,1.22l2.78.67c.92.2,1.83.42,2.73.67,2.58.22-5.18-1.09-2.86-.95,4.4.82,8.91,2.13,10.3,2.35a44,44,0,0,0,5.95.6c.73,0,1.48.06,2.44.13s2.12.22,3.72.35c-.81-.18-1.54-.55,3.23-.3,4.46.38,5.46.91,2.63.79a5.7,5.7,0,0,1-1.54-.18c-1.44-.07-3.34-.16-1.58.1l.59-.07c1.1.14,3.19.33,4.82.49s2.82.17,2.09.26c3.39,0,1.46-.16-1.05-.28,2.87.15,5.12.21,7.39.26,1.13,0,2.27.09,3.49,0l4,0c-.94,0-1.81-.16-.87-.18a45,45,0,0,0,5.89-.22c.3-.05.52-.1,1-.15s1.3-.17,2.76-.3c3.34-.07-1.16.53,4.73-.07,3.61-.16.79.25-.64.46,1.35-.16,2.65-.28,3.89-.38s2.42-.27,3.53-.38c2.23-.21,4.17-.35,5.71-.52l-2.81.45c1.68-.28,3.07-.42,4.47-.65-.54,0-1.1,0-1.64,0,1.66-.14,3.05-.47,3-.34,1.67-.46-1.35-.16,2-1,2.21-.3,6.65-1.26,7.45-1.2-6.89,1.24.83.2-5,1.32,1.11-.24,2.49-.47,4.15-.74.25,0-.22.12-.67.21,6.61-1.18,2.94-1,9.7-2.57-.4.18,0,.17.66.08a16.1,16.1,0,0,0,2.07-.5c-2.7.76-1.36.08,1.07-.75,4.32-1.09,4.63-1.42,6.87-2l-2.58.66a15.73,15.73,0,0,1,2.16-.77c1-.32,2.25-.78,3.71-1.3.3.05-2.63,1-1.57.7a44.93,44.93,0,0,1,5.48-1.84c1-.31,2.09-.57,3.15-1s2.16-.82,3.25-1.31c2.12-.7.32.23,2.17-.41,2.47-1.09,3.85-1.56,5.23-2.14s2.81-1.13,5.35-2.38c-1.59.46-1.82.63,1.71-1.23l-8.4,4,5.29-2.78c-2.56,1.13-5.31,2.63-6.9,3.18,2.56-1.24,2.28-1.14,1-.75a44.92,44.92,0,0,0,5.3-2.33c1.77-.9,3.63-1.73,5.64-2.68l.14.59a93.14,93.14,0,0,0,8.43-4.42l4.35-2.64c1.55-.94,3.27-1.87,5.09-3-.81.46-1.59,1-2.42,1.39.89-.77,4.5-2.9,6.81-4.48-.11.3,1.41-.58,2.48-1.13-.2,0,5.19-3.67,5.6-4.45,1.09-.69,2.22-1.32,3.27-2.07,5.56-4.26,6-5.3,11.07-9.68-1.39,1.49,1-.41-2.29,2.66a29.08,29.08,0,0,0,3.19-2.89,36.19,36.19,0,0,0,2.86-2.6,43.71,43.71,0,0,1,3.19-3.06,20.38,20.38,0,0,1,2.54-2.81c.23-.16.06.08.06.08s.67-.73,1.13-1.27.71-.91-.13-.19c5.28-4.5,13.15-14.12,17.07-18.68l2.33-3c.78-1.05,1.52-2.17,2.28-3.25,1.49-2.18,3-4.26,4.24-6.12-.11.27.07.06-.4.76,3.45-5.07,1.59-3.47,5.46-9.26,1-1.46.6-.63.07.32s-1.25,2-.59,1.1c.57-.21,1.58-2.07,2.82-4.33s2.73-4.9,3.91-6.93l-.48,1c1.8-3.12,3.88-7.87,6.24-13.24,0,0-.07.29.07.07.34-.94.78-2.09,1.29-3.35s1-2.7,1.53-4.15c1-2.93,2.3-6,3.09-8.69-.32,1.75-.69,2.47-.1,1.55.77-2.41-.63.56.91-4.24.65-1.51,2-4.9,2.32-5.31-.42,1.54-1,3-1.47,4.54a24.29,24.29,0,0,0,1.49-4.06c.38-1.5.74-3,1.11-4.22l.06.35c2-7,1.48-7.26,3.3-14.89l-.29.77a33.87,33.87,0,0,1,.7-3.87,23.08,23.08,0,0,0,.69-3.86l.62-1.21c.1-.7.23-1.66.39-2.79s.23-2.44.36-3.82.27-2.81.4-4.22.3-2.8.35-4.06a54.37,54.37,0,0,1-.32,5.93c-.2,2.29-.4,4.69-.59,6.52.4-2.77,1.19-9.46,1.19-10.93-.1,1.13-.19,2.55-.39,3.65.22-3.44.3-8,.76-13.52.4.52.55-3.12.68-7.39s0-9.17.25-11.21l-.18-3.71c-.1-1.23-.21-2.46-.31-3.7-.21-2.47-.32-5-.56-7.52s-.59-5.14-.9-7.81l-.24-2c-.12-.67-.23-1.35-.35-2-.25-1.37-.49-2.76-.75-4.18.14,4.13-.61-3.31-1.08-2.5-.24-1.32-.47-2.21-.61-2.82a8.89,8.89,0,0,1-.2-1c-.5-2.66-1-5.34-1.49-8-.18-.95,0-.35.28.46a8.32,8.32,0,0,0,.52,1.71c-.31-1.44-.51-2.3-.65-2.85a5.7,5.7,0,0,1-.17-1,9.5,9.5,0,0,0-.42-2.42c0,.83-.86-1.88-1.7-5.14l1,4.63c-.64-1.95-1.05-3.37-1.35-4.51s-.54-2-.77-2.86a59.46,59.46,0,0,0-2.39-7.35l1,2.42c-.66-2-2.15-5.66-3.63-9.29-.37-.91-.74-1.81-1.11-2.69s-.81-1.68-1.19-2.46c-.76-1.55-1.46-2.88-2-3.78-.24-.71-.5-1.69.31,0-4.21-9.28-10.77-19.9-15-26.57l.54.57c-1.08-1.56-2-2.66-3.24-4.66.12.07.56.54.06-.18s-3.13-4-4.52-6l1.38,1.65a63.59,63.59,0,0,0-4-5.35c-1.28-1.57-2.47-3-3.64-4.36l-7.59-8.18c.17-.14-1.07-1.64-2.68-3.48s-3.57-4-5-5.34l.14,0c-2.08-2-4-3.85-5.91-5.56l-5.67-4.72c-1.82-1.56-3.77-2.92-5.72-4.39s-3.92-3-6.16-4.48c-1.28-1.05-3.06-2.41-5.14-3.94s-4.6-3.06-7.16-4.74l-1.94-1.26c-.66-.41-1.35-.79-2-1.18l-4-2.35c-2.64-1.62-5.32-3-7.66-4.24,1.41.82-.4.18-2.1-.64-2.16-1.29-6.39-2.65-5.85-2.88l.81.37a59,59,0,0,0-10-4.65l-.82.25a66.08,66.08,0,0,0-8.15-3.35l-4.56-1.54c-.77-.25-1.52-.51-2.29-.74l-2.3-.62c-3-.8-5.91-1.65-8.4-2.26a55.41,55.41,0,0,1-5.93-1.62c-1.25-.2-2.63-.55-4-.74s-2.8-.44-4.05-.59l.19-.26-4.67-.88c-1.43-.28-2.79-.4-4.2-.6L249,17.27,246.32,17l-3-.2,1.79-.07a34.92,34.92,0,0,0-5.52,0c-.75.05-1.49.1-2.33.12s-1.75,0-2.88,0L233,16.31l-6.42-.21L225,16l-1.61,0-3.21,0c-2.15,0-4.29,0-6.42.17s-4.24.39-6.33.65a4.36,4.36,0,0,1,1.75-.34c-4,.1-15.51,1.43-14,1.8-.17-.48-8.72,1.37-13.19,2.43l.64-.43A87.36,87.36,0,0,1,173.55,23c-1.26.27-1.16,0,.53-.28a21.85,21.85,0,0,0-3.78,1.07,42,42,0,0,1-4.42,1.32l1.81-.7a29.25,29.25,0,0,0-6.13,2.11,64.23,64.23,0,0,1-8.64,2.6,29.39,29.39,0,0,1-5.12,2.33c-.36,0,.5-.36.93-.56-1.73.63-3.23,1.21-4.57,1.76s-2.49,1.18-3.6,1.71c-2.2,1.09-4.16,2-6.51,3a1.78,1.78,0,0,0-.83.24c1.29-.69,2.58-1.23,3.72-1.76l3-1.35c1.69-.76,2.67-1.2,2.47-1.1-.1-.23-4.44,1.68-1.14-.2l-6.38,3.29c-2.36,1.28-4.78,2.64-6.87,3.63a5.15,5.15,0,0,1-.59.2l.42-.24c-1,.46-1.81.91-2.58,1.37-1.3.7-2.13,1.14-3.36,1.84a20.64,20.64,0,0,0-2.86,1.49c-1.38.78-2.94,1.71-3.92,2.37.31.13-2.32,1.76.24.39a12.88,12.88,0,0,1,1.69-1.11c.3-.18.66-.4.85-.53l-.12.11,5.07-2.95a43.15,43.15,0,0,1-5.51,3.3c-1,.76-2,1.67-2.55,2.14-1.46.7-3.53,1.85-5.34,2.85-.92.49-1.74,1-2.39,1.39a12.41,12.41,0,0,1-1.34.74l-4.65,3.42c-.82.57-1.61,1.21-2.39,1.84L96.4,60.62c-1.51,1.25-3,2.43-4.22,3.53s-2.25,2.17-3,3A12.31,12.31,0,0,1,86.65,69c.86-.81,1.93-1.73,2.36-2.21L86.3,69.26l-1.53,1.36-1.45,1.43A33.75,33.75,0,0,0,79.62,76c-1.92,1.72-1.46,1.16-1.15.78.16-.18.28-.32,0-.11a29,29,0,0,0-2.06,2.08L77,78c-2.51,2.43-4.72,4.7-6.75,6.94s-3.75,4.58-5.59,6.86-3.5,4.76-5.47,7.29c-1,1.25-1.95,2.62-3,4s-2.15,2.86-3.35,4.38A11.72,11.72,0,0,1,54.05,106c-.65.89-1.32,1.77-2,2.68s-1.21,1.86-1.82,2.79c-1.22,1.87-2.45,3.75-3.64,5.66l-3.35,5.89c-.56,1-1.14,2-1.66,3l-1.53,3c-1,2-2.06,4-3,6.06l-2.78,6.14c-.46,1-1,2-1.38,3l-1.26,3.08q-1.29,3.06-2.55,6.08a67.19,67.19,0,0,0-2.43,8.15l-.63.92c-.41,1.67-.73,3.37-1.1,5.05s-.92,3.41-1.42,5-.9,3.2-1.36,4.84-.93,3.35-1.38,5.22-.71,3.93-1,6.23l.41-1.14c-.3,1.63-.78,4.22-1.08,6.35s-.49,3.78-.57,3.49a9.63,9.63,0,0,1-.2,2.38l-.17.08c-.12,1.36-.27,2.71-.36,4.07l-.18,4.08c-.29,3.15-.43,2.9-.58,3s-.16.2-.27.91a30.05,30.05,0,0,0-.32,4.29c0,3.45.21,9.8.35,8.51a17.15,17.15,0,0,1,.35-3.64v3.14c.45.57.87,3,1.39-4.69l-.15-5.34.35-1.7c-.14,1.49-.15,3-.18,4.48.15-1.27.14-2.31.18-3.25s0-1.81,0-2.71a11.2,11.2,0,0,0,.41-2.21l0-5.26c.26-.61.11,2.37.61-1.11.11-2.46-.7,2.29-.32-1.76a18.48,18.48,0,0,0,.8-4.74c.18-.4.17.24.07,1.43.12-1.33.27-3.09.52-4.68a32.14,32.14,0,0,0,.46-3.7c.36-1.29.74-3.51,1.08-5.36s.79-3.32,1-3.14c.09-.84.72-4.65,1.25-7-.23,2.25.22,0,1-2.58s1.61-5.58,1.72-4.93A21.72,21.72,0,0,1,28,162.8c.39-1.31.88-2.81,1.4-4.38s1.05-3.22,1.6-4.81,1.17-3.11,1.65-4.5a9.91,9.91,0,0,1-.46,1.42c1.25-3.06,1.73-3.9,2.59-5.83-.19-.54,1.85-5.26,2.77-7.89,2-3.53-.6,2.43.26,1.43-.18,0,.45-1.62,1.07-3.1s1.28-2.8.85-2.24a24.09,24.09,0,0,1,2.33-3.6c-.17-.7,1.19-2.62,2.25-5,2.44-3.76,1-.77,3.29-5.1C48.92,117.28,46.9,121.15,46.9,121.15Zm83-80.06h0l-2.15,1.11Zm8.84-4.32c-1.09.49-2.47,1.08-3.89,1.76-.34.09-.07-.21.84-.6A26.31,26.31,0,0,0,138.79,36.77Zm-19.44,7.94a10.6,10.6,0,0,1,2-1.1L119,45l-.14.13A2.31,2.31,0,0,1,119.35,44.71Z"/><path class="cls-1" d="M117.09,46.43l-.55.35c.28-.15.56-.28.84-.42s.3-.25.44-.35Z"/><path class="cls-1" d="M103.17,393.79l.17.13a3.73,3.73,0,0,1-.33-.29Z"/><polygon class="cls-1" points="271.49 23.82 271.5 23.74 270.64 23.61 271.49 23.82"/><path class="cls-1" d="M64.35,355.9a3.94,3.94,0,0,0-.38-.61S64.15,355.58,64.35,355.9Z"/><path class="cls-1" d="M50.67,336.88,49,334C49.7,335.27,50.24,336.16,50.67,336.88Z"/><path class="cls-1" d="M41.71,321.26a.83.83,0,0,0-.27-.25l0,0Z"/><path class="cls-1" d="M285.26,422.76l.66-.2C287.46,422,286.42,422.39,285.26,422.76Z"/><path class="cls-1" d="M201.05,430.94l2.73.22A8.35,8.35,0,0,0,201.05,430.94Z"/><path class="cls-1" d="M366.43,375.21h0l.42-.41Z"/><path class="cls-1" d="M207.73,431.46c-1.5-.17-2.77-.25-3.95-.3C205,431.27,206.48,431.41,207.73,431.46Z"/><path class="cls-1" d="M19.27,247l-.1-.86s0,0-.05-.09Z"/><path class="cls-1" d="M19.12,246.07l-.11-1A8.63,8.63,0,0,0,19.12,246.07Z"/><path class="cls-1" d="M18.79,243.09l.22,2A15.76,15.76,0,0,0,18.79,243.09Z"/><path class="cls-1" d="M23.05,270.54l.16.24C23.15,270.64,23.1,270.56,23.05,270.54Z"/><path class="cls-1" d="M24.75,277.58c-.45-1.67-.79-4.27-1.41-6.59l-.13-.21C23.63,271.85,24.13,276,24.75,277.58Z"/><path class="cls-1" d="M33.36,306.66c-.78-1.88-1.46-3.8-2.19-5.7.29,1,.67,2.39-.37-.18C33.33,308.06,30.41,299.22,33.36,306.66Z"/><path class="cls-1" d="M41.44,323.79c-1.54-2.9-.12.11-.25,0a12.47,12.47,0,0,0,.94,1.5A10.64,10.64,0,0,0,41.44,323.79Z"/><path class="cls-1" d="M140,415.3l-.41.1C141.92,416.41,139.66,415.32,140,415.3Z"/><path class="cls-1" d="M164.88,423.21c-.77-.27-1.54-.53-2.29-.86l-1.17-.15C162.56,422.57,163.71,422.93,164.88,423.21Z"/><polygon class="cls-1" points="179.35 428.87 178.26 428.65 182.41 429.51 179.35 428.87"/><path class="cls-1" d="M386.38,357.55l-.73.39C384.57,359.26,384.62,359.78,386.38,357.55Z"/><path class="cls-1" d="M428.89,268.73a24,24,0,0,0,1.17-5.48C429.65,265.45,429.14,267.62,428.89,268.73Z"/><path class="cls-1" d="M297.36,28.85l1.9.63c-1.18-.42-2.35-.89-3.56-1.24C296.26,28.44,296.82,28.61,297.36,28.85Z"/><path class="cls-2" d="M79.41,190.28c-.51-.11-1.08-.25-1.69-.41s-1.17-.31-1.66-.47a.86.86,0,0,1-.28-.17c-.15-.12-.22-.2-.22-.24a9.74,9.74,0,0,0-1.31-.55,5.12,5.12,0,0,1-1-.49,1.83,1.83,0,0,1-.71-.77,3.51,3.51,0,0,1-.25-1.47v-.14a1.59,1.59,0,0,1,.18-.39,1.44,1.44,0,0,0,.18-.38,5.61,5.61,0,0,0,.13-1.33,9.58,9.58,0,0,1,.07-1.42,1.78,1.78,0,0,1,.11-.25,1.37,1.37,0,0,0,.1-.28,1.49,1.49,0,0,1,0-.17c0-.1,0-.21,0-.33s0-.23.05-.33a1.85,1.85,0,0,1,.06-.25s0-.13,0-.28,0-.3,0-.45l.06-.46a2.66,2.66,0,0,0,0-.28s0-.08,0-.2,0-.24.07-.35.06-.23.08-.34a1.88,1.88,0,0,0,0-.19,2.23,2.23,0,0,1,0-.26c0-.14,0-.29.05-.46l.06-.47a1.69,1.69,0,0,1,.06-.3,1.38,1.38,0,0,1,.05-.28,1.58,1.58,0,0,1,.11-.37,1.65,1.65,0,0,1,.18-.32.3.3,0,0,1,.25-.15c.15,0,.29.15.41.44a6.51,6.51,0,0,1,.31,1c.08.4.16.8.22,1.19s.11.67.14.85,0,.33.08.64.06.65.09,1,0,.68.08,1,0,.51,0,.63a1.06,1.06,0,0,1,.13.18.32.32,0,0,1,.07.17,5.59,5.59,0,0,1,.36.94,4.11,4.11,0,0,0,.38.94,2,2,0,0,0,.13.27c.07.13.14.26.22.39s.15.24.22.36l.16.27a.7.7,0,0,1,.21.17c.09.1.14.17.14.21a.58.58,0,0,1,.1.19l.17.35c.06.13.11.24.17.35a.81.81,0,0,1,.09.19,2.64,2.64,0,0,0,.7.67,6.61,6.61,0,0,0,.94.52l1,.41c.33.12.64.25.91.36l.25.24c.13.11.21.17.25.17H83.4l.57.08a4.41,4.41,0,0,0,.57.07h.82a6.63,6.63,0,0,0,1.93-.26c.55-.18,1.14-.39,1.77-.65l.57-.13a1.24,1.24,0,0,0,.58-.25,2.65,2.65,0,0,0,.26-.22l.44-.42.45-.47c.15-.16.25-.27.31-.32l.33-.36.41-.47c.13-.15.26-.29.36-.42l.19-.22a.5.5,0,0,0,.08-.19c0-.11.06-.22.1-.35s.07-.25.1-.35a.5.5,0,0,1,.08-.19,3.54,3.54,0,0,1,.27-.6c.09-.15.17-.3.24-.44a2.35,2.35,0,0,0,.16-.49,3.24,3.24,0,0,0,.06-.7c0-.63,0-1.23,0-1.82s-.07-1.19-.11-1.81a2.11,2.11,0,0,0-.47-1c-.23-.27-.46-.55-.67-.82a1.88,1.88,0,0,0-.22-.29c-.13-.16-.27-.33-.41-.53l-.41-.54a3,3,0,0,1-.22-.31,1.59,1.59,0,0,0-.37-.37l-.32-.16-.35-.11a1.86,1.86,0,0,1-.46-.24,3.14,3.14,0,0,1-.57-.58,1.57,1.57,0,0,0-.66-.5l-.22-.06-.35-.06-.36-.06-.19,0-.48-.17a2.33,2.33,0,0,1-.43-.18,2,2,0,0,0-.34-.23l-.58-.37-.59-.35a2.57,2.57,0,0,0-.37-.19,7,7,0,0,0-1.71-.47,8.15,8.15,0,0,1-1.72-.44,7,7,0,0,1-1.45-.64c-.46-.28-.9-.56-1.31-.85s-.92-.57-1.36-.88a15.08,15.08,0,0,0-1.4-.88.19.19,0,0,0-.07-.13s-.09-.08-.13-.08a24,24,0,0,1-2.23-4.2,12.25,12.25,0,0,1-.88-4.7v-.56a5.44,5.44,0,0,1,0-.57,1.82,1.82,0,0,1,.17-.6.76.76,0,0,0,.11-.19,3.52,3.52,0,0,1,.16-.35,2.28,2.28,0,0,1,.17-.35.79.79,0,0,0,.09-.2s0-.08,0-.19,0-.22.06-.35l.06-.35a.44.44,0,0,1,.06-.19l.14-.38c.06-.16.13-.32.21-.5s.16-.34.26-.51a2.53,2.53,0,0,1,.32-.43,1.93,1.93,0,0,1,.23-.24l.41-.42.39-.39a2.2,2.2,0,0,0,.21-.23s.08-.05.13-.14a.47.47,0,0,0,.07-.25,3.2,3.2,0,0,1,.94-1.27,14.88,14.88,0,0,1,1.41-1,.2.2,0,0,0,.15.06.05.05,0,0,0,.06-.06s.06,0,.13-.08a1.5,1.5,0,0,0,.23-.17l.37-.25h.56l.38-.09.69-.19a7.08,7.08,0,0,1,.7-.17,3.21,3.21,0,0,1,.43-.08H83.4a2.27,2.27,0,0,1,.41-.06l.69-.05.7-.06.43,0h.17a.33.33,0,0,1,.18.1.33.33,0,0,0,.18.1H87.3a3,3,0,0,1,.92.28c.37.17.73.35,1.1.56s.74.41,1.09.63.65.38.88.5a1.06,1.06,0,0,0,.28.13l.25.07a2,2,0,0,1,.5.4l.48.48a3.42,3.42,0,0,0,.53.41A1.16,1.16,0,0,0,94,151a.67.67,0,0,0,.6-.27,1.93,1.93,0,0,0,.3-.61c.06-.24.12-.48.16-.72a2.29,2.29,0,0,1,.17-.6.44.44,0,0,1,.12-.24l.27-.32c.09-.12.19-.22.27-.32a1.37,1.37,0,0,0,.17-.21.16.16,0,0,1,.14-.05h.06a.56.56,0,0,1,.57.41,2,2,0,0,1,.17.73v.32a2,2,0,0,1,0,.31c0,.14-.06.3-.1.47l-.12.47a.7.7,0,0,1-.09.24,51.79,51.79,0,0,0-.44,6.74c0,.35,0,.7,0,1s0,.69,0,1c0,.12-.08.26-.13.43a2.5,2.5,0,0,1-.21.48,1.55,1.55,0,0,1-.3.4.61.61,0,0,1-.39.16.87.87,0,0,1-.54-.15,1,1,0,0,1-.29-.37,2.27,2.27,0,0,1-.16-.46,4,4,0,0,0-.15-.49c-.22-.62-.43-1.32-.65-2.08s-.43-1.43-.64-2a4.28,4.28,0,0,0-.49-.82,12.15,12.15,0,0,0-.76-.95c-.28-.32-.56-.63-.84-.91s-.49-.53-.67-.75a5.68,5.68,0,0,1-.56-.89,1.77,1.77,0,0,0-.67-.75c-.22-.11-.47-.24-.77-.36s-.59-.25-.91-.37a8.83,8.83,0,0,0-.92-.29,3.18,3.18,0,0,0-.81-.12,3.8,3.8,0,0,0-1.44.28,12.48,12.48,0,0,1-1.46.48l-.16,0L82,150l-.32.06-.24,0H80.7l-.15.11-.28.21-.31.23a1.24,1.24,0,0,0-.2.21,11.19,11.19,0,0,0-1.29,1.32,4.89,4.89,0,0,0-.78,1.27,5.82,5.82,0,0,0-.4,1.45,12.48,12.48,0,0,0-.12,1.85c0,.15,0,.37,0,.64s0,.56.09.87a6.12,6.12,0,0,0,.16.83,1.33,1.33,0,0,0,.28.56l2.41,2.31.23.15.33.18.32.14.2.09.2.15.35.23.35.22.19.13a4.86,4.86,0,0,0,1.26.6,9.22,9.22,0,0,1,1.29.54l.34.14.51.22.52.22a1.85,1.85,0,0,1,.34.16l.23.11c.14.08.29.17.46.25l.47.24.3.13h.21l.38,0,.4.07.25.07a.83.83,0,0,1,.27.15l.25.18.4.19c.19.08.38.18.57.28l.56.27.35.19a10.86,10.86,0,0,1,2.78,1.91,13.18,13.18,0,0,1,2.2,2.72,14.92,14.92,0,0,1,1.45,3.21,11.22,11.22,0,0,1,.53,3.36v.32c0,.19,0,.46-.08.8s-.06.69-.1,1-.08.67-.12.94a3.49,3.49,0,0,1-.08.47,5.33,5.33,0,0,1-.36,1.19,5.89,5.89,0,0,1-.57,1c-.22.33-.46.66-.7,1s-.5.68-.75,1a.4.4,0,0,1-.06.13l-.12.22a1.71,1.71,0,0,1-.13.23.41.41,0,0,0-.07.15,1.42,1.42,0,0,1-.66.59,3.55,3.55,0,0,0-.78.44,1.19,1.19,0,0,1-.16.2l-.28.31-.28.29c-.09.09-.14.13-.16.13a5.86,5.86,0,0,1-1,.56,8.75,8.75,0,0,1-1,.35l-1.08.28c-.36.09-.75.19-1.16.31s-.73.23-1,.35a3,3,0,0,1-1.1.17h-.58c-.26,0-.71-.06-1.36-.13l-2-.22-2-.22C80.1,190.38,79.66,190.32,79.41,190.28Z"/><path class="cls-2" d="M106.4,180.2c0-1.66.07-3.32.2-5s.19-3.35.19-5.06v-.65a1.07,1.07,0,0,0-.61-.47c-.28-.1-.57-.19-.88-.28a4.51,4.51,0,0,1-.79-.29.57.57,0,0,1-.34-.54v-.29l.4-.4c.19-.19.39-.39.62-.6s.43-.41.61-.6a5.79,5.79,0,0,0,.4-.43c.06,0,.13-.09.22-.23a.71.71,0,0,0,.13-.26.58.58,0,0,0,.13-.11.3.3,0,0,1,.11-.07s.07-.11.23-.2l.32-.21.27-.35c.12-.16.24-.32.38-.48l.37-.47.22-.31a3,3,0,0,0,.28-.48c.12-.27.26-.55.41-.84l.39-.81q.18-.36.24-.45c.09-.14.18-.25.25-.34l.19-.23a.92.92,0,0,0,.12-.16c0-.12.07-.25.1-.4s.06-.28.1-.41a.75.75,0,0,1,.21-.32.61.61,0,0,1,.88.13,2.18,2.18,0,0,1,.26.62,3.28,3.28,0,0,1,.1.69c0,.22,0,.38,0,.48a7.56,7.56,0,0,1-.13,1.36,6.82,6.82,0,0,0-.14,1.36,2.82,2.82,0,0,0,.15,1,1.07,1.07,0,0,0,.44.55,1.8,1.8,0,0,0,.76.2c.32,0,.68,0,1.09,0h1.08a1,1,0,0,1,.58-.34,3.7,3.7,0,0,1,.66-.07h1.55a.69.69,0,0,0,.52.31l.66.09a2,2,0,0,1,.57.16c.17.08.25.25.25.52v2.47c0,.15-.11.27-.34.36a3.66,3.66,0,0,1-.78.21c-.29,0-.57.08-.83.1l-.52,0h-.47l-.57,0-1-.07-1-.08-.55,0H114l-.19,0-.36,0-.35,0-.19,0h-.09a.78.78,0,0,0-.61.25,1.65,1.65,0,0,0-.37.6,3.55,3.55,0,0,0-.19.71,4,4,0,0,0-.06.6c-.06.81-.11,1.48-.15,2s-.06,1.19-.06,1.89c0,.39,0,.73,0,1a7.81,7.81,0,0,0,.18,1.11v7.53a2.39,2.39,0,0,0,.07.32,2.89,2.89,0,0,1,.08.35,3,3,0,0,0,.2.35l.3.5.26.5a3,3,0,0,0,.18.32,2.58,2.58,0,0,0,1.58,1.16,9.41,9.41,0,0,0,2,.19,9,9,0,0,0,1.17-.09,4,4,0,0,0,1.18-.32,1.8,1.8,0,0,1,.27-.21.94.94,0,0,1,.28-.14s0,0,.13,0h.2a1,1,0,0,1,.54.13.58.58,0,0,1,.22.54,1.13,1.13,0,0,1-.37.87l-.72.66a3.12,3.12,0,0,1-1.39.82,11.73,11.73,0,0,0-1.51.47h-4.05l-.35-.06a1.46,1.46,0,0,1-.45-.15c-.56-.21-1.06-.39-1.48-.53a4.14,4.14,0,0,1-1.27-.7,4.25,4.25,0,0,1-1.18-1.38,7.27,7.27,0,0,1-.66-1.76,12.09,12.09,0,0,1-.28-1.94q-.06-1-.06-1.95Z"/><path class="cls-2" d="M122.28,189.87c0-.31.21-.51.62-.6a7.88,7.88,0,0,1,1.39-.17c.52,0,1-.07,1.46-.12s.72-.19.82-.43a5.56,5.56,0,0,0,.32-1.23A9.54,9.54,0,0,0,127,186q0-.52,0-1.05c0-.35,0-.69,0-1v-.49c0-.88.11-1.76.2-2.63s.16-1.76.18-2.68V171a1.85,1.85,0,0,0,.18-.57,4.67,4.67,0,0,0,0-.57.75.75,0,0,0-.24-.61,1.38,1.38,0,0,0-.56-.3,2.93,2.93,0,0,0-.67-.1,2.49,2.49,0,0,1-.56-.07,2.81,2.81,0,0,1-.56-.06,2,2,0,0,1-.54-.19,1.25,1.25,0,0,1-.41-.34.75.75,0,0,1-.16-.5.64.64,0,0,1,.15-.45.68.68,0,0,1,.36-.23,2.31,2.31,0,0,1,.47-.11,3.86,3.86,0,0,0,.49-.09,1,1,0,0,0,.2-.05l.35-.14.34-.13.19-.06.38,0,.65-.05.64-.06a1.52,1.52,0,0,0,.36-.06,9.27,9.27,0,0,0,1-.32l1-.41a9.35,9.35,0,0,1,1-.36,4.15,4.15,0,0,1,1.05-.14h.23c.18,0,.28.05.32.14v.74a21.41,21.41,0,0,1-.23,3.22,21.41,21.41,0,0,0-.24,3.22,4.55,4.55,0,0,0,.14,1.16,4.68,4.68,0,0,1,.13,1.07c0,.17,0,.32,0,.42a1.42,1.42,0,0,1-.13.43c0,1.52,0,3-.12,4.57s-.14,3.05-.14,4.57v1c0,.51,0,1,0,1.48a6.49,6.49,0,0,0,.23,1.48,1.14,1.14,0,0,0,.38.38,1.49,1.49,0,0,0,.44.17l.5.05a2.08,2.08,0,0,1,.59.14.67.67,0,0,1,.26.07l.38.16.4.18.31.14.18.15v.15a.28.28,0,0,1-.14.23.86.86,0,0,1-.29.13l-.32.06-.19,0c-1.9,0-3.79,0-5.67.07s-3.76.13-5.66.13h-.5a1.53,1.53,0,0,1-.49-.11,1.08,1.08,0,0,1-.38-.26A.8.8,0,0,1,122.28,189.87Zm4.29-39.26a2.82,2.82,0,0,1,.2-1.07,2.92,2.92,0,0,1,.56-.89,2.6,2.6,0,0,1,.84-.61,2.37,2.37,0,0,1,1.07-.24,4.2,4.2,0,0,1,1.17.19,4.83,4.83,0,0,1,1.15.54,3.47,3.47,0,0,1,.88.87,2,2,0,0,1,.35,1.16,3.62,3.62,0,0,1-.27,1.48,2.37,2.37,0,0,1-.73,1,2.9,2.9,0,0,1-1.13.54,5.36,5.36,0,0,1-1.42.18l-.53,0-.5,0a4.55,4.55,0,0,1-1.2-1.33A3.26,3.26,0,0,1,126.57,150.61Z"/><path class="cls-2" d="M138.39,190.14a1.13,1.13,0,0,1,.36-.85h.08l.27,0h.83a.77.77,0,0,0,.34-.06l.24-.1a.83.83,0,0,1,.26-.11h.53a5,5,0,0,0,.85-.07c.29,0,.45-.19.47-.42l.15-2.2V173.11a3.21,3.21,0,0,1-.14-.79c0-.25,0-.49,0-.73v-1.93c0-.84.12-1.73.23-2.67a14.8,14.8,0,0,0,.12-2.61c0-.11,0-.37-.06-.76s-.08-.81-.12-1.27-.07-.89-.11-1.28-.06-.63-.06-.73v-1.26c0-.57,0-1.12.07-1.65s.08-1.1.08-1.69v-1.05a2.54,2.54,0,0,0-.05-.37c0-.17-.06-.35-.1-.54s-.08-.38-.12-.54a1.8,1.8,0,0,1-.06-.37,2,2,0,0,0-1-.75c-.43-.14-.86-.27-1.28-.38a7,7,0,0,1-1.09-.36.72.72,0,0,1-.45-.71v-.35a1.25,1.25,0,0,1,.67-.44,11.06,11.06,0,0,1,1.25-.36c.46-.11.9-.2,1.32-.28s.73-.15.93-.21a7.45,7.45,0,0,0,1.57-.53,9.48,9.48,0,0,1,1.54-.55h.79l.15-.09a.47.47,0,0,0,.2-.12h.29a.82.82,0,0,1,.72.44,1.23,1.23,0,0,1,.22.85v10.05c0,.1,0,.34,0,.73s0,.82,0,1.28,0,.89,0,1.29,0,.65,0,.74q-.06,3.93-.06,7.84t-.15,7.84a2.23,2.23,0,0,1,0,.26c0,.14,0,.28,0,.43s0,.27-.05.39,0,.19,0,.21v2.58a.75.75,0,0,1,0,.16c0,.08,0,.18-.08.27s-.05.19-.07.28a1.16,1.16,0,0,0,0,.16.27.27,0,0,0,0,.12V184a.12.12,0,0,0,0,.09c.1.84.17,1.66.22,2.46s.09,1.62.13,2.46h2a2.31,2.31,0,0,0,.48.16l.76.24a3.17,3.17,0,0,1,.69.31c.2.11.3.23.3.35v.09a.56.56,0,0,1-.19.1.73.73,0,0,1-.22,0l-.59.09-.88.12-.88.11a4.83,4.83,0,0,1-.56.06h-.23a.57.57,0,0,1-.28-.08.49.49,0,0,0-.28-.09,34.62,34.62,0,0,0-4.18.26,32.85,32.85,0,0,1-4.19.26h-.93a.67.67,0,0,1-.28-.38A1.57,1.57,0,0,1,138.39,190.14Z"/><path class="cls-2" d="M153.8,190.14a1.15,1.15,0,0,1,.35-.85h.09l.26,0h.84a.77.77,0,0,0,.34-.06l.23-.1a1,1,0,0,1,.27-.11h.53a5.12,5.12,0,0,0,.85-.07c.29,0,.45-.19.47-.42l.14-2.2V173.11a3.18,3.18,0,0,1-.13-.79c0-.25,0-.49,0-.73v-1.93c0-.84.11-1.73.23-2.67a14.8,14.8,0,0,0,.12-2.61c0-.11,0-.37-.06-.76s-.08-.81-.12-1.27-.08-.89-.12-1.28-.05-.63-.05-.73v-1.26c0-.57,0-1.12.07-1.65s.07-1.1.07-1.69v-1.05a2.21,2.21,0,0,0,0-.37c0-.17-.06-.35-.1-.54s-.08-.38-.12-.54a1.8,1.8,0,0,1-.06-.37,2.07,2.07,0,0,0-1-.75c-.43-.14-.85-.27-1.27-.38a6.62,6.62,0,0,1-1.09-.36.72.72,0,0,1-.45-.71v-.35a1.21,1.21,0,0,1,.67-.44,10.49,10.49,0,0,1,1.25-.36c.46-.11.9-.2,1.32-.28a9.07,9.07,0,0,0,.92-.21,7.26,7.26,0,0,0,1.57-.53,10.2,10.2,0,0,1,1.54-.55h.8l.14-.09a.45.45,0,0,0,.21-.12h.29a.83.83,0,0,1,.72.44,1.23,1.23,0,0,1,.22.85v10.05c0,.1,0,.34,0,.73s0,.82,0,1.28,0,.89-.05,1.29,0,.65,0,.74c0,2.62,0,5.23,0,7.84s-.05,5.22-.15,7.84a2.23,2.23,0,0,1,0,.26c0,.14,0,.28,0,.43s0,.27-.05.39,0,.19,0,.21v2.58a1.54,1.54,0,0,1,0,.16c0,.08,0,.18-.07.27s-.05.19-.07.28a1.16,1.16,0,0,0,0,.16.27.27,0,0,0,0,.12V184a.12.12,0,0,0,0,.09c.09.84.17,1.66.22,2.46s.09,1.62.13,2.46h2a2.47,2.47,0,0,0,.49.16l.76.24a3.17,3.17,0,0,1,.69.31c.2.11.29.23.29.35v.09a.41.41,0,0,1-.19.1.64.64,0,0,1-.22,0l-.58.09-.88.12-.88.11a4.83,4.83,0,0,1-.56.06H164a.6.6,0,0,1-.28-.08.46.46,0,0,0-.27-.09,34.78,34.78,0,0,0-4.19.26,32.58,32.58,0,0,1-4.18.26h-.94a.72.72,0,0,1-.28-.38A1.93,1.93,0,0,1,153.8,190.14Z"/><path class="cls-2" d="M182.09,190.05a1,1,0,0,1,.24-.69,1.59,1.59,0,0,1,.57-.45,2.46,2.46,0,0,1,.72-.25c.25,0,.49-.09.7-.11H186a.86.86,0,0,0,.47-.45,2.13,2.13,0,0,0,.2-.69c0-.25,0-.51,0-.78a6.66,6.66,0,0,1,0-.68.33.33,0,0,0,.06-.12l.06-.12a.42.42,0,0,1,.08-.12.49.49,0,0,0,.11-.26,1.46,1.46,0,0,0,0-.26v-7.68a1.47,1.47,0,0,1,.1-.38,1.83,1.83,0,0,0,.11-.35v-.12a3.85,3.85,0,0,0-.11-.88,4,4,0,0,1-.1-.93,5.42,5.42,0,0,1,.1-1.1,5.32,5.32,0,0,0,.11-1.07v-.3q0-.16,0-.48c0-.2,0-.42-.08-.64s-.05-.42-.07-.59,0-.27,0-.31a1,1,0,0,0-.79-.82,13,13,0,0,0-1.51-.32c-.54-.08-1-.17-1.47-.28s-.66-.33-.66-.69.2-.48.62-.68a8.69,8.69,0,0,1,1.4-.55c.53-.15,1.05-.29,1.56-.41a7.29,7.29,0,0,0,1.06-.29l.26-.15.44-.23.46-.22.3-.13.22-.06.41-.13.41-.13.25-.06.42-.15.29-.12.17-.08h.21a2.87,2.87,0,0,1,.84.45,1.26,1.26,0,0,1,.25.92,3.67,3.67,0,0,1-.08.75,3.37,3.37,0,0,0-.07.69v.53a2.84,2.84,0,0,0,.07.68,1,1,0,0,0,.4.55h.15a1.12,1.12,0,0,0,.71-.3,4.64,4.64,0,0,0,.72-.69,9.52,9.52,0,0,0,.66-.79,8.22,8.22,0,0,1,.55-.63,11.21,11.21,0,0,1,1.52-1c.53-.3,1.07-.63,1.62-1a.52.52,0,0,0,.29.06,3.24,3.24,0,0,0,.76-.1,3.39,3.39,0,0,1,.77-.1,3.63,3.63,0,0,1,1,.13,2.65,2.65,0,0,1,.9.41,2.26,2.26,0,0,1,.65.69,1.79,1.79,0,0,1,.24.93v.38c0,.41-.1.81-.13,1.19a3.34,3.34,0,0,1-.22,1,1.42,1.42,0,0,1-.58.7,2.31,2.31,0,0,1-1.24.27h-.23l-.26-.07-.36-.08-.31,0-.16,0-.13-.11-.22-.19c-.08-.07-.15-.14-.22-.19s-.11-.09-.13-.09h-1.53l-.2,0-.4,0-.41,0-.22,0h-.18a6,6,0,0,0-1,.09,4.65,4.65,0,0,0-1.07.31,3.63,3.63,0,0,0-.94.55,1.58,1.58,0,0,0-.53.87q.06,3.1-.06,6.18c-.08,2.05-.11,4.11-.11,6.18q0,.27,0,.69c0,.28,0,.59,0,.92s0,.68,0,1a6.92,6.92,0,0,0,.16,1,2.58,2.58,0,0,0,.34.79,1.08,1.08,0,0,0,.6.45l.43,0,.69,0,.67,0,.41,0a1.72,1.72,0,0,1,.83.31.85.85,0,0,1,.32.69,1.66,1.66,0,0,1-.09.62.49.49,0,0,1-.26.27,1.31,1.31,0,0,1-.43.09l-.54.05a.65.65,0,0,0-.21.11l-.15.09h-.11q-1.19,0-2.58-.09a22.09,22.09,0,0,1-2.68-.32h0a1.47,1.47,0,0,0-.56.1,1.44,1.44,0,0,1-.53.11,1.06,1.06,0,0,1-.48-.11,1.06,1.06,0,0,0-.46-.1h-.09a9.58,9.58,0,0,1-1.68.32,16.66,16.66,0,0,1-1.72.09h-.41a4.47,4.47,0,0,1-1-.12A.59.59,0,0,1,182.09,190.05Z"/><path class="cls-2" d="M205.42,178a1.26,1.26,0,0,1-.2-.46,2,2,0,0,1-.06-.48,2.81,2.81,0,0,1,0-.43,2,2,0,0,0,0-.33v-.91a1.55,1.55,0,0,1,.06-.28,3.59,3.59,0,0,1,.14-.48l.18-.52q.09-.24.15-.36a.7.7,0,0,1,.17-.28,1.21,1.21,0,0,0,.18-.25,7.14,7.14,0,0,0,.26-1.35,2.42,2.42,0,0,1,.47-1.23l.22-.25.35-.41.36-.39a.93.93,0,0,1,.22-.21c0-.06.09-.19.17-.39a1.34,1.34,0,0,1,.18-.37,1.47,1.47,0,0,1,.6-.51,3.59,3.59,0,0,0,.66-.43,7.39,7.39,0,0,0,.75-.66c.24-.24.49-.48.73-.73a9.35,9.35,0,0,1,.76-.67,3.41,3.41,0,0,1,.87-.49,12.12,12.12,0,0,1,1.41-.38,7.83,7.83,0,0,1,1.41-.14l1.94,0a16.73,16.73,0,0,1,1.81.14,6.63,6.63,0,0,1,1.41.44,15.62,15.62,0,0,1,1.69.84,13.7,13.7,0,0,1,1.54,1,4.94,4.94,0,0,1,1,1l.67,1a11.49,11.49,0,0,1,.72,1.24,10.19,10.19,0,0,1,.57,1.29,3.3,3.3,0,0,1,.24,1.16,1.42,1.42,0,0,1-.73,1.29l-.75,0-1.16.07-1.18.08-.76,0h-2.2a24.21,24.21,0,0,1-2.73-.14q-1.32-.15-2.7-.21h-1.5a1.66,1.66,0,0,1-.35-.1,1.38,1.38,0,0,0-.38-.1l-.4-.08-.6-.1-.61-.1-.41-.07a1.27,1.27,0,0,0-.49.27,3.09,3.09,0,0,0-.4.43c0,.06,0,.17,0,.34s0,.35-.06.55,0,.4-.06.59,0,.32,0,.39v.15a.76.76,0,0,0,.09.18c0,.13.08.2.11.2s.06.13.18.28.18.24.18.28a.38.38,0,0,0-.09.15l-.06.17v.47a2.29,2.29,0,0,0,.1.69c.07.18.15.42.25.72a14,14,0,0,0,2,4.33,1,1,0,0,0,.48.47,6.43,6.43,0,0,1,.6.26,1.71,1.71,0,0,0,.28.18,1.34,1.34,0,0,1,.28.18,9,9,0,0,0,2.47,1.49,7.63,7.63,0,0,0,2.84.53,1.08,1.08,0,0,0,.44-.08,2.11,2.11,0,0,0,.34-.16l.31-.17a1.42,1.42,0,0,1,.35-.15h.88a4,4,0,0,0,.91-.22l.87-.32a8.69,8.69,0,0,1,.86-.29,3.14,3.14,0,0,1,.91-.14,2.55,2.55,0,0,1,0,.31.6.6,0,0,1-.06.19,1.45,1.45,0,0,1-.12.19l-.19.28a7.38,7.38,0,0,1-.83,1.13,7.29,7.29,0,0,1-.84.75,8.21,8.21,0,0,1-1,.6l-1.25.63a1.26,1.26,0,0,0-.32.22l-.25.19-.3.17a2.5,2.5,0,0,1-.42.18,1.42,1.42,0,0,1-.33,0,2,2,0,0,0-.41,0,1.43,1.43,0,0,0-.39.15.61.61,0,0,0-.28.31h-1.94a14.85,14.85,0,0,1-3.51-.39,8,8,0,0,1-3.15-1.64,8.22,8.22,0,0,1-2.16-2.52,16,16,0,0,1-1.33-3.13.38.38,0,0,1-.09-.15.84.84,0,0,1-.06-.26,2.35,2.35,0,0,1-.18-.41c-.05-.18-.11-.35-.16-.53l-.13-.45a1.53,1.53,0,0,1-.06-.22,2.21,2.21,0,0,1-.09-.57c0-.29,0-.57,0-.87s0-.57,0-.85A2,2,0,0,1,205.42,178Zm5.46-6.27a.24.24,0,0,0,.07.13.21.21,0,0,0,.14.07l.26.06.38.06.38.06.24,0H220a2,2,0,0,0,1-.28.94.94,0,0,0,.49-.87,5,5,0,0,0-.25-1.53,6.15,6.15,0,0,0-.69-1.41,5.57,5.57,0,0,0-1-1.17,5,5,0,0,0-1.3-.81,1.67,1.67,0,0,1-.5-.33.72.72,0,0,0-.56-.2,5.12,5.12,0,0,0-2.07.5,9.11,9.11,0,0,0-2,1.29,8.18,8.18,0,0,0-1.57,1.77,3.62,3.62,0,0,0-.63,2,3.51,3.51,0,0,0,0,.37C210.87,171.62,210.88,171.73,210.88,171.77Z"/><path class="cls-2" d="M230.46,184.72a4.44,4.44,0,0,1,.45-1.94,7.12,7.12,0,0,1,1.19-1.73,10.71,10.71,0,0,1,1.61-1.4,11.59,11.59,0,0,1,1.73-1l.19-.06.34-.1.34-.1a.81.81,0,0,1,.22-.06l.19-.13.34-.24.34-.25.22-.14a9.34,9.34,0,0,1,2.15-.95c.8-.25,1.55-.47,2.28-.66a10,10,0,0,0,.94-.41,1.2,1.2,0,0,0,.5-.91s0-.09,0-.22,0-.28,0-.46,0-.35.06-.54a4.06,4.06,0,0,0,0-.42v-.24q0-.25,0-.69l-.06-.82c0-.26,0-.49,0-.68s0-.31,0-.33a3.82,3.82,0,0,0-.49-1.3,4.26,4.26,0,0,0-.92-1.11,4.72,4.72,0,0,0-1.24-.78,3.41,3.41,0,0,0-1.4-.29,5.64,5.64,0,0,0-1.25.13,3,3,0,0,0-1.06.44,2.61,2.61,0,0,0-.76.79,2.79,2.79,0,0,0-.4,1.19c0,.35-.06.71-.07,1.08a1.24,1.24,0,0,1-.46.94,3.37,3.37,0,0,1-.26.25c-.12.1-.24.21-.37.3l-.33.25-.18.13-.63.46a2.09,2.09,0,0,1-.46.28H231s-.1-.08-.19-.22a3.36,3.36,0,0,0-.25-.37c-.12-.25-.2-.42-.25-.51a1.19,1.19,0,0,1-.07-.51v-.21A5.54,5.54,0,0,1,231.7,169a11.35,11.35,0,0,1,2.07-1.54s0,0,.09-.1.08-.11.12-.11a13.16,13.16,0,0,1,3.25-2.08,9.34,9.34,0,0,1,3.82-.82,9.11,9.11,0,0,1,1.12.06c.31,0,.61.09.89.15s.57.13.87.22l1,.31a15.76,15.76,0,0,1,1.44,1.14,6.08,6.08,0,0,1,1,1.2,5.52,5.52,0,0,1,.63,1.44,6.47,6.47,0,0,1,.22,1.78v.12c-.18,2.34-.37,4.7-.59,7.08s-.32,4.72-.32,7a3.79,3.79,0,0,0,.35,1.66,2.14,2.14,0,0,0,1.23,1h.36a4.48,4.48,0,0,0,1.13-.14,5.07,5.07,0,0,0,1-.35c.33-.14.65-.3,1-.47l1-.48v.35a1.5,1.5,0,0,1-.36,1.06c-.25.25-.51.52-.78.82l-.15.14a3.45,3.45,0,0,0-.23.28c-.08.11-.15.21-.22.29l-.13.17a1.12,1.12,0,0,1-.4.33,5,5,0,0,1-.54.22,12,12,0,0,1-1.63.54,6.7,6.7,0,0,1-1.78.25h-.29a.93.93,0,0,1-.29,0l-.47-.12-.68-.21a6.72,6.72,0,0,1-.64-.23l-.42-.18-.38-.33-.38-.37a3.2,3.2,0,0,1-.31-.57c-.12-.28-.26-.58-.41-.9s-.28-.58-.41-.82-.22-.35-.28-.35a.69.69,0,0,0-.41.25c-.15.17-.31.36-.47.57s-.3.43-.44.65a2.07,2.07,0,0,1-.35.44l-1,.86a5.73,5.73,0,0,1-1,.69,4,4,0,0,1-1.07.45,4.78,4.78,0,0,1-1.33.17l-.72,0a3.17,3.17,0,0,1-.57-.07,2.76,2.76,0,0,1-.53-.18,4.44,4.44,0,0,1-.59-.32,13.62,13.62,0,0,1-1.8-1.14,2.8,2.8,0,0,1-1.1-1.73,12.68,12.68,0,0,1-.31-1.26A6.12,6.12,0,0,1,230.46,184.72Zm4.19-1.29a3.82,3.82,0,0,0,.16,1,3.35,3.35,0,0,0,.46,1,2.19,2.19,0,0,0,.73.69,2,2,0,0,0,1,.27c.57,0,1.14,0,1.72-.06a5.24,5.24,0,0,0,1.63-.38,4.14,4.14,0,0,0,1.23-.55c.37-.24.75-.47,1.14-.68a15.37,15.37,0,0,0,.21-1.91c0-.54,0-1.16,0-1.84s0-1.2,0-1.72a10.7,10.7,0,0,0-.21-1.68h-.35a3.19,3.19,0,0,0-.94.13,7.64,7.64,0,0,0-.87.32l-.82.4c-.26.13-.54.26-.83.38a6.26,6.26,0,0,1-.66.28,2.49,2.49,0,0,0-.66.33c-.3.22-.62.47-1,.76a8.7,8.7,0,0,0-.95,1,7.13,7.13,0,0,0-.75,1.1A2.43,2.43,0,0,0,234.65,183.43Z"/><path class="cls-2" d="M254.87,179.94v-.06c.06-.12.13-.29.22-.51a1.57,1.57,0,0,0,.13-.57.66.66,0,0,0-.07-.3.81.81,0,0,1-.07-.38,2.86,2.86,0,0,1,.17-.92,4.25,4.25,0,0,0,.24-1,14.14,14.14,0,0,1,.31-2.43,7.29,7.29,0,0,1,.95-2.29.24.24,0,0,1,.07-.13c.05-.05.08-.08.08-.1l.29-.32.35-.41.33-.37L258,170a.9.9,0,0,0,.13-.19c.07-.11.15-.22.22-.35s.15-.25.22-.35a.55.55,0,0,1,.17-.19,2.46,2.46,0,0,1,.89-.55,2.78,2.78,0,0,0,.93-.54s.11-.11.22-.22.22-.22.33-.35.23-.24.34-.34l.19-.17a.74.74,0,0,1,.21-.09l.36-.13.36-.13.22-.09c.09,0,.14,0,.14-.15l3.14-.61a16.1,16.1,0,0,1,3.23-.33,5,5,0,0,1,1.16.14,5.65,5.65,0,0,0,1.16.13.65.65,0,0,0,.53-.27,2.2,2.2,0,0,0,.32-.61,3.43,3.43,0,0,0,.16-.75l.08-.66c0-.88.07-1.79.1-2.75s0-1.9,0-2.84v-.94c0-.08,0-.24,0-.5s0-.52,0-.8,0-.56-.05-.81,0-.42,0-.5v-1c0-.28,0-.55,0-.81a2.12,2.12,0,0,0-.18-.72,1.18,1.18,0,0,0-.68-.58,7.06,7.06,0,0,0-1-.35c-.36-.1-.68-.2-1-.31s-.42-.25-.42-.43a.51.51,0,0,1,.1-.25,2.25,2.25,0,0,1,.24-.3A2.29,2.29,0,0,1,270,149a.5.5,0,0,1,.27-.11.92.92,0,0,1,.28.1.84.84,0,0,0,.28.1.48.48,0,0,0,.23-.09,1,1,0,0,0,.15-.11l.39-.14c.21-.06.43-.14.66-.23s.47-.17.69-.23l.49-.14c.62-.21,1.24-.45,1.83-.7a5,5,0,0,1,1.93-.38h.32a1.7,1.7,0,0,1,.57.09.56.56,0,0,1,.34.44v1.58c0,1-.05,2.1-.13,3.15s-.14,2.11-.14,3.21a3,3,0,0,0,0,.49,2.37,2.37,0,0,0,.24.59c0,.12,0,.32-.06.62s0,.6-.07.93-.06.65-.08.94,0,.5-.06.62q-.06,3.33-.07,6.66t-.07,6.67,0,.54c0,.28,0,.59-.08.94s-.05.65-.07.93,0,.47,0,.54v.82c0,1.57,0,3.11.13,4.63s.12,3.07.08,4.63a1.28,1.28,0,0,0,.45.82,2.67,2.67,0,0,0,.87.46,4.37,4.37,0,0,0,1,.19l.91,0a.43.43,0,0,1,.27.25.91.91,0,0,1,.12.27.53.53,0,0,1-.11.3,1.23,1.23,0,0,1-.25.26,3.15,3.15,0,0,1-.29.22l-.23.16a.66.66,0,0,1-.3.1l-.29,0c-.65.17-1.28.35-1.91.54s-1.27.37-1.94.54c-.39.12-.76.25-1.13.38a3.22,3.22,0,0,1-1.18.21.77.77,0,0,1-.78-.41,3.25,3.25,0,0,1-.27-.9c0-.32-.09-.62-.13-.89s-.16-.41-.35-.41a1.49,1.49,0,0,0-.34.1l-.39.14a13,13,0,0,1-2.62,1.69,6.63,6.63,0,0,1-3,.68,12.64,12.64,0,0,1-4-.62,7.29,7.29,0,0,1-3.29-2.34,1.16,1.16,0,0,1-.06-.15.8.8,0,0,1-.08-.17.84.84,0,0,0-.06-.18l-.12-.29-.12-.28a.61.61,0,0,0-.09-.16s0,0-.1-.06l-.23-.06-.24,0-.13,0a2.77,2.77,0,0,1-1-1.11,15.11,15.11,0,0,1-.91-1.89,17.23,17.23,0,0,1-.66-2A7.18,7.18,0,0,1,254.87,179.94Zm10.71,7.24.56.08.88.12.91.12.62.09h.2a8.35,8.35,0,0,0,1.49-.13,8.63,8.63,0,0,0,1.42-.43.88.88,0,0,0,.23-.1,1,1,0,0,1,.24-.1l.28-.44c.1-.18.21-.37.31-.59a5.21,5.21,0,0,0,.24-.66,2.09,2.09,0,0,0,.11-.63v0c0-.08,0-.19,0-.35s0-.32,0-.5l-.06-.5a2,2,0,0,0-.06-.32V174c0-.11,0-.33,0-.66s0-.66-.05-1,0-.72-.06-1,0-.57,0-.7a1.2,1.2,0,0,0-.11-.41,1.34,1.34,0,0,1-.1-.33,1.49,1.49,0,0,0-.53-.58,3.52,3.52,0,0,0-.67-.34l-.71-.25a2,2,0,0,1-.64-.35c-.69-.45-1.32-.82-1.91-1.13a4.67,4.67,0,0,0-2.14-.45,1.59,1.59,0,0,0-.81.22,4.23,4.23,0,0,0-.76.54c-.25.22-.49.44-.72.67a5.7,5.7,0,0,1-.68.59l-.09.06a.14.14,0,0,0-.05.09A12.91,12.91,0,0,0,261.5,171c-.37.77-.72,1.52-1.05,2.26a2.61,2.61,0,0,0-.12.28l-.12.31a3.65,3.65,0,0,0-.14.35v4a4.84,4.84,0,0,1,.19,1.19,5.05,5.05,0,0,0,.19,1.24,8,8,0,0,0,1.32,3,15.16,15.16,0,0,0,2.29,2.44c.25.22.49.43.7.65A1.76,1.76,0,0,0,265.58,187.18Z"/><path class="cls-2" d="M283.37,189.87c0-.31.2-.51.61-.6a8.13,8.13,0,0,1,1.4-.17c.52,0,1-.07,1.45-.12s.72-.19.82-.43a5.07,5.07,0,0,0,.33-1.23,9.55,9.55,0,0,0,.08-1.32c0-.35,0-.7,0-1.05s0-.69,0-1v-.49c0-.88.1-1.76.2-2.63s.16-1.76.18-2.68V171a2.12,2.12,0,0,0,.17-.57,4.67,4.67,0,0,0,0-.57.78.78,0,0,0-.23-.61,1.38,1.38,0,0,0-.56-.3,3,3,0,0,0-.68-.1,2.39,2.39,0,0,1-.55-.07,2.81,2.81,0,0,1-.56-.06,1.82,1.82,0,0,1-.54-.19,1.15,1.15,0,0,1-.41-.34.76.76,0,0,1-.17-.5.64.64,0,0,1,.15-.45.75.75,0,0,1,.37-.23,2.16,2.16,0,0,1,.47-.11,3.7,3.7,0,0,0,.48-.09.85.85,0,0,0,.21-.05l.35-.14.34-.13.19-.06.38,0,.64-.05.65-.06a1.39,1.39,0,0,0,.35-.06,9.41,9.41,0,0,0,1-.32l1-.41a9.35,9.35,0,0,1,1-.36,4.07,4.07,0,0,1,1-.14h.24c.17,0,.28.05.32.14v.74a22.81,22.81,0,0,1-.23,3.22,21.41,21.41,0,0,0-.24,3.22,5.08,5.08,0,0,0,.13,1.16,4.18,4.18,0,0,1,.14,1.07c0,.17,0,.32,0,.42a1.42,1.42,0,0,1-.13.43c0,1.52,0,3-.12,4.57s-.15,3.05-.15,4.57v1c0,.51,0,1,0,1.48a6.52,6.52,0,0,0,.24,1.48,1.06,1.06,0,0,0,.38.38,1.39,1.39,0,0,0,.44.17l.5.05a2.16,2.16,0,0,1,.59.14.77.77,0,0,1,.26.07l.38.16.4.18.31.14.17.15v.15a.27.27,0,0,1-.13.23,1.08,1.08,0,0,1-.29.13l-.33.06-.19,0c-1.89,0-3.78,0-5.66.07s-3.77.13-5.67.13h-.49a1.53,1.53,0,0,1-.49-.11,1,1,0,0,1-.38-.26A.75.75,0,0,1,283.37,189.87Zm4.28-39.26a2.83,2.83,0,0,1,.21-1.07,2.92,2.92,0,0,1,.56-.89,2.67,2.67,0,0,1,.83-.61,2.4,2.4,0,0,1,1.07-.24,4.21,4.21,0,0,1,1.18.19,4.59,4.59,0,0,1,1.14.54,3.31,3.31,0,0,1,.88.87,2,2,0,0,1,.36,1.16,3.62,3.62,0,0,1-.27,1.48,2.46,2.46,0,0,1-.73,1,3,3,0,0,1-1.13.54,5.44,5.44,0,0,1-1.43.18l-.52,0-.5,0a4.74,4.74,0,0,1-1.21-1.33A3.36,3.36,0,0,1,287.65,150.61Z"/><path class="cls-2" d="M300,189.84a.42.42,0,0,1,.22-.52A2.71,2.71,0,0,1,301,189a6.46,6.46,0,0,1,.84-.15,1.57,1.57,0,0,0,.56-.13,1.35,1.35,0,0,0,.39-.4,3.5,3.5,0,0,0,.35-.6,2.64,2.64,0,0,0,.25-.66l.15-.57s0-.18,0-.44,0-.54.06-.88l.06-1c0-.33,0-.6.06-.79v-.24a6.46,6.46,0,0,0-.11-1.14,8.06,8.06,0,0,1-.1-1.23,9.8,9.8,0,0,1,.1-1.33,8.74,8.74,0,0,0,.11-1.37v-.73a3.9,3.9,0,0,1-.06-.51q0-.39-.06-.87c0-.31,0-.6-.06-.86s0-.43,0-.51v-3a3.51,3.51,0,0,0,0-.37q0-.24-.06-.54c0-.19,0-.38-.06-.54s0-.29-.05-.37a.82.82,0,0,0-.49-.73A2.63,2.63,0,0,0,302,169c-.32,0-.63,0-.94-.06a.79.79,0,0,1-.68-.48,2.52,2.52,0,0,1,.49-.56,2.45,2.45,0,0,1,.52-.34l.59-.25a4.12,4.12,0,0,0,.69-.32,1.27,1.27,0,0,1,.19-.14l.34-.25.34-.24a1.65,1.65,0,0,1,.22-.13L304,166l.57-.28c.21-.1.4-.19.57-.29l.36-.21.17-.17q.15-.15.21-.15a.38.38,0,0,1,.14-.06l.28,0,.3-.05.16,0c.06,0,.15-.09.29-.27s.23-.26.27-.26h.14a1.11,1.11,0,0,1,.56.14,1.18,1.18,0,0,1,.38.39c.08.58.14,1.2.19,1.84s.11,1.26.19,1.85h.59a1.27,1.27,0,0,0,.28,0,.6.6,0,0,0,.28-.18c.47-.51,1-1,1.54-1.51a13,13,0,0,1,1.79-1.34,9.32,9.32,0,0,1,2-1,6.52,6.52,0,0,1,2.2-.37,9,9,0,0,1,1.1.06,7.8,7.8,0,0,1,.91.16,5.52,5.52,0,0,1,.84.28l.94.41.3.07c.17.05.25.09.25.11l.11,0,.13,0,.14.06a11.15,11.15,0,0,1,1.22,1.44,4.78,4.78,0,0,1,.59,1.14,7.88,7.88,0,0,1,.31,1.23,17.6,17.6,0,0,0,.41,1.73,10,10,0,0,1,.12,1c0,.48.07,1,.11,1.54s.08,1.06.12,1.54.07.81.09,1V181q0,.21,0,.75c0,.36,0,.75-.07,1.16s-.06.8-.08,1.17,0,.63,0,.76a1.29,1.29,0,0,1-.13.19.38.38,0,0,0-.1.22.94.94,0,0,0,0,.16c0,.09,0,.19.07.3a2.83,2.83,0,0,0,.09.27.54.54,0,0,1,0,.15v1.67a1.15,1.15,0,0,0,.15.19l.26.28.28.28a1.52,1.52,0,0,0,.22.19l.38.07a3.16,3.16,0,0,0,.5.08c.08,0,.21.05.4.1a3.13,3.13,0,0,1,.54.19,1.88,1.88,0,0,1,.46.28.33.33,0,0,1,.13.36,1.44,1.44,0,0,1-.29.33.92.92,0,0,1-.3.2h-3l-.25-.09-.25-.09H324a18.92,18.92,0,0,0-2.59.19,17.81,17.81,0,0,1-2.63.2h-.29l-.65,0a5.49,5.49,0,0,1-.72-.07,2.12,2.12,0,0,1-.57-.18.34.34,0,0,1-.23-.32.64.64,0,0,1,.49-.66,9.24,9.24,0,0,1,1.15-.28,6.83,6.83,0,0,0,1.25-.35,1.22,1.22,0,0,0,.77-.88v-.73q0-1.08.09-2.13c.06-.69.09-1.4.09-2.12v-.29c0-.12,0-.24,0-.37a1,1,0,0,0-.17-.42v-7.33s0-.13,0-.29,0-.33,0-.51,0-.36,0-.53,0-.28,0-.34c-.06-.54-.14-1-.22-1.39a3,3,0,0,0-.43-1,3.6,3.6,0,0,0-.76-.81,9.55,9.55,0,0,0-1.21-.77,4.72,4.72,0,0,0-.88-.4,3,3,0,0,0-.91-.16,21,21,0,0,0-2.55.16,7.81,7.81,0,0,0-2.46.78s-.13.07-.25.22l-.25.28a9.41,9.41,0,0,0-.94.88,2.88,2.88,0,0,0-.59,1.14c0,.29,0,.81,0,1.55s0,1.52,0,2.35,0,1.57,0,2.31,0,1.25,0,1.52q0,.12,0,.66c0,.36,0,.75,0,1.16s0,.8-.05,1.16,0,.58,0,.66v.87a.49.49,0,0,1-.11.24.49.49,0,0,0-.1.2v.15a.81.81,0,0,0,.06.22l.12.34a3.19,3.19,0,0,0,.11.33,1.38,1.38,0,0,1,.06.19,2.47,2.47,0,0,0,.05.34c0,.17,0,.34.07.53s0,.36.06.51,0,.26,0,.29,0,.22,0,.36a3.53,3.53,0,0,0,.06.42,1.69,1.69,0,0,0,.15.43.63.63,0,0,0,.31.29h.45l.69,0,.66,0a2.39,2.39,0,0,1,.43,0,1.79,1.79,0,0,1,.63.26.61.61,0,0,1,.33.53,1,1,0,0,1-.35.73,1,1,0,0,1-.67.35h-.15l-.29,0-.53-.07-.54-.08-.31,0h-6.9l-.32,0-.5,0-.51-.06a1.16,1.16,0,0,1-.37-.09,3.5,3.5,0,0,1-.52-.15A.52.52,0,0,1,300,189.84Z"/><path class="cls-2" d="M330.65,201.06a5.86,5.86,0,0,1,.06-.74,9.28,9.28,0,0,1,.17-1c.08-.33.16-.65.24-1a3.68,3.68,0,0,1,.26-.74,1.71,1.71,0,0,1,.13-.34c.07-.15.14-.29.22-.44l.22-.43a1.27,1.27,0,0,1,.17-.26,3.48,3.48,0,0,1,1-.83c.39-.23.78-.45,1.18-.66l.69-.21c.34-.1.69-.21,1-.35a7.19,7.19,0,0,0,1-.45c.27-.17.41-.34.41-.52v-.06a2.63,2.63,0,0,0-.71-.68,3.15,3.15,0,0,0-.69-.34l-.67-.24a2.11,2.11,0,0,1-.66-.35s-.16-.14-.37-.3l-.69-.58-.76-.64-.59-.5a.47.47,0,0,1-.09-.12.16.16,0,0,1-.05-.08q-.15-.42-.24-.75a5.49,5.49,0,0,1-.13-.66,4.6,4.6,0,0,1-.05-.64v-.74a5.09,5.09,0,0,1,.61-2.4,5.53,5.53,0,0,1,1.62-1.93l.25-.15.5-.26.59-.3.48-.23a1.13,1.13,0,0,1,.56-.12,5,5,0,0,0,.68,0,1.49,1.49,0,0,0,.55-.18.53.53,0,0,0,.24-.51.76.76,0,0,0-.21-.51,2.23,2.23,0,0,0-.5-.46l-.6-.39a4.86,4.86,0,0,1-.51-.37,5.63,5.63,0,0,1-1.76-2.17,6.15,6.15,0,0,1-.65-2.69,13.56,13.56,0,0,1,1.26-5.71,1.78,1.78,0,0,1,.44-.4l.5-.34a10,10,0,0,0,1.08-.91,6.94,6.94,0,0,1,1.15-.9,3,3,0,0,1,.84-.41,11.14,11.14,0,0,1,1.07-.31l1.1-.25c.36-.08.69-.17,1-.26a15.05,15.05,0,0,0,1.62.29q.6.06.93.06a1.79,1.79,0,0,0,.39,0l.2,0,.27.13a.67.67,0,0,0,.28.07h.06a2.73,2.73,0,0,1,.46.06l.63.12.6.1.37.05a2.89,2.89,0,0,1,1.23.57,11.22,11.22,0,0,1,1,.88,9.76,9.76,0,0,0,1,.8,1.65,1.65,0,0,0,1,.35,1.73,1.73,0,0,0,.81-.17,3.7,3.7,0,0,0,.63-.43,5.65,5.65,0,0,0,.56-.54,5.49,5.49,0,0,1,.55-.53,4.76,4.76,0,0,1,1.4-.54,6.49,6.49,0,0,1,1.45-.19,2.34,2.34,0,0,1,1.84.73,2.79,2.79,0,0,1,.63,1.88,1.31,1.31,0,0,1-.18.66,2,2,0,0,1-.44.53,2.49,2.49,0,0,1-.59.35,1.76,1.76,0,0,1-.61.13h-.16a.64.64,0,0,1-.2,0l-.23-.06a.5.5,0,0,1-.16-.07l-.28-.18-.28-.19-.16-.12h-.28l-.47,0-.47-.06a1.1,1.1,0,0,1-.28-.06,2.8,2.8,0,0,1-.83-.32,1.79,1.79,0,0,0-.93-.24,1.32,1.32,0,0,0-.32.05c-.12,0-.16.15-.12.36v1.09a8.15,8.15,0,0,0,.19,1.71,7.53,7.53,0,0,1,.19,1.71v.41s0,.14-.09.36a3.2,3.2,0,0,0-.08.38c0,.07-.06.26-.11.57s-.1.63-.17,1-.13.68-.18,1-.08.49-.1.57a2.51,2.51,0,0,1-.34.82,3.87,3.87,0,0,1-.57.76,7,7,0,0,1-.68.66c-.23.21-.44.38-.61.52a.36.36,0,0,1-.15.08.28.28,0,0,1-.12.08l-.08,0-1.18.48c-.37.17-.75.33-1.13.47a8.69,8.69,0,0,1-1.19.37,5.69,5.69,0,0,1-1.35.15h-.23l-.28-.09-.4-.12-.36-.12a.79.79,0,0,0-.25-.06h-5c-.2.16-.35.3-.47.41l-.35.36a2.2,2.2,0,0,0-.27.29,6.45,6.45,0,0,0-.76,1.08,2.28,2.28,0,0,0-.13,2.19,3.74,3.74,0,0,0,1.44,1.64,1.83,1.83,0,0,0,.95.27.56.56,0,0,0,.15-.08.7.7,0,0,1,.2-.12h.09a1.22,1.22,0,0,1,.5.12l.53.23a2.34,2.34,0,0,0,.38,0,2.07,2.07,0,0,1,.35,0,16.18,16.18,0,0,1,2.63.22,14.88,14.88,0,0,0,2.6.22h.55l.28,0,.4-.06.38-.05.23,0,.19,0,.37.1.4.12.31.12.61.17a3.67,3.67,0,0,1,.53.18.69.69,0,0,1,.21.06c.09,0,.14.09.14.14s.11.06.22.16l.34.36.34.36a.93.93,0,0,0,.22.21l.26.06a1.2,1.2,0,0,1,.3.11l.05.06.09.09.43.45.48.55c.16.17.34.4.56.67a1.76,1.76,0,0,1,.19.35,2.3,2.3,0,0,0,.22.41s.08,0,.18.15.14.15.14.17a1.83,1.83,0,0,1,.21.27,4.08,4.08,0,0,0,.25.33,3.72,3.72,0,0,1,.22.3.54.54,0,0,1,.09.16v1.26a5.8,5.8,0,0,0,.17,1.16,4.48,4.48,0,0,1,.15,1.15,8.78,8.78,0,0,1-.51,3,10.56,10.56,0,0,1-1.38,2.54,11.91,11.91,0,0,1-2,2.11,17.94,17.94,0,0,1-2.48,1.72,1.94,1.94,0,0,1-.79.33,4.07,4.07,0,0,0-.82.25.62.62,0,0,0-.3.18.57.57,0,0,1-.26.17,4.84,4.84,0,0,1-1.44.27q-.76,0-1.47.09l-.19,0-.35.07-.35.07-.19,0H343l-1,0-.94-.07-.58-.07-.22,0-.43-.09-.47-.12a2,2,0,0,1-.35-.12l-1-.2L337,207.7a10.33,10.33,0,0,1-1-.26A4.45,4.45,0,0,1,335,207a5.17,5.17,0,0,1-1.07-.89,9.43,9.43,0,0,0-.95-.93,9.4,9.4,0,0,1-.81-.76,2.82,2.82,0,0,1-.46-.6,5.76,5.76,0,0,1-.33-.7c-.11-.26-.25-.63-.43-1.1a2.82,2.82,0,0,1-.18-.32,1.28,1.28,0,0,1-.14-.41Zm5.31-2.31c0,.14,0,.35,0,.66s.07.63.12,1,.1.68.16,1a2.32,2.32,0,0,0,.21.66,2.76,2.76,0,0,0,.55.72l.84.75c.3.25.61.49.91.71l.81.6.39.3c.17.11.33.23.49.35s.29.21.41.29l.2.12a4.66,4.66,0,0,0,1.72.63,12.36,12.36,0,0,0,1.84.13,10.83,10.83,0,0,0,1.21-.07,5.35,5.35,0,0,0,1-.24,6.7,6.7,0,0,0,1-.41c.32-.16.68-.35,1.07-.57a5.43,5.43,0,0,1,.84-.37,1.09,1.09,0,0,0,.6-.51,6.06,6.06,0,0,0,.73-1.14c.33-.59.64-1.19.91-1.8a4.75,4.75,0,0,0,.41-2,4.82,4.82,0,0,0-.36-1.86,5.69,5.69,0,0,0-1-1.55,6.08,6.08,0,0,0-1.46-1.19,7.46,7.46,0,0,0-1.82-.76h-.25l-.4,0a.53.53,0,0,1-.23,0,.62.62,0,0,1-.22-.1l-.36-.22-.35-.22a.6.6,0,0,0-.22-.11v-.05l0-.06a.09.09,0,0,1,0,.06.21.21,0,0,1-.09.05l-1.11,0-1.69,0-1.7,0c-.54,0-.91,0-1.1,0a.53.53,0,0,0-.18.07l-.26.18-.28.18a.61.61,0,0,1-.22.07,1.83,1.83,0,0,1-.35,0h-.35a.72.72,0,0,0-.24.13,4,4,0,0,0-1.2,1.62,5.56,5.56,0,0,0-.3.87,7.45,7.45,0,0,1-.32,1,1.39,1.39,0,0,1-.22.4A.71.71,0,0,0,336,198.75Zm2.38-25a2.26,2.26,0,0,0,0,.35c0,.18.06.37.1.57s.08.4.12.57a2.11,2.11,0,0,1,.06.36,9.49,9.49,0,0,1,.19,1.15,1.74,1.74,0,0,0,.43,1s.06.13.19.27l.45.46c.18.18.35.36.53.53a2.19,2.19,0,0,0,.44.38,1.93,1.93,0,0,0,1,.44,8.28,8.28,0,0,0,1.2.09,3.48,3.48,0,0,0,1.51-.38,6,6,0,0,0,1.42-1,5.53,5.53,0,0,0,1.08-1.33,4,4,0,0,0,.51-1.51v-.94a.63.63,0,0,0,.09-.2,3.26,3.26,0,0,0,.11-.4c0-.14.08-.28.11-.41a1.18,1.18,0,0,0,0-.25l.09-.44.12-.58c0-.2.07-.37.1-.53a2.3,2.3,0,0,0,0-.26,4.21,4.21,0,0,0-.25-1.79,5.43,5.43,0,0,0-.85-1.52,8.39,8.39,0,0,0-1.24-1.29c-.47-.39-.94-.75-1.41-1.09h-.21l-.39.21a1.3,1.3,0,0,1-.34.15,1,1,0,0,1-.28.05h-.25a1.77,1.77,0,0,1-.37,0l-.28,0a1.14,1.14,0,0,0-.64.2,5.83,5.83,0,0,0-1.62,1.33,7.56,7.56,0,0,0-1.1,1.78,9.89,9.89,0,0,0-.63,2A8.17,8.17,0,0,0,338.34,173.73Z"/><path class="cls-2" d="M364.16,166.26a1,1,0,0,1,.25-.73,1.55,1.55,0,0,1,.62-.4,2.52,2.52,0,0,1,.79-.15h.78l.42,0,.74.07.74.08.45,0,.38,0,.61-.08.62-.07.38,0h1.26l.18,0,.29-.11.28-.11.16-.06a3.7,3.7,0,0,0,1.56-.94,2.61,2.61,0,0,0,.44-1.67v-.5a1.31,1.31,0,0,0-.06-.26c0-.14-.09-.29-.15-.47l-.17-.53-.15-.41a2.36,2.36,0,0,0-.13-.35c-.07-.16-.14-.32-.22-.48l-.22-.49a3.06,3.06,0,0,0-.16-.32c0-.06-.09-.14-.15-.25s-.13-.21-.21-.32-.15-.2-.22-.29a.47.47,0,0,0-.16-.16.87.87,0,0,0-.35-.14l-.35-.07a2.19,2.19,0,0,1-.75-.37l-.67-.49a7.66,7.66,0,0,0-.7-.46,2.64,2.64,0,0,0-.79-.29.27.27,0,0,0-.2-.06l-.33,0-.2,0c-.29-.08-.6-.18-.93-.29s-.62-.22-.89-.3a1.46,1.46,0,0,0-.31,0l-.47,0-.45-.05h-.27a2.73,2.73,0,0,1-.83-.46,3.27,3.27,0,0,1-.69-.7,3.42,3.42,0,0,1-.47-.86,2.65,2.65,0,0,1-.18-.94,3.16,3.16,0,0,1,.34-1.54,2.91,2.91,0,0,1,.91-1,4,4,0,0,1,1.3-.57,7.1,7.1,0,0,1,1.56-.17,5,5,0,0,1,2.61.73,1.71,1.71,0,0,1,.37.26,2.22,2.22,0,0,1,.17.22.7.7,0,0,0,.2.18.88.88,0,0,0,.38.1c.08.06.19.17.35.32l.5.49c.17.16.34.32.48.48l.31.32a.53.53,0,0,0,.06.15l.12.25.1.23c0,.07,0,.11.07.11a.63.63,0,0,1,.22.07c.11,0,.16.09.16.13a5,5,0,0,1,1.15,1.35c.31.53.61,1.06.88,1.61a.38.38,0,0,1,.13.16.44.44,0,0,1,.07.19v.32a1.26,1.26,0,0,0,.11.3c.07.15.14.33.22.52s.15.37.22.53.11.26.13.29a3.42,3.42,0,0,1,.18,1c0,.37,0,.72,0,1.06v.67a19.6,19.6,0,0,1-.12,2.06,8.05,8.05,0,0,1-.44,2,.83.83,0,0,1-.09.25l-.21.43c-.07.15-.15.3-.23.45a2.65,2.65,0,0,1-.21.34,4.09,4.09,0,0,1-.23.47l-.46.82c-.16.29-.32.56-.48.82l-.29.47-.36.6a5.38,5.38,0,0,1-.47.66,3.91,3.91,0,0,1-.57.58,1.53,1.53,0,0,1-.63.35l-.59,0-.92.08-.92.11a5.48,5.48,0,0,1-.62.06,1.49,1.49,0,0,0-1.29,1.08c0,.06,0,.16,0,.31s0,.3,0,.45,0,.3,0,.44,0,.24,0,.29a8.78,8.78,0,0,0,.13,1.53,8.67,8.67,0,0,1,.13,1.52c0,.18,0,.39,0,.65a2.65,2.65,0,0,1-.16.73,1.75,1.75,0,0,1-.38.61.85.85,0,0,1-.66.27,1,1,0,0,1-.56-.28,2.89,2.89,0,0,1-.44-.46,1.81,1.81,0,0,1-.2-.79,4.12,4.12,0,0,1,0-.48,4.36,4.36,0,0,0,0-.51v-.24q0-.09-.12-.48c-.06-.26-.12-.55-.18-.85s-.11-.59-.16-.86a3.66,3.66,0,0,1-.07-.56,1,1,0,0,1-.09-.4q0-.3-.06-.69c0-.25,0-.5,0-.74s0-.43,0-.54v-2.11a3.61,3.61,0,0,0-.06-.44c0-.24-.08-.49-.14-.76s-.11-.53-.15-.77a3.61,3.61,0,0,1-.06-.44Zm-.88,21.15a3.43,3.43,0,0,1,.94-2.53,3.38,3.38,0,0,1,2.52-1,3.17,3.17,0,0,1,1.31.28,3.42,3.42,0,0,1,1,.75,3.16,3.16,0,0,1,.69,1.11,3.63,3.63,0,0,1,.25,1.35,3,3,0,0,1-.29,1.41,2.87,2.87,0,0,1-.77.89,4.31,4.31,0,0,1-1.1.62c-.42.16-.84.34-1.27.54l-.35-.09-.5-.15-.5-.16a1.47,1.47,0,0,1-.33-.13.69.69,0,0,1-.16-.12l-.29-.26-.34-.31-.29-.25a1.29,1.29,0,0,1-.47-.73,4.19,4.19,0,0,1-.09-.91Z"/><path class="cls-2" d="M344.36,291.37c-4.92-10.85-9.06-22-14-32.81l-3.95-8.78-5.44,0c-2.39.1-4.78.17-7.18.23l-4.67.22c-3.38.13-7.19-.11-10.2.47-1.3.25-1.95.54-2.09.81h-8.69c0-.09-.14-.15-.28-.2a25.39,25.39,0,0,0-5.62-.63c-4.91-.42-9.82-.9-14.81-.94-4.66,0-9.32.17-14,.1-2.68,0-5.35-.17-8-.1-2.34.06-4.62.31-6.92.51-1.9.17-3.87-.21-5.8,0-3.57.3-5.6.89-5.6,1.29v0H216c.16-.06.25-.11.25-.16,0-.36-4.46-.95-11.57-1.17-3.48-.11-7.72.35-12.27.3-3.8,0-7.86-.48-12.14-.48s-8.36.22-12.17.26c-4.54.06-8.72-.08-12.2,0-7.11.23-12.58.7-12.58,1.06,0,.05.11.1.31.16H128.1a.14.14,0,0,0,0-.06c0-.17-.25-.31-.79-.42a26.33,26.33,0,0,0-3.08-.27c-.32.63-.68,1.37-1.1,2.21l-1.21,2.51c-1.39,2.89-3.23,6.12-4.86,9.84s-3.1,7.07-4.22,9.91c-2.11,5.31-2.6,7.82-2.12,8h.07L105,296.54l.52,1.18a9.15,9.15,0,0,0,.16,1.24,25.39,25.39,0,0,0,.93,3.52c.53,1.54,1.65,3.59,2.51,5.55s1.66,4,2.44,5.42a15.24,15.24,0,0,0,2.38,3.47l5,11.46c-.22.9.31,3.68,1.65,6.72s3.17,5.67,4,6.23l.1.21h0a2,2,0,0,0,.87,1.83,5.82,5.82,0,0,0,4.42,2c14,0,14-.22,27.91-.27l27.92-.1c14,0,14-.3,27.91-.35l27.92-.05c13.95-.05,14,.49,27.93.44,13.56,0,37.76-1.78,43.43-1.75l13.43.12q4.13-9,8.24-18c2.63-5.76,5.63-11.9,7.9-17.8.67-1.76,1.31-3.5,1.94-5.23l1-2.6.24-.64.3-.78.73-1.84C345.66,294.13,345.09,293,344.36,291.37Z"/><path class="cls-3" d="M185.61,311a1.09,1.09,0,0,1,.36-.81,1.18,1.18,0,0,1,.81-.34l.1,0,.19,0,.2.05.17,0a.62.62,0,0,1,.18.07.62.62,0,0,0,.18.07h.11a6.93,6.93,0,0,1,.79-.17,3,3,0,0,0,.72-.23,1.27,1.27,0,0,0,.53-.44,1.35,1.35,0,0,0,.17-.84l-.06-3.84,0-.35v-3.05a4.57,4.57,0,0,1-.24-.56,2.24,2.24,0,0,1-.05-.49v-.26c0-.06,0-.16.08-.3s.09-.29.14-.44.09-.29.12-.42.05-.2.05-.22a.43.43,0,0,0,0-.14c0-.07-.05-.14-.08-.22l-.14-.29a1.65,1.65,0,0,0-.05-.23,1.3,1.3,0,0,0-.08-.29.34.34,0,0,0,0-.11c0-.06,0-.13,0-.2s0-.15,0-.22,0-.11,0-.12a.29.29,0,0,0-.05-.1l-.13-.15-.13-.15-.08-.09a1.71,1.71,0,0,1-.27-.66,2,2,0,0,0-.24-.66,3.14,3.14,0,0,1-.33-.3c-.15-.14-.31-.3-.47-.48s-.32-.34-.46-.5a2.75,2.75,0,0,1-.3-.36,5.84,5.84,0,0,1-.63-1,6.4,6.4,0,0,0-.64-1.12,7.12,7.12,0,0,0-.63-.89,6.51,6.51,0,0,1-.6-.88,1.27,1.27,0,0,1-.12-.2c0-.1-.09-.2-.14-.31s-.1-.21-.14-.31l-.12-.2a4.82,4.82,0,0,0-.89-1.34c-.37-.42-.72-.83-1-1.22l-.21-.31-.36-.53-.36-.54-.22-.31,0,0s0,0,0,0l-.07,0-.12-.06-.1-.08-.16-.16-.24-.23-.25-.23-.15-.14a1.07,1.07,0,0,0-.58-.26c-.23,0-.45-.07-.67-.12a1.37,1.37,0,0,1-.56-.25.7.7,0,0,1-.22-.6.74.74,0,0,0,0-.12.5.5,0,0,1,0-.17.25.25,0,0,1,.18-.26l.39-.07.62-.08.61-.08a2.83,2.83,0,0,1,.41,0h.37l.2.06.19.06h1.68a5,5,0,0,1,.77.15,3.45,3.45,0,0,0,.81.1q.34,0,.66,0l.65-.07a.45.45,0,0,0,.15-.07.39.39,0,0,0,.1-.08h.25a4.8,4.8,0,0,1,1.22.15,5.17,5.17,0,0,0,1.22.14l.2,0a.75.75,0,0,1,.21,0,.29.29,0,0,1,.16.26.53.53,0,0,1-.35.49c-.23.1-.49.2-.77.3a5.49,5.49,0,0,0-.77.37.72.72,0,0,0-.34.65v.37s.1.09.22.26a3.92,3.92,0,0,0,.29.39,3.34,3.34,0,0,1,.36.48c.1.16.2.33.29.51l.29.53a2.89,2.89,0,0,0,.35.51l.15.16.25.23.25.24a1.37,1.37,0,0,0,.13.13s.05.06.07.19,0,.2,0,.22l.7,1.08c.22.34.46.69.72,1.08a.48.48,0,0,1,.14.18.7.7,0,0,0,.14.19,1.34,1.34,0,0,0,0,.14.21.21,0,0,0,.06.1.4.4,0,0,0,.1.13l.16.16.16.14.09.08.06.15.08.2.09.2,0,.11a4.67,4.67,0,0,0,.32.62c.17.27.34.54.53.81a5.93,5.93,0,0,0,.54.69c.18.2.32.3.41.3a3.26,3.26,0,0,0,.58-.06.6.6,0,0,0,.45-.33c.53-.91,1-1.86,1.45-2.82s.88-1.93,1.34-2.9a4.76,4.76,0,0,1,.45-.8c.19-.29.38-.58.56-.88a7.76,7.76,0,0,0,.47-.9,2.23,2.23,0,0,0,.2-.87.84.84,0,0,0-.16-.51,1.45,1.45,0,0,0-.39-.39,3.45,3.45,0,0,0-.5-.29l-.49-.22a.32.32,0,0,0-.13,0l-.25,0-.25,0h-.13l-.59-.12a8.39,8.39,0,0,1-.84-.18,4.68,4.68,0,0,1-.73-.27c-.22-.1-.32-.21-.32-.34a.31.31,0,0,1,0-.08l0-.06.66-.61h3.3a8,8,0,0,1,1.11.14,5.79,5.79,0,0,0,1.08.1h.45l.28,0,.46-.05.44,0,.24,0h1.56a9.24,9.24,0,0,0,1.09-.15,6.38,6.38,0,0,1,1.08-.1h.51a1.54,1.54,0,0,1,.27.31.78.78,0,0,1,.1.43.66.66,0,0,1-.23.57,1.47,1.47,0,0,1-.56.23,3.52,3.52,0,0,1-.66.06,2.29,2.29,0,0,0-.58.06l-.16.05-.33.12-.37.12a1.58,1.58,0,0,1-.31.08.7.7,0,0,1-.28.17l-.33.12a1.42,1.42,0,0,0-.73.61,5.28,5.28,0,0,1-.58.8l-.13.14c-.07.07-.14.15-.23.23l-.25.25-.15.14a5.33,5.33,0,0,0-.7,1.07,8.07,8.07,0,0,1-.68,1.11l-.21.22-.37.4-.37.4a1.42,1.42,0,0,0-.2.25,4.1,4.1,0,0,0-.3.46l-.43.73-.42.73a4.34,4.34,0,0,0-.26.48,3.65,3.65,0,0,0-.44.45,4.85,4.85,0,0,0-.31.4c-.09.13-.18.26-.29.39s-.22.27-.36.42l-.15.15-.25.25-.24.25c-.08.07-.11.12-.11.15a1.41,1.41,0,0,0-.11.49c0,.25,0,.45,0,.6v7c0,.05,0,.22,0,.49s0,.57-.05.88,0,.61,0,.89,0,.46,0,.53v.1a.91.91,0,0,0,.07.28,1.05,1.05,0,0,1,.07.23,1.55,1.55,0,0,1-.07.35,1.85,1.85,0,0,0-.07.31v.61c0,.07,0,.21,0,.4s0,.42,0,.65,0,.45.05.65a3.43,3.43,0,0,1,0,.38v.75a.37.37,0,0,0,.09.16c.07.07.12.11.16.11a.25.25,0,0,0,.12,0,.85.85,0,0,0,.23,0l.24,0H196a1.35,1.35,0,0,0,.41.06l.65.05.67,0h.44a.79.79,0,0,1,.48.38,1.1,1.1,0,0,1,.18.62.48.48,0,0,1-.15.38.89.89,0,0,1-.36.2,2.12,2.12,0,0,1-.45.07h-.42a2.5,2.5,0,0,1-.42,0l-.3-.09-.27-.08a1.47,1.47,0,0,0-.32,0l-.17,0-.29.05-.29.05-.17,0H195a1.18,1.18,0,0,1-.39-.08,1.41,1.41,0,0,0-.41-.07,30.33,30.33,0,0,0-3.43.19,32.65,32.65,0,0,1-3.42.18h-.63a2.37,2.37,0,0,1-.78-.12C185.73,311.6,185.61,311.38,185.61,311Z"/><path class="cls-3" d="M213.42,311.08v-.16a1.26,1.26,0,0,1,.64-.59,3,3,0,0,1,.85-.18c.3,0,.61,0,.92,0a2.5,2.5,0,0,0,.85-.11,1.24,1.24,0,0,0,.6-.47,1.81,1.81,0,0,0,.24-1.05v-7.3s0-.14,0-.28,0-.3-.06-.48,0-.34-.05-.48,0-.24,0-.28v-.37c0-.19,0-.36,0-.52s0-.31,0-.46,0-.31,0-.48.05-.38.08-.61a.29.29,0,0,1,.06-.15.3.3,0,0,0,.06-.14v-.12a2,2,0,0,0-.06-.31,1.65,1.65,0,0,1-.06-.33v-4.47s0-.15,0-.34,0-.38-.06-.6,0-.42-.05-.6,0-.3,0-.34v-1.32s0-.15,0-.29,0-.3,0-.46,0-.33,0-.48a1.58,1.58,0,0,1,0-.32,1.89,1.89,0,0,1,.06-.23,1.48,1.48,0,0,0,.06-.25v-.24q0-.31-.09-.69c0-.25-.07-.51-.11-.77s-.06-.51-.1-.76-.07-.46-.11-.65a.8.8,0,0,0-.36-.53,2,2,0,0,0-.62-.21,4.27,4.27,0,0,0-.71-.07,3.31,3.31,0,0,1-.61-.07l-.24-.07-.54-.13-.62-.16L213,282a.79.79,0,0,1-.44-.23,1.16,1.16,0,0,1-.08-.51V281c0-.06.13-.11.3-.18a.87.87,0,0,1,.36-.07h.92c.78,0,1.58,0,2.41.08l2.41.17.26,0a.81.81,0,0,1,.27.09h.11a.53.53,0,0,1,.25-.09l.26,0a.42.42,0,0,1,.14.08l.11.06h.26l.14-.06L221,281l.25-.07a.33.33,0,0,1,.13,0,.4.4,0,0,1,.17,0l.24.06.24.08.15.07h1.93c.76,0,1.52,0,2.25-.07s1.49-.07,2.26-.07h.31a3.3,3.3,0,0,1,.39,0l.57,0,.58,0,.38,0a.54.54,0,0,1,.2-.09l.2,0h.06a1.51,1.51,0,0,1,.5.07,2,2,0,0,0,.62.07,7,7,0,0,0,1-.07,6.92,6.92,0,0,1,1-.07h.52c.26,0,.54,0,.85,0a1.53,1.53,0,0,1,.7.21s0,0,.08.11a.47.47,0,0,1,.05.14v.7a12.36,12.36,0,0,1-.13,1.73,11,11,0,0,0-.14,1.71,6.59,6.59,0,0,0,.07.91,5.69,5.69,0,0,1,.07.94v.29a.9.9,0,0,1-.06.37c0,.12-.15.18-.32.18a.73.73,0,0,1-.57-.29,3.1,3.1,0,0,1-.42-.66c-.12-.26-.23-.52-.32-.78a6.59,6.59,0,0,0-.23-.63s-.07-.06-.12-.13a1.67,1.67,0,0,0-.16-.24,2.44,2.44,0,0,1-.16-.23.87.87,0,0,0-.1-.14c-.16-.3-.33-.6-.51-.91a5.88,5.88,0,0,0-.6-.85,3.37,3.37,0,0,0-.77-.65,2.49,2.49,0,0,0-1-.31l-.89,0h-2.65l-.85,0-.28,0-.49-.05-.48-.05-.28,0-.17,0-.27.05-.27.05-.2,0h-.39l-.33,0-.34,0a1.6,1.6,0,0,0-.7.15,1.09,1.09,0,0,0-.51.67v2.08s0,0,0,.1,0,.12-.05.19,0,.15-.06.21l0,.11v.29a2,2,0,0,0,0,.23.72.72,0,0,0,.1.24v7.18s0,.11,0,.22a2.51,2.51,0,0,0,0,.37l0,.41a1,1,0,0,0,.06.31.71.71,0,0,0,.11.4c.06.08.2.11.4.11H223c.13,0,.32,0,.58,0l.87,0,1,0,1.05,0,.89,0h.6a4.68,4.68,0,0,1,.54-.1,5.41,5.41,0,0,0,.55-.12,1.93,1.93,0,0,0,.51-.19,1.41,1.41,0,0,0,.43-.35,1.88,1.88,0,0,0,0-.23,2.14,2.14,0,0,1,0-.34l0-.36c0-.12,0-.2,0-.24v-2.79a.89.89,0,0,1,.39-.75,1.36,1.36,0,0,1,.78-.27.62.62,0,0,1,.58.34,3.81,3.81,0,0,1,.32.68,5,5,0,0,0,0,.81v2.56a5.28,5.28,0,0,0,0,.84c0,.08,0,.24,0,.47s0,.48,0,.74,0,.5,0,.73,0,.39,0,.48a5.73,5.73,0,0,0,.15,1,4.48,4.48,0,0,1,.12,1v.14c0,.12,0,.29,0,.49s0,.41-.05.61a5.29,5.29,0,0,0,0,.53c0,.16,0,.25,0,.28a1.24,1.24,0,0,1-.26.54.67.67,0,0,1-.52.2,1.53,1.53,0,0,1-.82-.19,1.17,1.17,0,0,1-.45-.7v-2.13a1.24,1.24,0,0,0-.08-.27c0-.15-.07-.23-.07-.26a1.22,1.22,0,0,0,0-.23c0-.11,0-.22-.05-.35s0-.24-.05-.35,0-.2,0-.24a.47.47,0,0,0-.1-.11l-.19-.16-.19-.15a.51.51,0,0,0-.14-.09h-.14c-.78.09-1.56.16-2.35.21s-1.57.07-2.37.07h-.83a7.69,7.69,0,0,1-.83,0,6.32,6.32,0,0,0-.63.18.51.51,0,0,0-.28.19.67.67,0,0,0-.08.35q0,.22,0,.6l-.07.18-.08.18v.15l0,.13c0,.08,0,.16.06.25s0,.17.05.24,0,.12,0,.14v.26s0,.13-.07.3a2.29,2.29,0,0,0-.08.3v.14s0,.14,0,.29,0,.31.06.49,0,.34.05.48,0,.24,0,.28v3.83a1.77,1.77,0,0,0,0,.26c0,.15,0,.3.05.46s0,.32.05.46,0,.23,0,.26v1.8a1.13,1.13,0,0,0,.51.72l.45.06.69.1.69.08.45,0h.37c.57,0,1.14,0,1.69-.06s1.13-.06,1.73-.06h.93l.2.07.21,0,.15,0,.29,0,.28,0,.18,0h2.4a.85.85,0,0,0,.21.11h.32a2.94,2.94,0,0,0,.44,0l.32-.07a.88.88,0,0,0,.56-.42,3.9,3.9,0,0,1,.36-.59.36.36,0,0,0,.09-.09l.16-.17L236,309l.11-.09a3.73,3.73,0,0,0,.45-.69,4.36,4.36,0,0,1,.45-.73s.06-.09.17-.19a1.13,1.13,0,0,0,.2-.2,2.44,2.44,0,0,0,.26-.45c.11-.22.23-.46.36-.75l.41-.87c.15-.3.29-.57.44-.82a3.46,3.46,0,0,1,.46-.61.61.61,0,0,1,.45-.25.24.24,0,0,1,.26.21,1.84,1.84,0,0,1,0,.41v.49a2.81,2.81,0,0,1,0,.3.55.55,0,0,1-.11.29l-.66,4.62v.22a2.56,2.56,0,0,0,.07.36q.06.28.06.3a1.07,1.07,0,0,1-.13.53.76.76,0,0,1-.38.37h-3.59l-.45,0-.76.09-.76.1-.43,0h-.39a1.16,1.16,0,0,0-.27,0l-.25.06h-6.8a25.4,25.4,0,0,1-2.74-.19,21.63,21.63,0,0,0-2.78-.18,9.23,9.23,0,0,0-1.18.08l-1.17.18-1.17.17a7.89,7.89,0,0,1-1.2.08h-1a1.88,1.88,0,0,1-.37-.38A.76.76,0,0,1,213.42,311.08Z"/><path class="cls-3" d="M253.13,311.23l-1.17-.29c-.44-.11-.82-.22-1.16-.33a.51.51,0,0,1-.2-.12c-.1-.08-.15-.14-.15-.17-.33-.16-.64-.29-.91-.39a3.17,3.17,0,0,1-.74-.33,1.27,1.27,0,0,1-.5-.55,2.44,2.44,0,0,1-.17-1v-.11a1.27,1.27,0,0,1,.12-.26,1.31,1.31,0,0,0,.13-.27,4.59,4.59,0,0,0,.09-.93,6.63,6.63,0,0,1,.05-1,.78.78,0,0,1,.07-.17.57.57,0,0,0,.07-.2.84.84,0,0,0,0-.12l0-.22c0-.09,0-.16.05-.24a.61.61,0,0,1,0-.17,1.92,1.92,0,0,1,0-.2,1.82,1.82,0,0,1,0-.32,2.91,2.91,0,0,1,0-.31c0-.11,0-.17,0-.2s0-.06,0-.14a1.84,1.84,0,0,1,.05-.25c0-.08,0-.16,0-.23a.53.53,0,0,0,0-.14s0-.09,0-.18a2.79,2.79,0,0,0,0-.32c0-.12,0-.23,0-.33a1.07,1.07,0,0,1,.05-.21,1,1,0,0,1,0-.2,1.29,1.29,0,0,1,.08-.26.94.94,0,0,1,.12-.22.21.21,0,0,1,.18-.1c.11,0,.2.1.28.3a4,4,0,0,1,.22.73c.06.28.11.56.15.83s.08.47.1.6a3.52,3.52,0,0,1,.06.45c0,.22,0,.45.06.7s0,.47.06.68,0,.36,0,.44a.48.48,0,0,1,.09.13.19.19,0,0,1,.05.12,4.19,4.19,0,0,1,.25.66,2.65,2.65,0,0,0,.27.65,1,1,0,0,0,.09.2l.15.26.16.26a1.18,1.18,0,0,0,.11.18l.14.13c.07.07.1.11.1.14a.79.79,0,0,1,.08.13c0,.08.07.16.11.25l.12.25a.53.53,0,0,1,.06.13,1.74,1.74,0,0,0,.5.47,3.72,3.72,0,0,0,.65.36l.7.29.64.25a1.27,1.27,0,0,0,.17.17.5.5,0,0,0,.17.12h.76l.4.05a2.48,2.48,0,0,0,.4,0h.58a4.57,4.57,0,0,0,1.34-.18c.39-.12.8-.27,1.24-.45l.4-.09a1,1,0,0,0,.4-.18.91.91,0,0,0,.19-.15l.3-.3.32-.33.22-.22.22-.25.29-.33.25-.29a1.76,1.76,0,0,1,.14-.16.48.48,0,0,0,.05-.13c0-.08,0-.16.07-.25s0-.17.07-.24a.62.62,0,0,1,.05-.14,3.39,3.39,0,0,1,.2-.42,1.82,1.82,0,0,0,.16-.31,1.61,1.61,0,0,0,.12-.33,3.15,3.15,0,0,0,0-.5c0-.43,0-.86,0-1.27s0-.83-.08-1.27a1.55,1.55,0,0,0-.32-.7c-.17-.19-.32-.38-.48-.57a1.07,1.07,0,0,0-.15-.21l-.29-.36c-.1-.14-.19-.27-.28-.38l-.16-.22a1.26,1.26,0,0,0-.25-.26l-.23-.11-.24-.08a1.35,1.35,0,0,1-.32-.16,2.6,2.6,0,0,1-.4-.41,1,1,0,0,0-.46-.35.4.4,0,0,0-.16,0l-.24-.05-.25,0-.13,0-.34-.12a1.92,1.92,0,0,1-.3-.12l-.23-.17-.41-.25-.41-.25a2.87,2.87,0,0,0-.26-.13,5.26,5.26,0,0,0-1.2-.33,5.52,5.52,0,0,1-1.2-.31,4.65,4.65,0,0,1-1-.45c-.32-.19-.62-.39-.91-.59s-.65-.4-1-.62-.63-.42-1-.62a.14.14,0,0,0-.05-.09.14.14,0,0,0-.09-.05,17.36,17.36,0,0,1-1.56-2.94,8.64,8.64,0,0,1-.61-3.29v-.39a2.61,2.61,0,0,1,0-.4,1.22,1.22,0,0,1,.12-.42.83.83,0,0,0,.07-.14l.11-.24.13-.25a.53.53,0,0,0,.06-.13s0-.06,0-.13,0-.16,0-.25,0-.17,0-.25a.32.32,0,0,1,0-.13c0-.07.06-.16.1-.27l.15-.35a2.31,2.31,0,0,1,.18-.35,1.48,1.48,0,0,1,.23-.3.72.72,0,0,1,.15-.18l.29-.28.28-.28a1,1,0,0,0,.14-.16s.06,0,.09-.1a.3.3,0,0,0,.05-.17,2.28,2.28,0,0,1,.66-.89,10.27,10.27,0,0,1,1-.67.15.15,0,0,0,.11,0,0,0,0,0,0,0,0l.09,0,.16-.12.26-.18h.39l.27-.06.48-.13.49-.13.3-.05h1l.29,0,.48,0,.49,0,.3,0h.12a.23.23,0,0,1,.13.07.19.19,0,0,0,.12.07h.8a2.12,2.12,0,0,1,.65.2,8,8,0,0,1,.77.39c.26.14.51.29.75.44l.62.35a.67.67,0,0,0,.19.09l.18.05a1.48,1.48,0,0,1,.35.28l.34.34a2.11,2.11,0,0,0,.37.28.79.79,0,0,0,.44.13.5.5,0,0,0,.42-.19,1.71,1.71,0,0,0,.2-.43,2.78,2.78,0,0,0,.11-.5,1.39,1.39,0,0,1,.13-.42.28.28,0,0,1,.08-.17l.18-.22.2-.23a.68.68,0,0,0,.11-.14.13.13,0,0,1,.1,0h0a.41.41,0,0,1,.41.28,1.62,1.62,0,0,1,.11.52v.22a1.34,1.34,0,0,1,0,.22c0,.1-.05.21-.08.33s-.05.22-.08.33,0,.16-.06.17a36.69,36.69,0,0,0-.31,4.72c0,.24,0,.49,0,.72s0,.49,0,.73q0,.12-.09.3a1.43,1.43,0,0,1-.14.34.84.84,0,0,1-.22.27.37.37,0,0,1-.26.12.59.59,0,0,1-.38-.11.64.64,0,0,1-.21-.25,1.6,1.6,0,0,1-.11-.33,3.37,3.37,0,0,0-.1-.34c-.15-.44-.3-.92-.45-1.45s-.3-1-.46-1.42a3,3,0,0,0-.33-.57c-.16-.22-.34-.44-.54-.67l-.58-.64a6.48,6.48,0,0,1-.47-.52,3.66,3.66,0,0,1-.39-.62,1.3,1.3,0,0,0-.47-.53c-.15-.08-.33-.16-.54-.25s-.41-.18-.63-.26a6,6,0,0,0-.65-.2,2.09,2.09,0,0,0-.56-.09,2.75,2.75,0,0,0-1,.2c-.33.13-.67.24-1,.34a.35.35,0,0,0-.12,0l-.21,0-.23,0-.16,0H254l-.11.08-.19.14-.22.17-.14.14a7.64,7.64,0,0,0-.9.93,3.64,3.64,0,0,0-.55.89,3.83,3.83,0,0,0-.27,1,8.25,8.25,0,0,0-.08,1.29,4.3,4.3,0,0,0,0,.46q0,.29.06.6a3.43,3.43,0,0,0,.11.59.9.9,0,0,0,.19.38l1.69,1.63.16.1.23.12a1.38,1.38,0,0,0,.22.1l.15.06a.58.58,0,0,0,.13.11l.25.16.24.16a.32.32,0,0,1,.13.09,3.63,3.63,0,0,0,.89.42,5.92,5.92,0,0,1,.9.38l.23.09.36.15.36.16a1.46,1.46,0,0,1,.24.11l.16.08.32.18.33.16.21.09h.15l.26,0a2.3,2.3,0,0,1,.28.06.34.34,0,0,1,.17.05.49.49,0,0,1,.2.1l.17.12.28.14.4.19.39.19.25.14a7.48,7.48,0,0,1,1.93,1.33,8.9,8.9,0,0,1,1.54,1.91,10.51,10.51,0,0,1,1,2.24,8.05,8.05,0,0,1,.37,2.35v.23c0,.13,0,.32-.05.56s0,.48-.08.73-.05.46-.08.66a2.56,2.56,0,0,1-.06.32,3.5,3.5,0,0,1-.25.83,4,4,0,0,1-.4.73c-.15.23-.32.47-.49.7l-.52.72,0,.09a1.09,1.09,0,0,0-.08.15l-.1.17a.42.42,0,0,0-.05.1.93.93,0,0,1-.46.41,3.35,3.35,0,0,0-.54.31.89.89,0,0,1-.12.14l-.19.22-.19.2c-.07.06-.1.09-.12.09a3.19,3.19,0,0,1-.72.39,6,6,0,0,1-.71.25l-.75.19-.81.22a6.16,6.16,0,0,0-.73.25,2.18,2.18,0,0,1-.77.12h-.41l-.94-.09-1.43-.16-1.41-.15Z"/></g></svg>