<svg xmlns="http://www.w3.org/2000/svg" viewBox="0 0 1080 170"><defs><style>.cls-1{fill:#355649;}.cls-2{fill:#382b18;}</style></defs><title>credit-IMLS</title><g id="content"><path class="cls-1" d="M77.33,85.23a2.93,2.93,0,1,1,2.93,2.93A2.93,2.93,0,0,1,77.33,85.23Z"/><path class="cls-1" d="M70.56,85.23a2.64,2.64,0,1,1,2.63,2.64A2.63,2.63,0,0,1,70.56,85.23Z"/><path class="cls-1" d="M64,85.23A2.38,2.38,0,1,1,66.4,87.6,2.38,2.38,0,0,1,64,85.23Z"/><path class="cls-1" d="M57.53,85.23a2.14,2.14,0,1,1,2.14,2.14A2.13,2.13,0,0,1,57.53,85.23Z"/><path class="cls-1" d="M51,85.23a1.92,1.92,0,1,1,1.92,1.92A1.92,1.92,0,0,1,51,85.23Z"/><path class="cls-1" d="M44.21,85.23A1.73,1.73,0,1,1,45.94,87,1.74,1.74,0,0,1,44.21,85.23Z"/><path class="cls-1" d="M89.75,72.07A2.93,2.93,0,1,1,86.83,75,2.93,2.93,0,0,1,89.75,72.07Z"/><path class="cls-1" d="M89.75,65.3a2.64,2.64,0,1,1-2.63,2.64A2.64,2.64,0,0,1,89.75,65.3Z"/><path class="cls-1" d="M89.75,58.77a2.37,2.37,0,1,1-2.37,2.37A2.38,2.38,0,0,1,89.75,58.77Z"/><path class="cls-1" d="M89.75,52.27a2.14,2.14,0,1,1-2.13,2.14A2.14,2.14,0,0,1,89.75,52.27Z"/><path class="cls-1" d="M89.75,45.69a1.93,1.93,0,1,1-1.92,1.93A1.93,1.93,0,0,1,89.75,45.69Z"/><path class="cls-1" d="M89.75,39A1.73,1.73,0,1,1,88,40.68,1.73,1.73,0,0,1,89.75,39Z"/><path class="cls-1" d="M72.67,77.28a2.37,2.37,0,1,1,1.16,3.15A2.37,2.37,0,0,1,72.67,77.28Z"/><path class="cls-1" d="M66.77,74.56a2.14,2.14,0,1,1,1,2.84A2.13,2.13,0,0,1,66.77,74.56Z"/><path class="cls-1" d="M60.79,71.81a1.92,1.92,0,1,1,3.49,1.61,1.92,1.92,0,0,1-3.49-1.61Z"/><path class="cls-1" d="M54.67,69a1.73,1.73,0,1,1,.85,2.29A1.73,1.73,0,0,1,54.67,69Z"/><path class="cls-1" d="M82.76,67.34a2.38,2.38,0,1,1-1.48,3A2.37,2.37,0,0,1,82.76,67.34Z"/><path class="cls-1" d="M80.68,61.19a2.14,2.14,0,1,1,1.37,4,2.14,2.14,0,0,1-1.37-4Z"/><path class="cls-1" d="M78.56,55a1.92,1.92,0,1,1-1.2,2.44A1.92,1.92,0,0,1,78.56,55Z"/><path class="cls-1" d="M76.4,48.58a1.73,1.73,0,1,1,1.11,3.28,1.73,1.73,0,0,1-1.11-3.28Z"/><path class="cls-1" d="M80.51,75.71a2.93,2.93,0,1,0,4.14,0A2.92,2.92,0,0,0,80.51,75.71Z"/><path class="cls-1" d="M75.73,70.92a2.61,2.61,0,0,0,0,3.72,2.63,2.63,0,1,0,0-3.72Z"/><path class="cls-1" d="M71.11,66.29a2.37,2.37,0,1,0,3.35,0A2.37,2.37,0,0,0,71.11,66.29Z"/><path class="cls-1" d="M66.52,61.7a2.14,2.14,0,1,0,3,0A2.13,2.13,0,0,0,66.52,61.7Z"/><path class="cls-1" d="M61.87,57a1.92,1.92,0,1,0,2.72,0A1.93,1.93,0,0,0,61.87,57Z"/><path class="cls-1" d="M57.1,52.27a1.73,1.73,0,0,0,2.45,2.45,1.73,1.73,0,0,0-2.45-2.45Z"/><path class="cls-1" d="M89.79,98.55a2.93,2.93,0,1,1,2.92-2.93A2.93,2.93,0,0,1,89.79,98.55Z"/><path class="cls-1" d="M89.79,105.32a2.64,2.64,0,1,1,2.63-2.63A2.64,2.64,0,0,1,89.79,105.32Z"/><path class="cls-1" d="M89.79,111.86a2.38,2.38,0,1,1,2.37-2.38A2.38,2.38,0,0,1,89.79,111.86Z"/><path class="cls-1" d="M89.79,118.35a2.14,2.14,0,1,1,2.13-2.14A2.14,2.14,0,0,1,89.79,118.35Z"/><path class="cls-1" d="M89.79,124.93A1.92,1.92,0,1,1,91.71,123,1.93,1.93,0,0,1,89.79,124.93Z"/><path class="cls-1" d="M89.79,131.67a1.73,1.73,0,1,1,1.73-1.73A1.73,1.73,0,0,1,89.79,131.67Z"/><path class="cls-1" d="M82.67,102.65a2.37,2.37,0,0,1,2-4.31,2.37,2.37,0,0,1-2,4.31Z"/><path class="cls-1" d="M80,108.55a2.14,2.14,0,1,1,2.84-1A2.13,2.13,0,0,1,80,108.55Z"/><path class="cls-1" d="M77.2,114.53a1.92,1.92,0,1,1,2.55-.94A1.93,1.93,0,0,1,77.2,114.53Z"/><path class="cls-1" d="M74.39,120.65a1.73,1.73,0,1,1,2.29-.85A1.73,1.73,0,0,1,74.39,120.65Z"/><path class="cls-1" d="M72.62,92.73a2.37,2.37,0,1,1,3,1.48A2.36,2.36,0,0,1,72.62,92.73Z"/><path class="cls-1" d="M66.47,94.81a2.14,2.14,0,1,1,2.71,1.33A2.14,2.14,0,0,1,66.47,94.81Z"/><path class="cls-1" d="M60.24,96.93a1.92,1.92,0,1,1,2.43,1.2A1.93,1.93,0,0,1,60.24,96.93Z"/><path class="cls-1" d="M53.86,99.09A1.73,1.73,0,1,1,57.13,98a1.73,1.73,0,1,1-3.27,1.11Z"/><path class="cls-1" d="M80.65,94.48a2.93,2.93,0,1,0,0-4.14A2.92,2.92,0,0,0,80.65,94.48Z"/><path class="cls-1" d="M75.86,99.26a2.63,2.63,0,1,0,0-3.72A2.64,2.64,0,0,0,75.86,99.26Z"/><path class="cls-1" d="M71.24,103.88a2.37,2.37,0,1,0,0-3.35A2.36,2.36,0,0,0,71.24,103.88Z"/><path class="cls-1" d="M66.64,108.47a2.14,2.14,0,1,0,0-3A2.14,2.14,0,0,0,66.64,108.47Z"/><path class="cls-1" d="M62,113.12a1.92,1.92,0,1,0,0-2.72A1.93,1.93,0,0,0,62,113.12Z"/><path class="cls-1" d="M57.22,117.88a1.73,1.73,0,1,0,0-2.44A1.73,1.73,0,0,0,57.22,117.88Z"/><path d="M117.81,86.65c-.1-2.32-.23-5.09-.21-7.55h-.08c-.58,2.19-1.33,4.62-2.13,6.88l-2.64,7.79h-2.51l-2.4-7.68c-.69-2.29-1.33-4.75-1.81-7h0c-.08,2.35-.19,5.2-.32,7.66l-.4,7.22h-3.07l1.2-18h4.32l2.35,7.23c.64,2.1,1.2,4.24,1.65,6.24h.08c.48-2,1.09-4.16,1.79-6.27l2.48-7.2h4.26l1,18h-3.2Z"/><path d="M135.12,90.09c0,1.55,0,2.83.11,3.89h-2.86L132.21,92h-.08A4.76,4.76,0,0,1,128,94.28c-2.35,0-4.51-1.42-4.51-5.66V81h3.28v7.06c0,2.16.69,3.55,2.43,3.55a2.67,2.67,0,0,0,2.5-1.76,2.28,2.28,0,0,0,.19-1V81h3.28Z"/><path d="M137.92,90.94a7,7,0,0,0,3.31,1c1.44,0,2.08-.61,2.08-1.46s-.54-1.31-2.14-1.9c-2.53-.85-3.57-2.24-3.57-3.78,0-2.3,1.89-4.06,4.91-4.06a7.4,7.4,0,0,1,3.46.78l-.66,2.29a5.76,5.76,0,0,0-2.75-.75c-1.17,0-1.81.59-1.81,1.39s.61,1.2,2.26,1.81c2.38.83,3.44,2,3.47,4,0,2.37-1.84,4.08-5.28,4.08a8.32,8.32,0,0,1-3.95-.91Z"/><path d="M150.88,88.41c.08,2.35,1.92,3.36,4,3.36a10.4,10.4,0,0,0,3.6-.59l.48,2.24a11.68,11.68,0,0,1-4.54.83c-4.21,0-6.69-2.59-6.69-6.56,0-3.6,2.19-7,6.35-7s5.6,3.47,5.6,6.32a8.29,8.29,0,0,1-.11,1.39Zm5.7-2.29c0-1.2-.5-3.18-2.69-3.18-2,0-2.88,1.84-3,3.18Z"/><path d="M173.33,90.09c0,1.55,0,2.83.11,3.89h-2.86L170.42,92h-.08a4.76,4.76,0,0,1-4.18,2.24c-2.35,0-4.51-1.42-4.51-5.66V81h3.28v7.06c0,2.16.69,3.55,2.43,3.55a2.67,2.67,0,0,0,2.5-1.76,2.28,2.28,0,0,0,.19-1V81h3.28Z"/><path d="M175.81,84.86c0-1.49-.05-2.74-.11-3.86h2.8l.16,1.92h.08a4.43,4.43,0,0,1,4-2.22,3.74,3.74,0,0,1,3.6,2.4h0A5.11,5.11,0,0,1,188,81.48a4.46,4.46,0,0,1,2.66-.78c2.14,0,4.32,1.47,4.32,5.63V94h-3.2V86.81c0-2.16-.74-3.44-2.32-3.44a2.5,2.5,0,0,0-2.29,1.73,3.44,3.44,0,0,0-.16,1.1V94h-3.2V86.46c0-1.81-.72-3.09-2.24-3.09a2.64,2.64,0,0,0-2.37,1.84A3.64,3.64,0,0,0,179,86.3V94h-3.2Z"/><path d="M202,92.58a8.08,8.08,0,0,0,.09,1.4h-1.33l-.11-.64h0a2.16,2.16,0,0,1-1.73.78A1.74,1.74,0,0,1,197,92.38c0-1.47,1.31-2.22,3.47-2.21v-.1c0-.38-.15-1-1.19-1a3.14,3.14,0,0,0-1.57.43l-.29-1a4.3,4.3,0,0,1,2.12-.51A2.19,2.19,0,0,1,202,90.48Zm-1.44-1.45c-1.05,0-2,.2-2,1.09a.77.77,0,0,0,.84.84,1.2,1.2,0,0,0,1.16-.8.93.93,0,0,0,0-.33Z"/><path d="M203.55,89.88c0-.67,0-1.24-.05-1.74h1.28l.08.88h0a2.15,2.15,0,0,1,1.87-1c1,0,2.08.66,2.08,2.51V94h-1.48v-3.3c0-.84-.31-1.47-1.11-1.47a1.23,1.23,0,0,0-1.15.86,1.32,1.32,0,0,0-.08.47V94h-1.47Z"/><path d="M215.8,85.45v6.89c0,.6,0,1.25,0,1.64h-1.31l-.07-.92h0a2.09,2.09,0,0,1-1.89,1.06c-1.41,0-2.51-1.19-2.51-3,0-2,1.21-3.12,2.62-3.12a1.86,1.86,0,0,1,1.64.75h0V85.45Zm-1.48,5.13a2.69,2.69,0,0,0,0-.4,1.31,1.31,0,0,0-1.28-1c-.94,0-1.47.84-1.47,1.92s.53,1.86,1.46,1.86a1.3,1.3,0,0,0,1.27-1.05,1.45,1.45,0,0,0,0-.43Z"/><path d="M218.48,76h3.28V91.24h7.39V94H218.48Z"/><path d="M232.59,79.13a1.78,1.78,0,1,1,0-3.55,1.78,1.78,0,1,1,0,3.55ZM231,94V81h3.28V94Z"/><path d="M236.72,75H240v7.76h.06a4.7,4.7,0,0,1,4.15-2.08c3.18,0,5.44,2.64,5.42,6.59,0,4.67-3,7-5.9,7a4.47,4.47,0,0,1-4.1-2.24h0L239.42,94h-2.8c0-.88.1-2.32.1-3.62ZM240,88.62a3.89,3.89,0,0,0,.08.78A3,3,0,0,0,243,91.69c2,0,3.3-1.63,3.3-4.27,0-2.29-1.09-4.16-3.28-4.16a3,3,0,0,0-2.9,2.4,4.19,4.19,0,0,0-.11.86Z"/><path d="M251.79,85.18c0-1.76,0-3-.11-4.18h2.83l.13,2.45h.08a3.89,3.89,0,0,1,3.57-2.75,3.74,3.74,0,0,1,.78.08v3.07a5.66,5.66,0,0,0-1-.08,2.88,2.88,0,0,0-2.93,2.48,5.09,5.09,0,0,0-.08,1V94h-3.28Z"/><path d="M270.83,90.86A17.5,17.5,0,0,0,271,94h-3l-.24-1.44h-.08a4.72,4.72,0,0,1-3.84,1.74,3.86,3.86,0,0,1-4.08-3.87c0-3.25,2.91-4.93,7.71-4.91v-.21c0-.85-.35-2.27-2.64-2.27a6.9,6.9,0,0,0-3.5,1l-.64-2.13a9.32,9.32,0,0,1,4.7-1.15c4.16,0,5.36,2.64,5.36,5.5Zm-3.2-3.22c-2.32,0-4.54.45-4.54,2.42A1.73,1.73,0,0,0,265,91.93a2.69,2.69,0,0,0,2.59-1.79,2.21,2.21,0,0,0,.08-.72Z"/><path d="M273.23,85.18c0-1.76,0-3-.11-4.18h2.82l.14,2.45h.08a3.89,3.89,0,0,1,3.57-2.75,3.57,3.57,0,0,1,.77.08v3.07a5.46,5.46,0,0,0-1-.08,2.9,2.9,0,0,0-2.94,2.48,6,6,0,0,0-.08,1V94h-3.27Z"/><path d="M284.85,81l2.32,7c.27.8.56,1.78.75,2.5H288c.18-.72.42-1.7.69-2.53l2-6.93h3.49L291,89.85c-1.79,4.85-3,7-4.51,8.35A7,7,0,0,1,283,99.85l-.75-2.75a5.48,5.48,0,0,0,1.9-.9A5.79,5.79,0,0,0,286,94.14a1.55,1.55,0,0,0,.19-.58,1.68,1.68,0,0,0-.16-.64L281.22,81Z"/><path d="M124.55,76.77a5.7,5.7,0,0,0-1,0l-.1-.11c0-.83,0-1.56,0-2.15,0-.36,0-4.64-.13-7l.13-.12a8.66,8.66,0,0,0,1,0l.11.12v.38c0,.78,0,1.54,0,2.32,0,2.53,0,4.51.1,6.49Z"/><path d="M134.46,76.77l-.5,0-.82,0-.13-.07c-.46-.71-.87-1.42-1.3-2.13l-3.57-6.1,0,1.8c0,4.28.05,4.76.1,6.36l-.1.12c-.36,0-.5,0-.87,0l-.1-.11c0-.26,0-6,0-7.29,0-.3,0-1.79,0-1.89l.11-.12,1.31,0,.14.09c.42.64.52.81,1.39,2.28.55,1,1.11,1.89,1.68,2.83l1.8,3.1V73.88c0-1.53,0-4.48-.12-6.38l.11-.12c.41,0,.45,0,.83,0l.12.1c0,.82,0,1.53,0,2.12,0,2.41,0,4.82.12,7.09Z"/><path d="M136.71,75.09a2.69,2.69,0,0,0,2.19,1c1.25,0,2.18-.71,2.18-1.78A1.62,1.62,0,0,0,140,72.85c-.26-.14-1.54-.71-1.82-.86a2.55,2.55,0,0,1-1.78-2.31c0-1.26,1-2.48,3.05-2.48a4.84,4.84,0,0,1,2.42.66l0,.12c-.07.4-.07.44-.12.82l-.15.07a3,3,0,0,0-2.12-.8c-1.94,0-2,1.3-2,1.59,0,.77.64,1.15,1.47,1.53l1,.43c.9.38,2.27,1,2.27,2.65C142.19,75.75,141,77,139,77a4.5,4.5,0,0,1-2.51-.73l-.05-.15a3.15,3.15,0,0,1,.09-.42c0-.17.05-.35.07-.52Z"/><path d="M146.92,76.75l-1,0-.11-.11c0-1,0-1.85,0-2.8,0-1.2,0-4.65,0-5.62-.61,0-2.17,0-2.82,0l-.11-.12c0-.28,0-.38,0-.76l.14-.09,1.48,0h3.12c1.1,0,1.66,0,2,0l.12.11c0,.29,0,.46-.07.78l-.12.08-1.48,0-1.23,0c0,.4,0,.82,0,1.22,0,.86,0,1.75,0,2.63s0,1.79,0,2.67c0,.28.06,1.59.06,1.89Z"/><path d="M152.31,76.77a5.61,5.61,0,0,0-1,0l-.11-.11c0-.83,0-1.56,0-2.15,0-.36,0-4.64-.12-7l.12-.12a8.79,8.79,0,0,0,1,0l.1.12v.38c0,.78,0,1.54,0,2.32,0,2.53.06,4.51.11,6.49Z"/><path d="M157.74,76.75l-1,0-.1-.11c0-1,0-1.85,0-2.8,0-1.2,0-4.65,0-5.62-.61,0-2.17,0-2.83,0l-.1-.12c0-.28,0-.38.05-.76l.14-.09,1.47,0h3.12c1.11,0,1.66,0,2,0l.12.11c0,.29,0,.46-.07.78l-.12.08-1.47,0-1.23,0c0,.4,0,.82,0,1.22,0,.86,0,1.75,0,2.63s0,1.79,0,2.67c0,.28.05,1.59.05,1.89Z"/><path d="M168.93,67.46v.21c0,1.65,0,1.84,0,3.4V72.8a6,6,0,0,1-.35,2.41A3.29,3.29,0,0,1,165.38,77a3.66,3.66,0,0,1-2.18-.62C162,75.47,162,74.05,162,73v-.78c0-1,0-3.76,0-4.71l.11-.12c.5,0,.52,0,1,0l.1.1c0,1.67-.08,3.31-.08,5s0,2.48.65,3.06a2.54,2.54,0,0,0,1.72.54A2.18,2.18,0,0,0,167.6,75a6.44,6.44,0,0,0,.31-2.74c0-1.58,0-3.15-.07-4.73l.11-.1c.41,0,.48,0,.88,0Z"/><path d="M174.34,76.75l-1,0-.1-.11c0-1,0-1.85,0-2.8,0-1.2,0-4.65,0-5.62-.61,0-2.17,0-2.83,0l-.1-.12c0-.28,0-.38.05-.76l.14-.09,1.47,0h3.12c1.11,0,1.67,0,2,0l.13.11a6.28,6.28,0,0,0-.07.78l-.12.08-1.48,0-1.23,0c0,.4,0,.82,0,1.22,0,.86,0,1.75,0,2.63s0,1.79,0,2.67c0,.28.06,1.59.06,1.89Z"/><path d="M183.91,76.77h-4l-1.18,0-.1-.12v-.36c0-.56,0-1.13,0-1.68,0-2.34,0-4.86-.13-7.2l.13-.1c.36,0,.67,0,1,0H182c.78,0,1.37,0,1.9,0l.13.11c0,.34,0,.43-.06.76l-.12.1c-.69,0-1,0-3.53,0l-.64,0c0,1,0,2.2,0,3.21h1.18c.43,0,.88,0,1.32,0,.9,0,1,0,1.54,0l.09.11a4.47,4.47,0,0,0,0,.73l-.12.08c-.62,0-1,0-2.82,0h-1.13c0,.62,0,3.31,0,3.57h1c1.23,0,1.42,0,3.21-.06l.08.13a5.47,5.47,0,0,0,0,.72Z"/><path d="M191.29,76.91a2.12,2.12,0,0,1-2.36-2.35c0-1.4.7-4.08,3.4-4.08a2.14,2.14,0,0,1,2.33,2.35,4.6,4.6,0,0,1-.2,1.26A3.36,3.36,0,0,1,191.29,76.91Zm2.59-4.14a1.52,1.52,0,0,0-1.57-1.69c-2.26,0-2.61,2.88-2.61,3.51a1.54,1.54,0,0,0,1.62,1.71,1.84,1.84,0,0,0,1.26-.41,3.78,3.78,0,0,0,1.15-2.11A3.86,3.86,0,0,0,193.88,72.77Z"/><path d="M197.58,71.23c-.6,2.6-.73,3.21-1.14,5.46l-.09.08-.67,0-.08-.07.57-2.52.65-3-.9,0-.08-.07.14-.52.09-.07.88,0,.18-.88a7,7,0,0,1,.3-1.18,1.56,1.56,0,0,1,1.65-1.13,4,4,0,0,1,.65.07l.07.1-.12.52-.09.07a1.9,1.9,0,0,0-.53-.09,1,1,0,0,0-.64.23c-.24.23-.32.55-.56,1.53l-.16.76,1.19,0,.07.1-.15.44-.09.1Z"/><path d="M218.59,106a2.64,2.64,0,0,0,2.18,1c1.25,0,2.18-.72,2.18-1.79a1.6,1.6,0,0,0-1.09-1.47c-.26-.14-1.54-.71-1.82-.87a2.54,2.54,0,0,1-1.78-2.3c0-1.27,1-2.48,3.05-2.48a4.71,4.71,0,0,1,2.42.66l.06.12c-.07.4-.07.43-.13.81l-.15.07a3,3,0,0,0-2.12-.8c-1.94,0-2,1.3-2,1.6,0,.76.64,1.14,1.47,1.52l1,.44c.9.38,2.27,1,2.27,2.65,0,1.47-1.19,2.68-3.2,2.68a4.53,4.53,0,0,1-2.52-.72l-.05-.16a3.15,3.15,0,0,1,.09-.42c0-.17.05-.34.07-.52Z"/><path d="M232,107.72h-4l-1.18.06-.1-.13v-.36c0-.55,0-1.13,0-1.68,0-2.34,0-4.85-.13-7.19l.13-.11c.36,0,.67,0,1,0h2.34c.78,0,1.37,0,1.9,0l.13.1c0,.35,0,.43-.06.76l-.12.11c-.69,0-1,0-3.53-.06h-.64c0,1,0,2.2,0,3.2h2.5c.9,0,1,0,1.54,0l.09.1a4.47,4.47,0,0,0,0,.73l-.12.09c-.62,0-1,0-2.82,0h-1.13c0,.62,0,3.31.05,3.57h1c1.23,0,1.42,0,3.21,0l.08.12a5.62,5.62,0,0,0,0,.73Z"/><path d="M234.84,98.36l2.71,0a5.18,5.18,0,0,1,2,.29,2.37,2.37,0,0,1,1.37,2.19,2.75,2.75,0,0,1-2.67,2.62l.9,1.1,2.52,3.06-.07.13h-.75l-.48,0-.14-.07c-.26-.34-.54-.69-.8-1s-.74-.92-1.11-1.37L237,103.55h-1.05c0,1.36,0,2.71.08,4.06l-.1.1c-.44,0-.54,0-1,0l-.1-.1c0-.71,0-1.44,0-2.15,0-2.34,0-4.68-.12-7Zm3.61,4.16a1.68,1.68,0,0,0,1.38-1.68,1.54,1.54,0,0,0-.5-1.21,3.07,3.07,0,0,0-2.06-.43c-.38,0-.9,0-1.35,0v3.47A8.83,8.83,0,0,0,238.45,102.52Z"/><path d="M247.13,107.72c-.6,0-.74,0-1.26,0l-.12-.1c-.28-.78-.68-2.07-.94-2.86l-1.14-3.52c-.16-.47-.32-.94-.47-1.4s-.33-1-.45-1.37l.07-.13,1.07-.06.12.08c.33,1.27.63,2.17,1,3.42l1.56,4.94,1.87-5.91c.28-.89.33-1,.73-2.43l.12-.09a7.53,7.53,0,0,0,.95,0l.09.12c-.23.65-.31.89-1.09,3.14l-1.06,3.16c-.4,1.19-.45,1.36-.95,2.89Z"/><path d="M253.54,107.72a8.43,8.43,0,0,0-1,0l-.1-.1c0-.83,0-1.56,0-2.15,0-.37,0-4.65-.12-7l.12-.12a5.8,5.8,0,0,0,1,0l.1.12v.39c0,.78,0,1.54,0,2.32,0,2.53.06,4.5.11,6.48Z"/><path d="M263.68,106.09c-.05.47-.05.56-.07,1l-.07.14a4.07,4.07,0,0,1-2.6.72,4.37,4.37,0,0,1-3.11-1.12,4.93,4.93,0,0,1-1.48-3.71c0-2.67,1.65-4.94,4.7-4.94a4.69,4.69,0,0,1,2.44.62l.09.12a6.21,6.21,0,0,0-.14.8l-.14.09a3.75,3.75,0,0,0-2.25-.73c-2.46,0-3.55,2-3.55,4s1.16,4,3.6,4a3.32,3.32,0,0,0,2.44-1Z"/><path d="M271.73,107.72h-4l-1.18.06-.11-.13v-.36c0-.55,0-1.13,0-1.68,0-2.34,0-4.85-.12-7.19l.12-.11c.37,0,.68,0,1,0h2.34c.78,0,1.37,0,1.91,0l.12.1c0,.35,0,.43-.05.76l-.12.11c-.69,0-1,0-3.54-.06h-.64c0,1,0,2.2,0,3.2H270c.91,0,1,0,1.55,0l.08.1a5.94,5.94,0,0,0,0,.73l-.12.09c-.63,0-1,0-2.83,0H267.5c0,.62,0,3.31.05,3.57h1c1.23,0,1.42,0,3.2,0l.09.12a5.62,5.62,0,0,0,0,.73Z"/><path d="M274.12,106a2.64,2.64,0,0,0,2.18,1c1.25,0,2.18-.72,2.18-1.79a1.6,1.6,0,0,0-1.09-1.47c-.26-.14-1.54-.71-1.82-.87a2.54,2.54,0,0,1-1.78-2.3c0-1.27,1-2.48,3-2.48a4.71,4.71,0,0,1,2.42.66l.06.12c-.07.4-.07.43-.12.81l-.16.07a3,3,0,0,0-2.12-.8c-1.94,0-2,1.3-2,1.6,0,.76.64,1.14,1.47,1.52l1,.44c.9.38,2.27,1,2.27,2.65,0,1.47-1.19,2.68-3.2,2.68a4.53,4.53,0,0,1-2.52-.72l-.05-.16a3.15,3.15,0,0,1,.09-.42c0-.17,0-.34.07-.52Z"/><path class="cls-2" d="M333.26,55.17h8.15v1.62h-3.22V67.07h-1.7V56.79h-3.23Z"/><path class="cls-2" d="M344.73,59.78a3.59,3.59,0,0,1,2.35-.87,3.66,3.66,0,0,1,2.9,1.41,4.27,4.27,0,0,1,.78,2.84v3.91h-1.61v-4a2.72,2.72,0,0,0-.48-1.86,2.1,2.1,0,0,0-1.64-.78,3,3,0,0,0-2.3,1.14v5.49h-1.61V55h1.61Z"/><path class="cls-2" d="M354.28,55.17a1.06,1.06,0,0,1,1.07,1.07,1.05,1.05,0,0,1-1.07,1.06,1,1,0,0,1-1-1.06A1.05,1.05,0,0,1,354.28,55.17Zm-.8,3.91h1.62v8h-1.62Z"/><path class="cls-2" d="M358.06,64.94a3.88,3.88,0,0,0,2.36.89c.7,0,1.39-.37,1.39-1,0-.92-1.32-1-2.49-1.36-1-.33-1.84-.94-1.84-2.06,0-1.72,1.53-2.5,3-2.5a4.06,4.06,0,0,1,2.65.88L362.26,61a2.88,2.88,0,0,0-1.72-.63c-.78,0-1.45.38-1.45,1s.63.74,1.43.94c1.26.32,2.91.88,2.91,2.53s-1.41,2.45-3,2.45a5,5,0,0,1-3.24-1.11Z"/><path class="cls-2" d="M371.93,71.15h-1.62V59.08h1.57v.73a3.74,3.74,0,0,1,2.5-.9,3.82,3.82,0,0,1,1.95.51,4.22,4.22,0,0,1,2.06,3.66,4.16,4.16,0,0,1-2,3.63,4,4,0,0,1-2,.53,3.6,3.6,0,0,1-2.41-.87Zm0-6.58a2.77,2.77,0,0,0,2.19,1.14,2.61,2.61,0,0,0,2.65-2.63,2.56,2.56,0,0,0-2.56-2.64,2.87,2.87,0,0,0-2.28,1.14Z"/><path class="cls-2" d="M385,60.51a2.33,2.33,0,0,0-.63-.07,2.7,2.7,0,0,0-2.16,1.34v5.29H380.6v-8h1.56V60a2.92,2.92,0,0,1,2.4-1.09,4.7,4.7,0,0,1,.63.05Z"/><path class="cls-2" d="M390.25,58.91a4.17,4.17,0,1,1-4.13,4.17A4.06,4.06,0,0,1,390.25,58.91Zm0,6.8a2.64,2.64,0,1,0-2.51-2.63A2.52,2.52,0,0,0,390.25,65.71Z"/><path class="cls-2" d="M396.94,59.08h1.61v8.67A3.71,3.71,0,0,1,398,70a3.12,3.12,0,0,1-2.62,1.33,3.61,3.61,0,0,1-.95-.12l.34-1.48a2.35,2.35,0,0,0,.6.07,1.55,1.55,0,0,0,1.22-.56,2.29,2.29,0,0,0,.31-1.43Zm.8-3.91a1.07,1.07,0,0,1,1.07,1.07,1.06,1.06,0,0,1-1.07,1.06,1,1,0,0,1-1.06-1.06A1.06,1.06,0,0,1,397.74,55.17Z"/><path class="cls-2" d="M402.33,63.42a2.56,2.56,0,0,0,2.58,2.41,2.87,2.87,0,0,0,2.29-1.09l1.06,1a4.19,4.19,0,0,1-3.37,1.5,4.06,4.06,0,0,1-4.13-4.16,3.88,3.88,0,1,1,7.74,0,2.61,2.61,0,0,1,0,.34Zm.13-1.36h4.35a2.23,2.23,0,0,0-2.1-1.74A2.33,2.33,0,0,0,402.46,62.06Z"/><path class="cls-2" d="M417.85,65.37a4.27,4.27,0,0,1-3.56,1.87A4.11,4.11,0,0,1,410,63.08a4.06,4.06,0,0,1,4.16-4.17,4.24,4.24,0,0,1,3.4,1.73l-1.19,1a2.74,2.74,0,0,0-2.21-1.21,2.64,2.64,0,0,0,.1,5.27,2.82,2.82,0,0,0,2.31-1.24Z"/><path class="cls-2" d="M424.65,67.07a4.52,4.52,0,0,1-1.26.17,2.87,2.87,0,0,1-2.26-.94,3,3,0,0,1-.65-2.12V60.53h-2V59.08h2V56.87h1.62v2.21h2.55v1.45H422.1v3.74a1.54,1.54,0,0,0,.23,1,1.46,1.46,0,0,0,1.11.43,3.77,3.77,0,0,0,.88-.1Z"/><path class="cls-2" d="M437,59.08l2.2,5.46,2.19-5.46h1.67l-3.25,8h-1.12l-2.25-5.61-2.24,5.61h-1.12l-3.25-8h1.67l2.19,5.46,2.19-5.46Z"/><path class="cls-2" d="M450.42,66.34a3.68,3.68,0,0,1-2.47.9,4,4,0,0,1-2-.53,4.16,4.16,0,0,1-2-3.63,4.23,4.23,0,0,1,2-3.66,3.86,3.86,0,0,1,2-.51,3.74,3.74,0,0,1,2.5.9v-.73H452v8h-1.56Zm-.05-4.76a2.88,2.88,0,0,0-2.28-1.14,2.56,2.56,0,0,0-2.57,2.64,2.61,2.61,0,0,0,2.65,2.63,2.79,2.79,0,0,0,2.2-1.14Z"/><path class="cls-2" d="M454.94,64.94a3.88,3.88,0,0,0,2.36.89c.7,0,1.4-.37,1.4-1,0-.92-1.33-1-2.5-1.36-1-.33-1.84-.94-1.84-2.06,0-1.72,1.53-2.5,3-2.5a4.06,4.06,0,0,1,2.65.88L459.14,61a2.85,2.85,0,0,0-1.72-.63c-.78,0-1.44.38-1.44,1s.63.74,1.42.94c1.26.32,2.91.88,2.91,2.53s-1.41,2.45-3,2.45a4.94,4.94,0,0,1-3.23-1.11Z"/><path class="cls-2" d="M468.76,59.08v.77a3.46,3.46,0,0,1,2.35-.94,3.63,3.63,0,0,1,2.82,1.33,4,4,0,0,1,3-1.33,3.62,3.62,0,0,1,2.84,1.34,4.1,4.1,0,0,1,.73,2.74v4.08h-1.61V62.74a2.26,2.26,0,0,0-.46-1.6,2,2,0,0,0-1.5-.7,3.29,3.29,0,0,0-2.43,1.14,6.91,6.91,0,0,1,.14,1.41v4.08h-1.62V62.74a2.26,2.26,0,0,0-.46-1.6,2,2,0,0,0-1.55-.7,3.06,3.06,0,0,0-2.24,1.14v5.49H467.2v-8Z"/><path class="cls-2" d="M489.09,66.34a3.63,3.63,0,0,1-2.46.9,4,4,0,0,1-2-.53,4.16,4.16,0,0,1-2-3.63,4.22,4.22,0,0,1,2.06-3.66,3.82,3.82,0,0,1,1.95-.51,3.74,3.74,0,0,1,2.5.9v-.73h1.57v8h-1.57Zm0-4.76a2.87,2.87,0,0,0-2.28-1.14,2.56,2.56,0,0,0-2.56,2.64,2.61,2.61,0,0,0,2.65,2.63A2.77,2.77,0,0,0,489,64.57Z"/><path class="cls-2" d="M499.38,66.34a3.68,3.68,0,0,1-2.47.9,4,4,0,0,1-2-.53,4.16,4.16,0,0,1-2-3.63,4.23,4.23,0,0,1,2.05-3.66,3.86,3.86,0,0,1,2-.51,3.77,3.77,0,0,1,2.45.87V55h1.61V67.07h-1.56Zm-.05-4.76a2.88,2.88,0,0,0-2.28-1.14,2.56,2.56,0,0,0-2.57,2.64,2.61,2.61,0,0,0,2.65,2.63,2.79,2.79,0,0,0,2.2-1.14Z"/><path class="cls-2" d="M504.71,63.42a2.59,2.59,0,0,0,2.59,2.41,2.87,2.87,0,0,0,2.29-1.09l1.06,1a4.19,4.19,0,0,1-3.37,1.5,4.06,4.06,0,0,1-4.13-4.16,3.88,3.88,0,1,1,7.74,0,2.61,2.61,0,0,1,0,.34Zm.14-1.36h4.35a2.23,2.23,0,0,0-2.11-1.74A2.32,2.32,0,0,0,504.85,62.06Z"/><path class="cls-2" d="M519.3,71.15h-1.61V59.08h1.56v.73a3.74,3.74,0,0,1,2.5-.9,3.79,3.79,0,0,1,2,.51,4.22,4.22,0,0,1,2.06,3.66,4.16,4.16,0,0,1-2,3.63,4,4,0,0,1-2,.53,3.6,3.6,0,0,1-2.41-.87Zm0-6.58a2.77,2.77,0,0,0,2.19,1.14,2.61,2.61,0,0,0,2.66-2.63,2.57,2.57,0,0,0-2.57-2.64,2.87,2.87,0,0,0-2.28,1.14Z"/><path class="cls-2" d="M531.42,58.91a4.17,4.17,0,1,1-4.13,4.17A4.05,4.05,0,0,1,531.42,58.91Zm0,6.8a2.64,2.64,0,1,0-2.51-2.63A2.52,2.52,0,0,0,531.42,65.71Z"/><path class="cls-2" d="M537.83,64.94a3.88,3.88,0,0,0,2.36.89c.7,0,1.4-.37,1.4-1,0-.92-1.33-1-2.5-1.36-1-.33-1.84-.94-1.84-2.06,0-1.72,1.53-2.5,3-2.5a4.06,4.06,0,0,1,2.65.88L542,61a2.85,2.85,0,0,0-1.72-.63c-.78,0-1.44.38-1.44,1s.63.74,1.42.94c1.26.32,2.91.88,2.91,2.53s-1.41,2.45-3,2.45A4.94,4.94,0,0,1,537,66.13Z"/><path class="cls-2" d="M545.57,64.94a3.86,3.86,0,0,0,2.36.89c.69,0,1.39-.37,1.39-1,0-.92-1.32-1-2.5-1.36-1-.33-1.83-.94-1.83-2.06,0-1.72,1.53-2.5,3-2.5a4.06,4.06,0,0,1,2.65.88L549.76,61a2.85,2.85,0,0,0-1.71-.63c-.78,0-1.45.38-1.45,1s.63.74,1.43.94c1.26.32,2.91.88,2.91,2.53s-1.41,2.45-3,2.45a5,5,0,0,1-3.23-1.11Z"/><path class="cls-2" d="M554,55.17a1.06,1.06,0,0,1,1.07,1.07A1.05,1.05,0,0,1,554,57.3a1,1,0,0,1-1-1.06A1.05,1.05,0,0,1,554,55.17Zm-.8,3.91h1.62v8h-1.62Z"/><path class="cls-2" d="M559.3,67.07h-1.56V55h1.61v4.78a3.93,3.93,0,0,1,4.4-.36,4.22,4.22,0,0,1,2.06,3.66,4.16,4.16,0,0,1-2,3.63,4,4,0,0,1-2,.53,3.66,3.66,0,0,1-2.47-.9Zm.05-2.5a2.79,2.79,0,0,0,2.19,1.14,2.61,2.61,0,0,0,2.66-2.63,2.56,2.56,0,0,0-2.57-2.64,2.88,2.88,0,0,0-2.28,1.14Z"/><path class="cls-2" d="M568,55h1.62V67.07H568Z"/><path class="cls-2" d="M573.41,63.42A2.58,2.58,0,0,0,576,65.83a2.89,2.89,0,0,0,2.29-1.09l1.05,1a4.16,4.16,0,0,1-3.36,1.5,4.06,4.06,0,0,1-4.13-4.16,3.88,3.88,0,1,1,7.73,0,2.61,2.61,0,0,1,0,.34Zm.14-1.36h4.35a2.24,2.24,0,0,0-2.11-1.74A2.32,2.32,0,0,0,573.55,62.06Z"/><path class="cls-2" d="M587.18,55.17a1.06,1.06,0,0,1,1.07,1.07,1.05,1.05,0,0,1-1.07,1.06,1,1,0,0,1-1-1.06A1.05,1.05,0,0,1,587.18,55.17Zm-.8,3.91H588v8h-1.62Z"/><path class="cls-2" d="M592.45,59.85a3.46,3.46,0,0,1,2.4-.94,3.66,3.66,0,0,1,2.9,1.41,4.26,4.26,0,0,1,.79,2.84v3.91h-1.62v-4a2.78,2.78,0,0,0-.47-1.86,2.14,2.14,0,0,0-1.65-.78,3,3,0,0,0-2.3,1.14v5.49h-1.61v-8h1.56Z"/><path class="cls-2" d="M607.46,71.15h-1.61V59.08h1.56v.73a3.74,3.74,0,0,1,2.5-.9,3.79,3.79,0,0,1,2,.51,4.22,4.22,0,0,1,2.06,3.66,4.16,4.16,0,0,1-2,3.63,4,4,0,0,1-2,.53,3.6,3.6,0,0,1-2.42-.87Zm0-6.58a2.79,2.79,0,0,0,2.19,1.14,2.61,2.61,0,0,0,2.66-2.63,2.56,2.56,0,0,0-2.57-2.64,2.87,2.87,0,0,0-2.28,1.14Z"/><path class="cls-2" d="M622,66.34a3.63,3.63,0,0,1-2.46.9,4,4,0,0,1-2-.53,4.16,4.16,0,0,1-2-3.63,4.22,4.22,0,0,1,2.06-3.66,3.79,3.79,0,0,1,2-.51,3.74,3.74,0,0,1,2.5.9v-.73h1.57v8H622Zm-.05-4.76a2.87,2.87,0,0,0-2.28-1.14,2.56,2.56,0,0,0-2.56,2.64,2.61,2.61,0,0,0,2.65,2.63,2.77,2.77,0,0,0,2.19-1.14Z"/><path class="cls-2" d="M630.82,60.51a2.33,2.33,0,0,0-.63-.07A2.69,2.69,0,0,0,628,61.78v5.29h-1.61v-8H628V60a2.91,2.91,0,0,1,2.4-1.09A4.7,4.7,0,0,1,631,59Z"/><path class="cls-2" d="M638.4,67.07a4.52,4.52,0,0,1-1.26.17,2.88,2.88,0,0,1-2.26-.94,3.06,3.06,0,0,1-.64-2.12V60.53h-2V59.08h2V56.87h1.61v2.21h2.55v1.45h-2.55v3.74a1.48,1.48,0,0,0,.24,1,1.45,1.45,0,0,0,1.1.43,3.86,3.86,0,0,0,.89-.1Z"/><path class="cls-2" d="M646.59,67.07H645V55h1.62v4.78a3.75,3.75,0,0,1,2.44-.87,3.86,3.86,0,0,1,2,.51,4.27,4.27,0,0,1,0,7.29,4.07,4.07,0,0,1-2,.53,3.68,3.68,0,0,1-2.47-.9Zm.06-2.5a2.76,2.76,0,0,0,2.19,1.14,2.61,2.61,0,0,0,2.65-2.63,2.56,2.56,0,0,0-2.57-2.64,2.86,2.86,0,0,0-2.27,1.14Z"/><path class="cls-2" d="M655.13,71.15l2.16-4.91-3.42-7.16h1.74l2.49,5.27,2.3-5.27h1.7l-5.25,12.07Z"/><path class="cls-2" d="M673,67.07a4.52,4.52,0,0,1-1.26.17,2.88,2.88,0,0,1-2.26-.94,3,3,0,0,1-.65-2.12V60.53h-2V59.08h2V56.87h1.62v2.21H673v1.45h-2.55v3.74a1.48,1.48,0,0,0,.24,1,1.45,1.45,0,0,0,1.1.43,3.86,3.86,0,0,0,.89-.1Z"/><path class="cls-2" d="M676.8,59.78a3.61,3.61,0,0,1,2.35-.87,3.68,3.68,0,0,1,2.91,1.41,4.27,4.27,0,0,1,.78,2.84v3.91h-1.62v-4a2.72,2.72,0,0,0-.47-1.86,2.14,2.14,0,0,0-1.65-.78,3,3,0,0,0-2.3,1.14v5.49h-1.61V55h1.61Z"/><path class="cls-2" d="M686.44,63.42A2.58,2.58,0,0,0,689,65.83a2.87,2.87,0,0,0,2.29-1.09l1.06,1a4.19,4.19,0,0,1-3.37,1.5,4.06,4.06,0,0,1-4.13-4.16,3.88,3.88,0,1,1,7.73,0c0,.06,0,.18,0,.34Zm.14-1.36h4.35a2.24,2.24,0,0,0-2.11-1.74A2.32,2.32,0,0,0,686.58,62.06Z"/><path class="cls-2" d="M699.5,55.17h1.7v11.9h-1.7Z"/><path class="cls-2" d="M705.74,59.85a3.44,3.44,0,0,1,2.39-.94A3.67,3.67,0,0,1,711,60.32a4.27,4.27,0,0,1,.78,2.84v3.91h-1.61v-4a2.72,2.72,0,0,0-.48-1.86,2.11,2.11,0,0,0-1.65-.78,2.94,2.94,0,0,0-2.29,1.14v5.49h-1.62v-8h1.57Z"/><path class="cls-2" d="M714.61,64.94a3.88,3.88,0,0,0,2.36.89c.7,0,1.4-.37,1.4-1,0-.92-1.33-1-2.5-1.36-1-.33-1.84-.94-1.84-2.06,0-1.72,1.53-2.5,3-2.5a4.06,4.06,0,0,1,2.65.88L718.81,61a2.85,2.85,0,0,0-1.72-.63c-.78,0-1.44.38-1.44,1s.63.74,1.43.94c1.25.32,2.9.88,2.9,2.53s-1.41,2.45-3,2.45a4.94,4.94,0,0,1-3.23-1.11Z"/><path class="cls-2" d="M727.12,67.07a4.46,4.46,0,0,1-1.26.17,2.88,2.88,0,0,1-2.26-.94,3.06,3.06,0,0,1-.64-2.12V60.53h-2V59.08h2V56.87h1.61v2.21h2.55v1.45h-2.55v3.74a1.54,1.54,0,0,0,.24,1,1.46,1.46,0,0,0,1.11.43,3.83,3.83,0,0,0,.88-.1Z"/><path class="cls-2" d="M730.13,55.17a1.06,1.06,0,0,1,1.07,1.07,1.05,1.05,0,0,1-1.07,1.06,1,1,0,0,1-1-1.06A1.05,1.05,0,0,1,730.13,55.17Zm-.8,3.91H731v8h-1.62Z"/><path class="cls-2" d="M738.77,67.07a4.52,4.52,0,0,1-1.26.17,2.88,2.88,0,0,1-2.26-.94,3,3,0,0,1-.65-2.12V60.53h-2V59.08h2V56.87h1.62v2.21h2.55v1.45h-2.55v3.74a1.48,1.48,0,0,0,.24,1,1.44,1.44,0,0,0,1.1.43,3.71,3.71,0,0,0,.88-.1Z"/><path class="cls-2" d="M741.54,65.9a4,4,0,0,1-.73-2.74V59.08h1.61v4.34a2.25,2.25,0,0,0,.46,1.59,2,2,0,0,0,1.55.7,3.06,3.06,0,0,0,2.24-1.14V59.08h1.62v8h-1.57v-.73a3.58,3.58,0,0,1-2.34.9A3.62,3.62,0,0,1,741.54,65.9Z"/><path class="cls-2" d="M756.11,67.07a4.52,4.52,0,0,1-1.26.17,2.88,2.88,0,0,1-2.26-.94,3,3,0,0,1-.65-2.12V60.53h-2V59.08h2V56.87h1.62v2.21h2.55v1.45h-2.55v3.74a1.54,1.54,0,0,0,.23,1,1.48,1.48,0,0,0,1.11.43,3.71,3.71,0,0,0,.88-.1Z"/><path class="cls-2" d="M759,63.42a2.57,2.57,0,0,0,2.58,2.41,2.86,2.86,0,0,0,2.29-1.09l1.06,1a4.19,4.19,0,0,1-3.37,1.5,4.06,4.06,0,0,1-4.13-4.16,3.88,3.88,0,1,1,7.74,0,2.61,2.61,0,0,1,0,.34Zm.13-1.36h4.35a2.22,2.22,0,0,0-2.1-1.74A2.33,2.33,0,0,0,759.08,62.06Z"/><path class="cls-2" d="M775.37,58.91a4.17,4.17,0,1,1-4.13,4.17A4.05,4.05,0,0,1,775.37,58.91Zm0,6.8a2.64,2.64,0,1,0-2.52-2.63A2.51,2.51,0,0,0,775.37,65.71Z"/><path class="cls-2" d="M786.21,56.43a2.71,2.71,0,0,0-.59-.07,1.59,1.59,0,0,0-1.23.56,2.3,2.3,0,0,0-.3,1.43v.73h2.46v1.45h-2.46v6.54h-1.62V60.53H780.6V59.08h1.87V58.4a3.78,3.78,0,0,1,.51-2.24,3.12,3.12,0,0,1,2.62-1.33,3.61,3.61,0,0,1,.95.12Z"/><path class="cls-2" d="M799.39,64.52H798.2l-3.49-5.46v8H793V55.17h1.19l4.59,7.26,4.59-7.26h1.19v11.9h-1.7v-8Z"/><path class="cls-2" d="M808.11,65.9a4.1,4.1,0,0,1-.73-2.74V59.08H809v4.34a2.25,2.25,0,0,0,.46,1.59,2,2,0,0,0,1.55.7,3,3,0,0,0,2.24-1.14V59.08h1.62v8h-1.57v-.73a3.58,3.58,0,0,1-2.34.9A3.62,3.62,0,0,1,808.11,65.9Z"/><path class="cls-2" d="M817.82,64.94a3.86,3.86,0,0,0,2.36.89c.7,0,1.39-.37,1.39-1,0-.92-1.32-1-2.5-1.36-1-.33-1.83-.94-1.83-2.06,0-1.72,1.53-2.5,3-2.5a4.06,4.06,0,0,1,2.65.88L822,61a2.9,2.9,0,0,0-1.72-.63c-.78,0-1.45.38-1.45,1s.63.74,1.43.94c1.26.32,2.91.88,2.91,2.53s-1.41,2.45-3,2.45A5,5,0,0,1,817,66.13Z"/><path class="cls-2" d="M826.37,63.42A2.57,2.57,0,0,0,829,65.83a2.89,2.89,0,0,0,2.3-1.09l1,1a4.16,4.16,0,0,1-3.37,1.5,4.06,4.06,0,0,1-4.13-4.16,3.88,3.88,0,1,1,7.74,0,2.61,2.61,0,0,1,0,.34Zm.13-1.36h4.36a2.24,2.24,0,0,0-2.11-1.74A2.34,2.34,0,0,0,826.5,62.06Z"/><path class="cls-2" d="M835.31,65.9a4.1,4.1,0,0,1-.73-2.74V59.08h1.61v4.34a2.25,2.25,0,0,0,.46,1.59,2,2,0,0,0,1.55.7,3,3,0,0,0,2.24-1.14V59.08h1.62v8h-1.57v-.73a3.58,3.58,0,0,1-2.34.9A3.62,3.62,0,0,1,835.31,65.9Z"/><path class="cls-2" d="M846.51,59.08v.77a3.46,3.46,0,0,1,2.35-.94,3.62,3.62,0,0,1,2.82,1.33,4,4,0,0,1,3-1.33,3.62,3.62,0,0,1,2.84,1.34,4.1,4.1,0,0,1,.73,2.74v4.08h-1.61V62.74a2.26,2.26,0,0,0-.46-1.6,2,2,0,0,0-1.5-.7,3.31,3.31,0,0,0-2.43,1.14,6.27,6.27,0,0,1,.14,1.41v4.08h-1.62V62.74a2.26,2.26,0,0,0-.46-1.6,2,2,0,0,0-1.54-.7,3.06,3.06,0,0,0-2.25,1.14v5.49H845v-8Z"/><path class="cls-2" d="M871.43,66.34a3.63,3.63,0,0,1-2.46.9,4,4,0,0,1-2-.53,4.27,4.27,0,0,1,0-7.29,3.82,3.82,0,0,1,1.95-.51,3.72,3.72,0,0,1,2.5.9v-.73H873v8h-1.57Zm0-4.76a2.87,2.87,0,0,0-2.28-1.14,2.56,2.56,0,0,0-2.56,2.64,2.61,2.61,0,0,0,2.65,2.63,2.76,2.76,0,0,0,2.19-1.14Z"/><path class="cls-2" d="M877.45,59.85a3.46,3.46,0,0,1,2.4-.94,3.68,3.68,0,0,1,2.91,1.41,4.27,4.27,0,0,1,.78,2.84v3.91h-1.62v-4a2.72,2.72,0,0,0-.47-1.86,2.14,2.14,0,0,0-1.65-.78,3,3,0,0,0-2.3,1.14v5.49h-1.61v-8h1.56Z"/><path class="cls-2" d="M892.09,66.34a3.66,3.66,0,0,1-2.47.9,4,4,0,0,1-2-.53,4.16,4.16,0,0,1-2-3.63,4.23,4.23,0,0,1,2-3.66,3.86,3.86,0,0,1,2-.51,3.77,3.77,0,0,1,2.45.87V55h1.61V67.07h-1.56ZM892,61.58a2.88,2.88,0,0,0-2.28-1.14,2.56,2.56,0,0,0-2.57,2.64,2.61,2.61,0,0,0,2.65,2.63,2.79,2.79,0,0,0,2.2-1.14Z"/><path class="cls-2" d="M902.92,65.46h5.27v1.61h-7V55.17h1.7Z"/><path class="cls-2" d="M910.77,55.17a1.06,1.06,0,0,1,1.07,1.07,1.05,1.05,0,0,1-1.07,1.06,1,1,0,0,1-1-1.06A1.05,1.05,0,0,1,910.77,55.17Zm-.8,3.91h1.62v8H910Z"/><path class="cls-2" d="M916,67.07h-1.56V55h1.61v4.78a3.77,3.77,0,0,1,2.45-.87,3.86,3.86,0,0,1,2,.51,4.23,4.23,0,0,1,2,3.66,4.16,4.16,0,0,1-2,3.63,4,4,0,0,1-2,.53,3.66,3.66,0,0,1-2.47-.9Zm.05-2.5a2.79,2.79,0,0,0,2.2,1.14,2.61,2.61,0,0,0,2.65-2.63,2.56,2.56,0,0,0-2.57-2.64,2.88,2.88,0,0,0-2.28,1.14Z"/><path class="cls-2" d="M929.17,60.51a2.38,2.38,0,0,0-.63-.07,2.67,2.67,0,0,0-2.16,1.34v5.29h-1.62v-8h1.57V60a2.9,2.9,0,0,1,2.39-1.09,4.58,4.58,0,0,1,.63.05Z"/><path class="cls-2" d="M936.8,66.34a3.66,3.66,0,0,1-2.47.9,4,4,0,0,1-2-.53,4.16,4.16,0,0,1-2-3.63,4.23,4.23,0,0,1,2.05-3.66,3.86,3.86,0,0,1,2-.51,3.74,3.74,0,0,1,2.5.9v-.73h1.56v8H936.8Zm0-4.76a2.88,2.88,0,0,0-2.28-1.14,2.56,2.56,0,0,0-2.57,2.64,2.61,2.61,0,0,0,2.65,2.63,2.79,2.79,0,0,0,2.2-1.14Z"/><path class="cls-2" d="M945.66,60.51a2.38,2.38,0,0,0-.63-.07,2.67,2.67,0,0,0-2.16,1.34v5.29h-1.62v-8h1.57V60a2.9,2.9,0,0,1,2.39-1.09,4.58,4.58,0,0,1,.63.05Z"/><path class="cls-2" d="M948.29,71.15l2.16-4.91L947,59.08h1.74l2.5,5.27,2.29-5.27h1.7L950,71.15Z"/><path class="cls-2" d="M961.28,64.1a3.81,3.81,0,0,0,2.91,1.52,1.91,1.91,0,0,0,2.07-1.78c0-1.82-2.52-2-4.1-3.06a3,3,0,0,1-1.51-2.62,3.36,3.36,0,0,1,3.6-3.16,4.87,4.87,0,0,1,3.2,1.19l-1,1.24a3.3,3.3,0,0,0-2.13-.81,1.77,1.77,0,0,0-2,1.59c0,1.52,2.53,1.84,4.06,2.86A3.15,3.15,0,0,1,968,63.79a3.44,3.44,0,0,1-3.69,3.45,5.31,5.31,0,0,1-4.16-2Z"/><path class="cls-2" d="M971,63.42a2.57,2.57,0,0,0,2.58,2.41,2.89,2.89,0,0,0,2.3-1.09l1,1a4.16,4.16,0,0,1-3.36,1.5,4.06,4.06,0,0,1-4.13-4.16,3.88,3.88,0,1,1,7.73,0,2.61,2.61,0,0,1,0,.34Zm.14-1.36h4.35a2.24,2.24,0,0,0-2.11-1.74A2.32,2.32,0,0,0,971.11,62.06Z"/><path class="cls-2" d="M983.75,60.51a2.28,2.28,0,0,0-.63-.07A2.7,2.7,0,0,0,981,61.78v5.29h-1.61v-8h1.56V60a2.92,2.92,0,0,1,2.4-1.09,4.7,4.7,0,0,1,.63.05Z"/><path class="cls-2" d="M985.3,59.08H987l2.36,5.44,2.36-5.44h1.67l-3.47,8h-1.12Z"/><path class="cls-2" d="M995.77,55.17a1.06,1.06,0,0,1,1.07,1.07,1.05,1.05,0,0,1-1.07,1.06,1,1,0,0,1-1-1.06A1.05,1.05,0,0,1,995.77,55.17Zm-.8,3.91h1.62v8H995Z"/><path class="cls-2" d="M1006.62,65.37a4.25,4.25,0,0,1-3.56,1.87,4.17,4.17,0,1,1-.1-8.33,4.23,4.23,0,0,1,3.4,1.73l-1.19,1a2.74,2.74,0,0,0-2.21-1.21,2.64,2.64,0,0,0,.1,5.27,2.84,2.84,0,0,0,2.32-1.24Z"/><path class="cls-2" d="M1009.37,63.42a2.58,2.58,0,0,0,2.59,2.41,2.89,2.89,0,0,0,2.29-1.09l1,1a4.16,4.16,0,0,1-3.36,1.5,4.06,4.06,0,0,1-4.13-4.16,3.88,3.88,0,1,1,7.73,0,2.61,2.61,0,0,1,0,.34Zm.14-1.36h4.35a2.24,2.24,0,0,0-2.11-1.74A2.32,2.32,0,0,0,1009.51,62.06Z"/><path class="cls-2" d="M1017.82,64.94a3.88,3.88,0,0,0,2.36.89c.7,0,1.4-.37,1.4-1,0-.92-1.33-1-2.5-1.36-1-.33-1.84-.94-1.84-2.06,0-1.72,1.53-2.5,3-2.5a4.06,4.06,0,0,1,2.65.88L1022,61a2.85,2.85,0,0,0-1.72-.63c-.78,0-1.44.38-1.44,1s.63.74,1.43.94c1.25.32,2.9.88,2.9,2.53s-1.41,2.45-3,2.45a4.94,4.94,0,0,1-3.23-1.11Z"/><path class="cls-2" d="M1027.1,64.86a1.19,1.19,0,1,1-1.19,1.19A1.18,1.18,0,0,1,1027.1,64.86Z"/><path class="cls-2" d="M333.26,79.17h8.15v1.62h-3.22V91.07h-1.7V80.79h-3.23Z"/><path class="cls-2" d="M344.73,83.78a3.59,3.59,0,0,1,2.35-.87,3.66,3.66,0,0,1,2.9,1.41,4.27,4.27,0,0,1,.78,2.84v3.91h-1.61v-4a2.72,2.72,0,0,0-.48-1.86,2.1,2.1,0,0,0-1.64-.78,3,3,0,0,0-2.3,1.14v5.49h-1.61V79h1.61Z"/><path class="cls-2" d="M354.37,87.42A2.57,2.57,0,0,0,357,89.83a2.89,2.89,0,0,0,2.3-1.09l1.05,1a4.16,4.16,0,0,1-3.36,1.5,4.07,4.07,0,0,1-4.14-4.16,3.88,3.88,0,1,1,7.74,0,2.61,2.61,0,0,1,0,.34Zm.13-1.36h4.36a2.24,2.24,0,0,0-2.11-1.74A2.34,2.34,0,0,0,354.5,86.06Z"/><path class="cls-2" d="M365.89,83.08h1.67l2.36,5.44,2.37-5.44H374l-3.47,8h-1.12Z"/><path class="cls-2" d="M376.37,79.17a1.07,1.07,0,0,1,1.07,1.07,1.06,1.06,0,0,1-1.07,1.06,1,1,0,0,1-1.06-1.06A1.06,1.06,0,0,1,376.37,79.17Zm-.8,3.91h1.61v8h-1.61Z"/><path class="cls-2" d="M381,87.42a2.57,2.57,0,0,0,2.58,2.41,2.86,2.86,0,0,0,2.29-1.09l1.06,1a4.19,4.19,0,0,1-3.37,1.5,4.06,4.06,0,0,1-4.13-4.16,3.88,3.88,0,1,1,7.74,0,2.61,2.61,0,0,1,0,.34Zm.13-1.36h4.35a2.22,2.22,0,0,0-2.1-1.74A2.33,2.33,0,0,0,381.09,86.06Z"/><path class="cls-2" d="M395.15,83.08l2.19,5.46,2.2-5.46h1.66l-3.24,8h-1.13l-2.24-5.61-2.24,5.61h-1.13l-3.24-8h1.66l2.2,5.46L394,83.08Z"/><path class="cls-2" d="M403,88.94a3.9,3.9,0,0,0,2.36.89c.7,0,1.4-.37,1.4-1,0-.92-1.33-1-2.5-1.36-1-.33-1.84-.94-1.84-2.06,0-1.72,1.53-2.5,3-2.5a4.06,4.06,0,0,1,2.65.88L407.17,85a2.85,2.85,0,0,0-1.72-.63c-.78,0-1.44.38-1.44,1s.63.74,1.43.94c1.25.32,2.9.88,2.9,2.53s-1.41,2.45-3,2.45a4.94,4.94,0,0,1-3.23-1.11Z"/><path class="cls-2" d="M413.1,89l-2,4.42H410L411.23,89Z"/><path class="cls-2" d="M421,82.4a3.71,3.71,0,0,1,.51-2.24,3.12,3.12,0,0,1,2.62-1.33,3.61,3.61,0,0,1,.95.12l-.34,1.48a2.91,2.91,0,0,0-.6-.07,1.55,1.55,0,0,0-1.22.56,2.29,2.29,0,0,0-.31,1.43v.73h5.95v8H427V84.53h-4.34v6.54H421V84.53h-1.87V83.08H421Zm6.75-3.4a1.07,1.07,0,0,1,1.07,1.07,1.06,1.06,0,0,1-1.07,1.06,1,1,0,0,1-1.06-1.06A1.06,1.06,0,0,1,427.76,79Z"/><path class="cls-2" d="M433,83.85a3.44,3.44,0,0,1,2.39-.94,3.67,3.67,0,0,1,2.91,1.41,4.27,4.27,0,0,1,.78,2.84v3.91H437.5v-4a2.72,2.72,0,0,0-.48-1.86,2.11,2.11,0,0,0-1.65-.78,2.94,2.94,0,0,0-2.29,1.14v5.49h-1.62v-8H433Z"/><path class="cls-2" d="M447.66,90.34a3.63,3.63,0,0,1-2.46.9,4,4,0,0,1-2-.53,4.27,4.27,0,0,1,0-7.29,3.82,3.82,0,0,1,2-.51,3.76,3.76,0,0,1,2.45.87V79h1.62V91.07h-1.57Zm-.05-4.76a2.87,2.87,0,0,0-2.28-1.14,2.56,2.56,0,0,0-2.56,2.64,2.61,2.61,0,0,0,2.65,2.63,2.76,2.76,0,0,0,2.19-1.14Z"/><path class="cls-2" d="M452.92,79.17A1.07,1.07,0,0,1,454,80.24a1.06,1.06,0,0,1-1.07,1.06,1,1,0,0,1-1.06-1.06A1.06,1.06,0,0,1,452.92,79.17Zm-.8,3.91h1.61v8h-1.61Z"/><path class="cls-2" d="M458.19,83.85a3.44,3.44,0,0,1,2.39-.94,3.67,3.67,0,0,1,2.91,1.41,4.27,4.27,0,0,1,.78,2.84v3.91h-1.61v-4a2.72,2.72,0,0,0-.48-1.86,2.11,2.11,0,0,0-1.65-.78,2.94,2.94,0,0,0-2.29,1.14v5.49h-1.62v-8h1.57Z"/><path class="cls-2" d="M470.36,91.24a4,4,0,0,1-2-.53,4.27,4.27,0,0,1,0-7.29,3.82,3.82,0,0,1,1.95-.51,3.74,3.74,0,0,1,2.5.9v-.73h1.57v7.65a5.66,5.66,0,0,1-.48,2.62,3.71,3.71,0,0,1-3.45,2,4.57,4.57,0,0,1-3.89-1.85l1.19-1.11a3.09,3.09,0,0,0,2.63,1.43,2.19,2.19,0,0,0,1.94-.92,3.64,3.64,0,0,0,.44-2.06v-.44A3.58,3.58,0,0,1,470.36,91.24Zm2.41-5.66a2.87,2.87,0,0,0-2.28-1.14,2.56,2.56,0,0,0-2.56,2.64,2.61,2.61,0,0,0,2.65,2.63,2.77,2.77,0,0,0,2.19-1.14Z"/><path class="cls-2" d="M477.35,88.94a3.86,3.86,0,0,0,2.36.89c.7,0,1.39-.37,1.39-1,0-.92-1.32-1-2.5-1.36-1-.33-1.83-.94-1.83-2.06,0-1.72,1.53-2.5,3-2.5a4.07,4.07,0,0,1,2.66.88L481.54,85a2.85,2.85,0,0,0-1.71-.63c-.79,0-1.45.38-1.45,1s.63.74,1.43.94c1.26.32,2.91.88,2.91,2.53s-1.41,2.45-3,2.45a5,5,0,0,1-3.23-1.11Z"/><path class="cls-2" d="M487.48,89l-2,4.42h-1.11L485.61,89Z"/><path class="cls-2" d="M501.67,89.37a4.23,4.23,0,0,1-3.55,1.87,4.17,4.17,0,1,1-.1-8.33,4.24,4.24,0,0,1,3.4,1.73l-1.19,1A2.74,2.74,0,0,0,498,84.44a2.64,2.64,0,0,0,.1,5.27,2.84,2.84,0,0,0,2.31-1.24Z"/><path class="cls-2" d="M507,82.91a4.17,4.17,0,1,1-4.13,4.17A4,4,0,0,1,507,82.91Zm0,6.8a2.64,2.64,0,1,0-2.51-2.63A2.52,2.52,0,0,0,507,89.71Z"/><path class="cls-2" d="M514.9,83.85a3.44,3.44,0,0,1,2.39-.94,3.67,3.67,0,0,1,2.91,1.41,4.27,4.27,0,0,1,.78,2.84v3.91h-1.61v-4a2.72,2.72,0,0,0-.48-1.86,2.11,2.11,0,0,0-1.65-.78A2.94,2.94,0,0,0,515,85.58v5.49h-1.62v-8h1.57Z"/><path class="cls-2" d="M530.84,89.37a4.23,4.23,0,0,1-3.55,1.87A4.12,4.12,0,0,1,523,87.08a4.07,4.07,0,0,1,4.17-4.17,4.24,4.24,0,0,1,3.4,1.73l-1.19,1a2.74,2.74,0,0,0-2.21-1.21,2.64,2.64,0,0,0,.1,5.27,2.84,2.84,0,0,0,2.31-1.24Z"/><path class="cls-2" d="M532.71,79h1.62V91.07h-1.62Z"/><path class="cls-2" d="M537.78,89.9a4.1,4.1,0,0,1-.73-2.74V83.08h1.61v4.34a2.25,2.25,0,0,0,.46,1.59,2,2,0,0,0,1.55.7,3,3,0,0,0,2.24-1.14V83.08h1.62v8H543v-.73a3.58,3.58,0,0,1-2.34.9A3.62,3.62,0,0,1,537.78,89.9Z"/><path class="cls-2" d="M547.49,88.94a3.86,3.86,0,0,0,2.36.89c.7,0,1.39-.37,1.39-1,0-.92-1.32-1-2.5-1.36-1-.33-1.83-.94-1.83-2.06,0-1.72,1.53-2.5,3-2.5a4.06,4.06,0,0,1,2.65.88L551.69,85a2.9,2.9,0,0,0-1.72-.63c-.78,0-1.45.38-1.45,1s.63.74,1.43.94c1.26.32,2.91.88,2.91,2.53s-1.41,2.45-3,2.45a5,5,0,0,1-3.23-1.11Z"/><path class="cls-2" d="M556,79.17A1.06,1.06,0,0,1,557,80.24,1.05,1.05,0,0,1,556,81.3a1,1,0,0,1-1.05-1.06A1.05,1.05,0,0,1,556,79.17Zm-.8,3.91h1.62v8h-1.62Z"/><path class="cls-2" d="M563.11,82.91A4.17,4.17,0,1,1,559,87.08,4.05,4.05,0,0,1,563.11,82.91Zm0,6.8a2.64,2.64,0,1,0-2.52-2.63A2.51,2.51,0,0,0,563.11,89.71Z"/><path class="cls-2" d="M571,83.85a3.46,3.46,0,0,1,2.4-.94,3.68,3.68,0,0,1,2.91,1.41,4.27,4.27,0,0,1,.78,2.84v3.91h-1.62v-4a2.72,2.72,0,0,0-.47-1.86,2.14,2.14,0,0,0-1.65-.78,3,3,0,0,0-2.3,1.14v5.49h-1.61v-8H571Z"/><path class="cls-2" d="M579.89,88.94a3.88,3.88,0,0,0,2.36.89c.7,0,1.39-.37,1.39-1,0-.92-1.32-1-2.49-1.36-1-.33-1.84-.94-1.84-2.06,0-1.72,1.53-2.5,3-2.5a4.06,4.06,0,0,1,2.65.88L584.09,85a2.88,2.88,0,0,0-1.72-.63c-.78,0-1.45.38-1.45,1s.63.74,1.43.94c1.26.32,2.91.88,2.91,2.53s-1.41,2.45-3,2.45a5,5,0,0,1-3.24-1.11Z"/><path class="cls-2" d="M595.6,82.91a4.17,4.17,0,1,1-4.14,4.17A4.05,4.05,0,0,1,595.6,82.91Zm0,6.8a2.64,2.64,0,1,0-2.52-2.63A2.52,2.52,0,0,0,595.6,89.71Z"/><path class="cls-2" d="M606.34,84.51a2.38,2.38,0,0,0-.63-.07,2.69,2.69,0,0,0-2.16,1.34v5.29h-1.61v-8h1.56V84a2.91,2.91,0,0,1,2.4-1.09,4.7,4.7,0,0,1,.63,0Z"/><path class="cls-2" d="M617.3,84.51a2.28,2.28,0,0,0-.63-.07,2.67,2.67,0,0,0-2.15,1.34v5.29H612.9v-8h1.56V84a2.93,2.93,0,0,1,2.4-1.09,4.7,4.7,0,0,1,.63,0Z"/><path class="cls-2" d="M620,87.42a2.58,2.58,0,0,0,2.58,2.41,2.89,2.89,0,0,0,2.3-1.09l1,1a4.16,4.16,0,0,1-3.36,1.5,4.06,4.06,0,0,1-4.13-4.16,3.88,3.88,0,1,1,7.73,0,2.61,2.61,0,0,1,0,.34Zm.14-1.36h4.35a2.24,2.24,0,0,0-2.11-1.74A2.32,2.32,0,0,0,620.13,86.06Z"/><path class="cls-2" d="M635.51,89.37A4.23,4.23,0,0,1,632,91.24a4.17,4.17,0,1,1-.1-8.33,4.24,4.24,0,0,1,3.4,1.73l-1.19,1a2.76,2.76,0,0,0-2.21-1.21,2.64,2.64,0,0,0,.1,5.27,2.84,2.84,0,0,0,2.31-1.24Z"/><path class="cls-2" d="M640.83,82.91a4.17,4.17,0,1,1-4.13,4.17A4,4,0,0,1,640.83,82.91Zm0,6.8a2.64,2.64,0,1,0-2.51-2.63A2.52,2.52,0,0,0,640.83,89.71Z"/><path class="cls-2" d="M648.74,83.08v.77a3.46,3.46,0,0,1,2.34-.94,3.6,3.6,0,0,1,2.82,1.33A4,4,0,0,1,657,82.91a3.63,3.63,0,0,1,2.84,1.34,4.1,4.1,0,0,1,.73,2.74v4.08H658.9V86.74a2.26,2.26,0,0,0-.46-1.6,1.93,1.93,0,0,0-1.49-.7,3.27,3.27,0,0,0-2.43,1.14,7,7,0,0,1,.13,1.41v4.08H653V86.74a2.26,2.26,0,0,0-.46-1.6,2,2,0,0,0-1.55-.7,3.06,3.06,0,0,0-2.24,1.14v5.49h-1.62v-8Z"/><path class="cls-2" d="M664.8,83.08v.77a3.46,3.46,0,0,1,2.35-.94A3.62,3.62,0,0,1,670,84.24a4,4,0,0,1,3-1.33,3.62,3.62,0,0,1,2.84,1.34,4.1,4.1,0,0,1,.73,2.74v4.08H675V86.74a2.26,2.26,0,0,0-.46-1.6,2,2,0,0,0-1.5-.7,3.31,3.31,0,0,0-2.43,1.14,6.27,6.27,0,0,1,.14,1.41v4.08H669.1V86.74a2.26,2.26,0,0,0-.46-1.6,2,2,0,0,0-1.54-.7,3.06,3.06,0,0,0-2.25,1.14v5.49h-1.61v-8Z"/><path class="cls-2" d="M680.19,87.42a2.57,2.57,0,0,0,2.58,2.41,2.89,2.89,0,0,0,2.3-1.09l1,1a4.18,4.18,0,0,1-3.37,1.5,4.06,4.06,0,0,1-4.13-4.16,3.88,3.88,0,1,1,7.74,0,2.61,2.61,0,0,1,0,.34Zm.13-1.36h4.35a2.22,2.22,0,0,0-2.1-1.74A2.33,2.33,0,0,0,680.32,86.06Z"/><path class="cls-2" d="M690.13,83.85a3.46,3.46,0,0,1,2.4-.94,3.68,3.68,0,0,1,2.91,1.41,4.27,4.27,0,0,1,.78,2.84v3.91H694.6v-4a2.72,2.72,0,0,0-.47-1.86,2.14,2.14,0,0,0-1.65-.78,3,3,0,0,0-2.3,1.14v5.49h-1.61v-8h1.56Z"/><path class="cls-2" d="M704.77,90.34a3.66,3.66,0,0,1-2.47.9,4,4,0,0,1-2-.53,4.16,4.16,0,0,1-2-3.63,4.23,4.23,0,0,1,2-3.66,3.86,3.86,0,0,1,2-.51,3.77,3.77,0,0,1,2.45.87V79h1.61V91.07h-1.56Zm0-4.76a2.88,2.88,0,0,0-2.28-1.14,2.56,2.56,0,0,0-2.57,2.64,2.61,2.61,0,0,0,2.65,2.63,2.79,2.79,0,0,0,2.2-1.14Z"/><path class="cls-2" d="M715.05,90.34a3.63,3.63,0,0,1-2.46.9,4.07,4.07,0,0,1-2-.53,4.27,4.27,0,0,1,0-7.29,3.82,3.82,0,0,1,1.95-.51,3.72,3.72,0,0,1,2.5.9v-.73h1.57v8h-1.57Zm0-4.76a2.87,2.87,0,0,0-2.28-1.14,2.56,2.56,0,0,0-2.56,2.64,2.61,2.61,0,0,0,2.65,2.63A2.77,2.77,0,0,0,715,88.57Z"/><path class="cls-2" d="M724.44,91.07a4.52,4.52,0,0,1-1.26.17,2.88,2.88,0,0,1-2.26-.94,3,3,0,0,1-.65-2.12V84.53h-2V83.08h2V80.87h1.62v2.21h2.55v1.45h-2.55v3.74a1.54,1.54,0,0,0,.23,1,1.49,1.49,0,0,0,1.11.43,3.71,3.71,0,0,0,.88-.1Z"/><path class="cls-2" d="M727.45,79.17a1.07,1.07,0,0,1,1.07,1.07,1.06,1.06,0,0,1-1.07,1.06,1,1,0,0,1-1.06-1.06A1.06,1.06,0,0,1,727.45,79.17Zm-.8,3.91h1.61v8h-1.61Z"/><path class="cls-2" d="M734.6,82.91a4.17,4.17,0,1,1-4.13,4.17A4,4,0,0,1,734.6,82.91Zm0,6.8a2.64,2.64,0,1,0-2.51-2.63A2.52,2.52,0,0,0,734.6,89.71Z"/><path class="cls-2" d="M742.51,83.85a3.44,3.44,0,0,1,2.4-.94,3.66,3.66,0,0,1,2.9,1.41,4.27,4.27,0,0,1,.78,2.84v3.91H747v-4a2.72,2.72,0,0,0-.48-1.86,2.11,2.11,0,0,0-1.65-.78,3,3,0,0,0-2.29,1.14v5.49H741v-8h1.56Z"/><path class="cls-2" d="M751.38,88.94a3.91,3.91,0,0,0,2.37.89c.69,0,1.39-.37,1.39-1,0-.92-1.33-1-2.5-1.36-1-.33-1.84-.94-1.84-2.06,0-1.72,1.53-2.5,3-2.5a4,4,0,0,1,2.65.88L755.58,85a2.85,2.85,0,0,0-1.72-.63c-.78,0-1.44.38-1.44,1s.63.74,1.43.94c1.26.32,2.9.88,2.9,2.53s-1.41,2.45-3,2.45a4.94,4.94,0,0,1-3.23-1.11Z"/><path class="cls-2" d="M764.52,87.42a2.58,2.58,0,0,0,2.59,2.41,2.87,2.87,0,0,0,2.29-1.09l1.06,1a4.19,4.19,0,0,1-3.37,1.5A4.06,4.06,0,0,1,763,87.08a3.88,3.88,0,1,1,7.73,0c0,.06,0,.18,0,.34Zm.14-1.36H769a2.23,2.23,0,0,0-2.11-1.74A2.32,2.32,0,0,0,764.66,86.06Z"/><path class="cls-2" d="M775.62,88.08l-2.16,3h-1.92l3-4.2-2.74-3.79h1.91l1.88,2.58,1.89-2.58h1.9l-2.73,3.79,3,4.2h-1.92Z"/><path class="cls-2" d="M783,95.15H781.4V83.08H783v.73a3.74,3.74,0,0,1,2.5-.9,3.82,3.82,0,0,1,1.95.51,4.22,4.22,0,0,1,2.06,3.66,4.16,4.16,0,0,1-2,3.63,4,4,0,0,1-2,.53,3.6,3.6,0,0,1-2.41-.87Zm0-6.58a2.77,2.77,0,0,0,2.19,1.14,2.61,2.61,0,0,0,2.65-2.63,2.56,2.56,0,0,0-2.56-2.64A2.87,2.87,0,0,0,783,85.58Z"/><path class="cls-2" d="M796.09,84.51a2.28,2.28,0,0,0-.63-.07,2.7,2.7,0,0,0-2.16,1.34v5.29h-1.61v-8h1.56V84a2.92,2.92,0,0,1,2.4-1.09,4.7,4.7,0,0,1,.63,0Z"/><path class="cls-2" d="M798.78,87.42a2.57,2.57,0,0,0,2.58,2.41,2.89,2.89,0,0,0,2.3-1.09l1.05,1a4.16,4.16,0,0,1-3.36,1.5,4.07,4.07,0,0,1-4.14-4.16,3.88,3.88,0,1,1,7.74,0,2.61,2.61,0,0,1,0,.34Zm.13-1.36h4.36a2.24,2.24,0,0,0-2.11-1.74A2.34,2.34,0,0,0,798.91,86.06Z"/><path class="cls-2" d="M807.23,88.94a3.88,3.88,0,0,0,2.36.89c.7,0,1.39-.37,1.39-1,0-.92-1.32-1-2.49-1.36-1-.33-1.84-.94-1.84-2.06,0-1.72,1.53-2.5,3-2.5a4.06,4.06,0,0,1,2.65.88L811.43,85a2.88,2.88,0,0,0-1.72-.63c-.78,0-1.45.38-1.45,1s.63.74,1.43.94c1.26.32,2.91.88,2.91,2.53s-1.41,2.45-3,2.45a5,5,0,0,1-3.23-1.11Z"/><path class="cls-2" d="M815,88.94a3.91,3.91,0,0,0,2.37.89c.69,0,1.39-.37,1.39-1,0-.92-1.33-1-2.5-1.36-1-.33-1.84-.94-1.84-2.06,0-1.72,1.53-2.5,3-2.5a4,4,0,0,1,2.65.88L819.16,85a2.85,2.85,0,0,0-1.72-.63c-.78,0-1.44.38-1.44,1s.63.74,1.43.94c1.26.32,2.9.88,2.9,2.53s-1.41,2.45-3,2.45a4.94,4.94,0,0,1-3.23-1.11Z"/><path class="cls-2" d="M823.51,87.42a2.58,2.58,0,0,0,2.59,2.41,2.87,2.87,0,0,0,2.29-1.09l1.06,1a4.19,4.19,0,0,1-3.37,1.5A4.06,4.06,0,0,1,822,87.08a3.88,3.88,0,1,1,7.73,0c0,.06,0,.18,0,.34Zm.14-1.36H828a2.23,2.23,0,0,0-2.11-1.74A2.32,2.32,0,0,0,823.65,86.06Z"/><path class="cls-2" d="M837.72,90.34a3.63,3.63,0,0,1-2.46.9,4.07,4.07,0,0,1-2-.53,4.27,4.27,0,0,1,0-7.29,3.86,3.86,0,0,1,2-.51,3.75,3.75,0,0,1,2.44.87V79h1.62V91.07h-1.57Zm-.05-4.76a2.85,2.85,0,0,0-2.27-1.14,2.56,2.56,0,0,0-2.57,2.64,2.61,2.61,0,0,0,2.65,2.63,2.76,2.76,0,0,0,2.19-1.14Z"/><path class="cls-2" d="M847.57,79.17a1.07,1.07,0,0,1,1.07,1.07,1.06,1.06,0,0,1-1.07,1.06,1,1,0,0,1-1.06-1.06A1.06,1.06,0,0,1,847.57,79.17Zm-.8,3.91h1.61v8h-1.61Z"/><path class="cls-2" d="M852.84,83.85a3.44,3.44,0,0,1,2.39-.94,3.67,3.67,0,0,1,2.91,1.41,4.27,4.27,0,0,1,.78,2.84v3.91h-1.61v-4a2.72,2.72,0,0,0-.48-1.86,2.11,2.11,0,0,0-1.65-.78,3,3,0,0,0-2.29,1.14v5.49h-1.62v-8h1.57Z"/><path class="cls-2" d="M871,91.07a4.39,4.39,0,0,1-1.25.17,2.9,2.9,0,0,1-2.27-.94,3.06,3.06,0,0,1-.64-2.12V84.53h-2V83.08h2V80.87h1.61v2.21H871v1.45h-2.55v3.74a1.54,1.54,0,0,0,.24,1,1.46,1.46,0,0,0,1.11.43,3.77,3.77,0,0,0,.88-.1Z"/><path class="cls-2" d="M874.82,83.78a3.58,3.58,0,0,1,2.34-.87,3.67,3.67,0,0,1,2.91,1.41,4.27,4.27,0,0,1,.78,2.84v3.91h-1.61v-4a2.72,2.72,0,0,0-.48-1.86,2.11,2.11,0,0,0-1.65-.78,2.94,2.94,0,0,0-2.29,1.14v5.49H873.2V79h1.62Z"/><path class="cls-2" d="M884.37,79.17a1.06,1.06,0,0,1,1.07,1.07,1.05,1.05,0,0,1-1.07,1.06,1,1,0,0,1-1-1.06A1.05,1.05,0,0,1,884.37,79.17Zm-.8,3.91h1.62v8h-1.62Z"/><path class="cls-2" d="M888.15,88.94a3.86,3.86,0,0,0,2.36.89c.7,0,1.39-.37,1.39-1,0-.92-1.32-1-2.5-1.36-1-.33-1.83-.94-1.83-2.06,0-1.72,1.53-2.5,3-2.5a4.06,4.06,0,0,1,2.65.88L892.35,85a2.88,2.88,0,0,0-1.72-.63c-.78,0-1.45.38-1.45,1s.63.74,1.43.94c1.26.32,2.91.88,2.91,2.53s-1.41,2.45-3,2.45a5,5,0,0,1-3.23-1.11Z"/><path class="cls-2" d="M901.29,87.42a2.57,2.57,0,0,0,2.58,2.41,2.89,2.89,0,0,0,2.3-1.09l1.05,1a4.18,4.18,0,0,1-3.37,1.5,4.06,4.06,0,0,1-4.13-4.16,3.88,3.88,0,1,1,7.74,0,2.61,2.61,0,0,1,0,.34Zm.13-1.36h4.36a2.24,2.24,0,0,0-2.11-1.74A2.34,2.34,0,0,0,901.42,86.06Z"/><path class="cls-2" d="M912.39,88.08l-2.16,3h-1.92l3-4.2-2.73-3.79h1.9l1.89,2.58,1.89-2.58h1.9l-2.74,3.79,3,4.2h-1.92Z"/><path class="cls-2" d="M919.78,83.78a3.64,3.64,0,0,1,2.35-.87A3.68,3.68,0,0,1,925,84.32a4.27,4.27,0,0,1,.78,2.84v3.91H924.2v-4a2.72,2.72,0,0,0-.47-1.86,2.14,2.14,0,0,0-1.65-.78,3,3,0,0,0-2.3,1.14v5.49h-1.61V79h1.61Z"/><path class="cls-2" d="M929.34,79.17a1.07,1.07,0,0,1,1.07,1.07,1.06,1.06,0,0,1-1.07,1.06,1,1,0,0,1-1.06-1.06A1.06,1.06,0,0,1,929.34,79.17Zm-.8,3.91h1.61v8h-1.61Z"/><path class="cls-2" d="M934.61,91.07H933V79h1.62v4.78a3.76,3.76,0,0,1,2.45-.87,3.82,3.82,0,0,1,1.95.51,4.22,4.22,0,0,1,2.06,3.66,4.16,4.16,0,0,1-2,3.63,4,4,0,0,1-2,.53,3.63,3.63,0,0,1-2.46-.9Zm0-2.5a2.77,2.77,0,0,0,2.19,1.14,2.61,2.61,0,0,0,2.65-2.63,2.56,2.56,0,0,0-2.56-2.64,2.87,2.87,0,0,0-2.28,1.14Z"/><path class="cls-2" d="M944.13,79.17a1.07,1.07,0,0,1,1.07,1.07,1.06,1.06,0,0,1-1.07,1.06,1,1,0,0,1-1.06-1.06A1.06,1.06,0,0,1,944.13,79.17Zm-.8,3.91h1.61v8h-1.61Z"/><path class="cls-2" d="M952.76,91.07a4.44,4.44,0,0,1-1.25.17,2.89,2.89,0,0,1-2.27-.94,3.06,3.06,0,0,1-.64-2.12V84.53h-2V83.08h2V80.87h1.61v2.21h2.55v1.45h-2.55v3.74a1.54,1.54,0,0,0,.24,1,1.46,1.46,0,0,0,1.11.43,3.83,3.83,0,0,0,.88-.1Z"/><path class="cls-2" d="M955.77,79.17a1.06,1.06,0,0,1,1.07,1.07,1.05,1.05,0,0,1-1.07,1.06,1,1,0,0,1-1-1.06A1.05,1.05,0,0,1,955.77,79.17Zm-.8,3.91h1.62v8H955Z"/><path class="cls-2" d="M962.93,82.91a4.17,4.17,0,1,1-4.13,4.17A4.05,4.05,0,0,1,962.93,82.91Zm0,6.8a2.64,2.64,0,1,0-2.52-2.63A2.52,2.52,0,0,0,962.93,89.71Z"/><path class="cls-2" d="M970.83,83.85a3.48,3.48,0,0,1,2.4-.94,3.68,3.68,0,0,1,2.91,1.41,4.27,4.27,0,0,1,.78,2.84v3.91H975.3v-4a2.72,2.72,0,0,0-.47-1.86,2.12,2.12,0,0,0-1.65-.78,3,3,0,0,0-2.3,1.14v5.49h-1.61v-8h1.56Z"/><path class="cls-2" d="M990.06,90.34a3.65,3.65,0,0,1-2.46.9,4,4,0,0,1-2-.53,4.16,4.16,0,0,1-2-3.63,4.22,4.22,0,0,1,2.06-3.66,3.93,3.93,0,0,1,4.4.36V79h1.61V91.07h-1.56Zm0-4.76a2.87,2.87,0,0,0-2.28-1.14,2.56,2.56,0,0,0-2.56,2.64,2.61,2.61,0,0,0,2.65,2.63A2.79,2.79,0,0,0,990,88.57Z"/><path class="cls-2" d="M998,82.91a4.17,4.17,0,1,1-4.13,4.17A4.05,4.05,0,0,1,998,82.91Zm0,6.8a2.64,2.64,0,1,0-2.52-2.63A2.51,2.51,0,0,0,998,89.71Z"/><path class="cls-2" d="M336,107.85a3.44,3.44,0,0,1,2.4-.94,3.66,3.66,0,0,1,2.9,1.41,4.27,4.27,0,0,1,.78,2.84v3.91h-1.61v-4a2.72,2.72,0,0,0-.48-1.86,2.1,2.1,0,0,0-1.64-.78,3,3,0,0,0-2.3,1.14v5.49h-1.61v-8H336Z"/><path class="cls-2" d="M348.27,106.91a4.17,4.17,0,1,1-4.14,4.17A4.05,4.05,0,0,1,348.27,106.91Zm0,6.8a2.64,2.64,0,1,0-2.52-2.63A2.52,2.52,0,0,0,348.27,113.71Z"/><path class="cls-2" d="M359.45,115.07a4.46,4.46,0,0,1-1.26.17,2.88,2.88,0,0,1-2.26-.94,3.06,3.06,0,0,1-.64-2.12v-3.65h-2v-1.45h2v-2.21h1.61v2.21h2.55v1.45H356.9v3.74a1.54,1.54,0,0,0,.24,1,1.45,1.45,0,0,0,1.1.43,3.86,3.86,0,0,0,.89-.1Z"/><path class="cls-2" d="M367.65,107.85a3.44,3.44,0,0,1,2.39-.94,3.68,3.68,0,0,1,2.91,1.41,4.27,4.27,0,0,1,.78,2.84v3.91h-1.61v-4a2.72,2.72,0,0,0-.48-1.86,2.12,2.12,0,0,0-1.65-.78,2.94,2.94,0,0,0-2.29,1.14v5.49h-1.62v-8h1.57Z"/><path class="cls-2" d="M377.34,111.42a2.57,2.57,0,0,0,2.58,2.41,2.87,2.87,0,0,0,2.29-1.09l1.06,1a4.19,4.19,0,0,1-3.37,1.5,4.06,4.06,0,0,1-4.13-4.16,3.88,3.88,0,1,1,7.74,0,2.61,2.61,0,0,1,0,.34Zm.13-1.36h4.35a2.23,2.23,0,0,0-2.11-1.74A2.32,2.32,0,0,0,377.47,110.06Z"/><path class="cls-2" d="M392.86,113.37a4.27,4.27,0,0,1-3.56,1.87,4.11,4.11,0,0,1-4.26-4.16,4.06,4.06,0,0,1,4.16-4.17,4.24,4.24,0,0,1,3.4,1.73l-1.19,1a2.74,2.74,0,0,0-2.21-1.21,2.64,2.64,0,0,0,.1,5.27,2.86,2.86,0,0,0,2.32-1.24Z"/><path class="cls-2" d="M395.61,111.42a2.58,2.58,0,0,0,2.58,2.41,2.89,2.89,0,0,0,2.3-1.09l1.05,1a4.16,4.16,0,0,1-3.36,1.5,4.06,4.06,0,0,1-4.13-4.16,3.88,3.88,0,1,1,7.73,0,2.61,2.61,0,0,1,0,.34Zm.14-1.36h4.35a2.24,2.24,0,0,0-2.11-1.74A2.32,2.32,0,0,0,395.75,110.06Z"/><path class="cls-2" d="M404.06,112.94a3.88,3.88,0,0,0,2.36.89c.7,0,1.4-.37,1.4-1,0-.92-1.33-1-2.5-1.36-1-.33-1.84-.94-1.84-2.06,0-1.72,1.53-2.5,3-2.5a4.06,4.06,0,0,1,2.65.88l-.83,1.16a2.88,2.88,0,0,0-1.72-.63c-.78,0-1.44.38-1.44,1s.62.74,1.42.94c1.26.32,2.91.88,2.91,2.53s-1.41,2.45-3,2.45a4.94,4.94,0,0,1-3.23-1.11Z"/><path class="cls-2" d="M411.79,112.94a3.91,3.91,0,0,0,2.37.89c.69,0,1.39-.37,1.39-1,0-.92-1.33-1-2.5-1.36-1-.33-1.83-.94-1.83-2.06,0-1.72,1.53-2.5,2.95-2.5a4.07,4.07,0,0,1,2.66.88L416,109a2.85,2.85,0,0,0-1.71-.63c-.79,0-1.45.38-1.45,1s.63.74,1.43.94c1.26.32,2.91.88,2.91,2.53s-1.42,2.45-3,2.45a5,5,0,0,1-3.23-1.11Z"/><path class="cls-2" d="M425.29,114.34a3.63,3.63,0,0,1-2.46.9,4,4,0,0,1-2-.53,4.16,4.16,0,0,1-2-3.63,4.22,4.22,0,0,1,2.06-3.66,3.79,3.79,0,0,1,2-.51,3.74,3.74,0,0,1,2.5.9v-.73h1.57v8h-1.57Zm-.05-4.76a2.87,2.87,0,0,0-2.28-1.14,2.56,2.56,0,0,0-2.56,2.64,2.61,2.61,0,0,0,2.65,2.63,2.77,2.77,0,0,0,2.19-1.14Z"/><path class="cls-2" d="M434.15,108.51a2.38,2.38,0,0,0-.63-.07,2.69,2.69,0,0,0-2.16,1.34v5.29h-1.61v-8h1.56V108a2.91,2.91,0,0,1,2.4-1.09,4.7,4.7,0,0,1,.63,0Z"/><path class="cls-2" d="M437.09,103.17a1.07,1.07,0,0,1,1.07,1.07,1.06,1.06,0,0,1-1.07,1.06,1,1,0,0,1-1-1.06A1.05,1.05,0,0,1,437.09,103.17Zm-.8,3.91h1.62v8h-1.62Z"/><path class="cls-2" d="M440.8,103h1.61v12.07H440.8Z"/><path class="cls-2" d="M445.28,119.15l2.16-4.91L444,107.08h1.73l2.5,5.27,2.29-5.27h1.7L447,119.15Z"/><path class="cls-2" d="M462.78,108.51a2.38,2.38,0,0,0-.63-.07,2.67,2.67,0,0,0-2.16,1.34v5.29h-1.62v-8h1.57V108a2.9,2.9,0,0,1,2.39-1.09,4.58,4.58,0,0,1,.63,0Z"/><path class="cls-2" d="M465.46,111.42a2.58,2.58,0,0,0,2.59,2.41,2.87,2.87,0,0,0,2.29-1.09l1.05,1a4.16,4.16,0,0,1-3.36,1.5,4.06,4.06,0,0,1-4.13-4.16,3.88,3.88,0,1,1,7.73,0c0,.06,0,.18,0,.34Zm.14-1.36H470a2.24,2.24,0,0,0-2.11-1.74A2.32,2.32,0,0,0,465.6,110.06Z"/><path class="cls-2" d="M475.46,119.15h-1.62V107.08h1.57v.73a3.72,3.72,0,0,1,2.5-.9,3.82,3.82,0,0,1,1.95.51,4.27,4.27,0,0,1,0,7.29,4,4,0,0,1-2,.53,3.58,3.58,0,0,1-2.41-.87Zm0-6.58a2.76,2.76,0,0,0,2.19,1.14,2.61,2.61,0,0,0,2.65-2.63,2.56,2.56,0,0,0-2.56-2.64,2.87,2.87,0,0,0-2.28,1.14Z"/><path class="cls-2" d="M488.53,108.51a2.33,2.33,0,0,0-.63-.07,2.7,2.7,0,0,0-2.16,1.34v5.29h-1.61v-8h1.56V108a2.92,2.92,0,0,1,2.4-1.09,4.7,4.7,0,0,1,.63,0Z"/><path class="cls-2" d="M491.22,111.42a2.57,2.57,0,0,0,2.58,2.41,2.89,2.89,0,0,0,2.3-1.09l1,1a4.18,4.18,0,0,1-3.37,1.5,4.06,4.06,0,0,1-4.13-4.16,3.88,3.88,0,1,1,7.74,0,2.61,2.61,0,0,1,0,.34Zm.13-1.36h4.36a2.24,2.24,0,0,0-2.11-1.74A2.33,2.33,0,0,0,491.35,110.06Z"/><path class="cls-2" d="M499.67,112.94a3.86,3.86,0,0,0,2.36.89c.7,0,1.39-.37,1.39-1,0-.92-1.32-1-2.5-1.36-1-.33-1.83-.94-1.83-2.06,0-1.72,1.53-2.5,3-2.5a4.06,4.06,0,0,1,2.65.88l-.83,1.16a2.9,2.9,0,0,0-1.72-.63c-.78,0-1.45.38-1.45,1s.63.74,1.43.94c1.26.32,2.91.88,2.91,2.53s-1.41,2.45-3,2.45a5,5,0,0,1-3.23-1.11Z"/><path class="cls-2" d="M508.22,111.42a2.57,2.57,0,0,0,2.58,2.41,2.89,2.89,0,0,0,2.3-1.09l1,1a4.18,4.18,0,0,1-3.37,1.5,4.06,4.06,0,0,1-4.13-4.16,3.88,3.88,0,1,1,7.74,0,2.61,2.61,0,0,1,0,.34Zm.13-1.36h4.36a2.24,2.24,0,0,0-2.11-1.74A2.33,2.33,0,0,0,508.35,110.06Z"/><path class="cls-2" d="M518.16,107.85a3.46,3.46,0,0,1,2.4-.94,3.65,3.65,0,0,1,2.9,1.41,4.26,4.26,0,0,1,.79,2.84v3.91h-1.62v-4a2.72,2.72,0,0,0-.47-1.86,2.14,2.14,0,0,0-1.65-.78,3,3,0,0,0-2.3,1.14v5.49H516.6v-8h1.56Z"/><path class="cls-2" d="M531.81,115.07a4.46,4.46,0,0,1-1.26.17,2.88,2.88,0,0,1-2.26-.94,3.06,3.06,0,0,1-.64-2.12v-3.65h-2v-1.45h2v-2.21h1.61v2.21h2.55v1.45h-2.55v3.74a1.54,1.54,0,0,0,.24,1,1.46,1.46,0,0,0,1.11.43,3.83,3.83,0,0,0,.88-.1Z"/><path class="cls-2" d="M543.2,115.07a4.46,4.46,0,0,1-1.26.17,2.88,2.88,0,0,1-2.26-.94,3.06,3.06,0,0,1-.64-2.12v-3.65h-2v-1.45h2v-2.21h1.61v2.21h2.55v1.45h-2.55v3.74a1.54,1.54,0,0,0,.24,1,1.46,1.46,0,0,0,1.11.43,3.83,3.83,0,0,0,.88-.1Z"/><path class="cls-2" d="M547,107.78a3.58,3.58,0,0,1,2.34-.87,3.67,3.67,0,0,1,2.91,1.41,4.27,4.27,0,0,1,.78,2.84v3.91h-1.61v-4a2.72,2.72,0,0,0-.48-1.86,2.11,2.11,0,0,0-1.65-.78,2.94,2.94,0,0,0-2.29,1.14v5.49h-1.62V103H547Z"/><path class="cls-2" d="M559.23,106.91a4.17,4.17,0,1,1-4.13,4.17A4,4,0,0,1,559.23,106.91Zm0,6.8a2.64,2.64,0,1,0-2.51-2.63A2.52,2.52,0,0,0,559.23,113.71Z"/><path class="cls-2" d="M565.64,112.94a3.9,3.9,0,0,0,2.36.89c.7,0,1.4-.37,1.4-1,0-.92-1.33-1-2.5-1.36-1-.33-1.84-.94-1.84-2.06,0-1.72,1.53-2.5,3-2.5a4.06,4.06,0,0,1,2.65.88l-.83,1.16a2.85,2.85,0,0,0-1.72-.63c-.78,0-1.44.38-1.44,1s.63.74,1.43.94c1.26.32,2.9.88,2.9,2.53s-1.41,2.45-3,2.45a4.94,4.94,0,0,1-3.23-1.11Z"/><path class="cls-2" d="M574.19,111.42a2.58,2.58,0,0,0,2.59,2.41,2.87,2.87,0,0,0,2.29-1.09l1,1a4.16,4.16,0,0,1-3.36,1.5,4.06,4.06,0,0,1-4.13-4.16,3.88,3.88,0,1,1,7.73,0c0,.06,0,.18,0,.34Zm.14-1.36h4.35a2.24,2.24,0,0,0-2.11-1.74A2.32,2.32,0,0,0,574.33,110.06Z"/><path class="cls-2" d="M590.61,106.91a4.17,4.17,0,1,1-4.13,4.17A4.06,4.06,0,0,1,590.61,106.91Zm0,6.8a2.64,2.64,0,1,0-2.51-2.63A2.52,2.52,0,0,0,590.61,113.71Z"/><path class="cls-2" d="M601.46,104.43a2.8,2.8,0,0,0-.59-.07,1.57,1.57,0,0,0-1.23.56,2.29,2.29,0,0,0-.31,1.43v.73h2.47v1.45h-2.47v6.54h-1.61v-6.54h-1.87v-1.45h1.87v-.68a3.71,3.71,0,0,1,.51-2.24,3.12,3.12,0,0,1,2.62-1.33,3.61,3.61,0,0,1,.95.12Z"/><path class="cls-2" d="M612.93,115.07a4.39,4.39,0,0,1-1.25.17,2.87,2.87,0,0,1-2.26-.94,3,3,0,0,1-.65-2.12v-3.65h-2v-1.45h2v-2.21h1.61v2.21h2.55v1.45h-2.55v3.74a1.54,1.54,0,0,0,.24,1,1.46,1.46,0,0,0,1.11.43,3.77,3.77,0,0,0,.88-.1Z"/><path class="cls-2" d="M616.76,107.78a3.59,3.59,0,0,1,2.35-.87,3.66,3.66,0,0,1,2.9,1.41,4.27,4.27,0,0,1,.78,2.84v3.91h-1.61v-4a2.72,2.72,0,0,0-.48-1.86,2.11,2.11,0,0,0-1.65-.78,3,3,0,0,0-2.29,1.14v5.49h-1.61V103h1.61Z"/><path class="cls-2" d="M626.4,111.42a2.57,2.57,0,0,0,2.58,2.41,2.89,2.89,0,0,0,2.3-1.09l1.05,1a4.16,4.16,0,0,1-3.36,1.5,4.07,4.07,0,0,1-4.14-4.16,3.88,3.88,0,1,1,7.74,0,2.61,2.61,0,0,1,0,.34Zm.14-1.36h4.35a2.24,2.24,0,0,0-2.11-1.74A2.32,2.32,0,0,0,626.54,110.06Z"/><path class="cls-2" d="M639.46,103.17h1.69v11.9h-1.69Z"/><path class="cls-2" d="M650.59,112.52H649.4l-3.48-5.46v8h-1.71v-11.9h1.19l4.59,7.26,4.59-7.26h1.19v11.9h-1.7v-8Z"/><path class="cls-2" d="M660.53,113.46h5.27v1.61h-7v-11.9h1.7Z"/><path class="cls-2" d="M667.83,112.1a3.79,3.79,0,0,0,2.9,1.52,1.91,1.91,0,0,0,2.08-1.78c0-1.82-2.52-2-4.1-3.06a3,3,0,0,1-1.51-2.62,3.36,3.36,0,0,1,3.6-3.16,4.9,4.9,0,0,1,3.2,1.19l-1,1.24a3.3,3.3,0,0,0-2.13-.81,1.77,1.77,0,0,0-2,1.59c0,1.52,2.53,1.84,4.06,2.86a3.15,3.15,0,0,1,1.55,2.72,3.44,3.44,0,0,1-3.69,3.45,5.34,5.34,0,0,1-4.17-2Z"/><path class="cls-2" d="M678.08,112.86a1.19,1.19,0,1,1-1.19,1.19A1.19,1.19,0,0,1,678.08,112.86Z"/></g></svg>